<svg xmlns="http://www.w3.org/2000/svg" width="47" height="49" viewBox="0 0 47 49" shape-rendering="crispEdges">
<rect x="28" y="1" width="2" height="1" fill="#989899"/>
<rect x="13" y="2" width="1" height="1" fill="#000000"/>
<rect x="28" y="2" width="2" height="1" fill="#000000"/>
<rect x="14" y="2" width="1" height="2" fill="#181819"/>
<rect x="13" y="3" width="1" height="1" fill="#080808"/>
<rect x="28" y="3" width="1" height="1" fill="#080808"/>
<rect x="29" y="3" width="1" height="1" fill="#000000"/>
<rect x="14" y="4" width="1" height="1" fill="#19081d"/>
<rect x="13" y="4" width="1" height="2" fill="#000000"/>
<rect x="28" y="4" width="2" height="2" fill="#080808"/>
<rect x="14" y="5" width="1" height="1" fill="#081a1b"/>
<rect x="12" y="6" width="1" height="1" fill="#989899"/>
<rect x="13" y="6" width="1" height="1" fill="#080808"/>
<rect x="14" y="6" width="1" height="1" fill="#180808"/>
<rect x="15" y="6" width="1" height="1" fill="#d8e8d5"/>
<rect x="28" y="6" width="1" height="1" fill="#181819"/>
<rect x="29" y="6" width="1" height="1" fill="#080808"/>
<rect x="16" y="7" width="1" height="1" fill="#383936"/>
<rect x="27" y="7" width="1" height="1" fill="#000000"/>
<rect x="28" y="7" width="2" height="1" fill="#080808"/>
<rect x="12" y="7" width="1" height="2" fill="#98a994"/>
<rect x="13" y="7" width="2" height="2" fill="#080808"/>
<rect x="15" y="7" width="1" height="2" fill="#180808"/>
<rect x="27" y="8" width="2" height="1" fill="#080808"/>
<rect x="29" y="8" width="1" height="1" fill="#000000"/>
<rect x="26" y="7" width="1" height="3" fill="#181819"/>
<rect x="16" y="8" width="1" height="2" fill="#181819"/>
<rect x="17" y="8" width="1" height="2" fill="#e8e8e8"/>
<rect x="13" y="9" width="1" height="1" fill="#686968"/>
<rect x="14" y="9" width="1" height="1" fill="#594745"/>
<rect x="27" y="9" width="1" height="1" fill="#080808"/>
<rect x="28" y="9" width="1" height="1" fill="#383936"/>
<rect x="29" y="9" width="1" height="1" fill="#484848"/>
<rect x="15" y="9" width="1" height="2" fill="#080808"/>
<rect x="14" y="10" width="1" height="1" fill="#989899"/>
<rect x="16" y="10" width="1" height="1" fill="#081a08"/>
<rect x="17" y="10" width="1" height="1" fill="#f8e8f8"/>
<rect x="26" y="10" width="1" height="1" fill="#081a08"/>
<rect x="27" y="10" width="1" height="1" fill="#000000"/>
<rect x="28" y="10" width="1" height="1" fill="#787879"/>
<rect x="29" y="10" width="1" height="1" fill="#888886"/>
<rect x="15" y="11" width="2" height="1" fill="#080808"/>
<rect x="17" y="11" width="1" height="1" fill="#000000"/>
<rect x="18" y="11" width="1" height="1" fill="#383936"/>
<rect x="24" y="11" width="1" height="1" fill="#888886"/>
<rect x="25" y="11" width="1" height="1" fill="#080808"/>
<rect x="29" y="11" width="1" height="1" fill="#e8e8e8"/>
<rect x="28" y="11" width="1" height="2" fill="#d8d8d8"/>
<rect x="15" y="12" width="1" height="1" fill="#08081e"/>
<rect x="17" y="12" width="1" height="1" fill="#19081d"/>
<rect x="18" y="12" width="1" height="1" fill="#181819"/>
<rect x="24" y="12" width="1" height="1" fill="#787879"/>
<rect x="25" y="12" width="1" height="1" fill="#081a08"/>
<rect x="29" y="12" width="1" height="1" fill="#f8f8e8"/>
<rect x="16" y="12" width="1" height="2" fill="#180808"/>
<rect x="15" y="13" width="1" height="1" fill="#080808"/>
<rect x="17" y="13" width="1" height="1" fill="#080808"/>
<rect x="24" y="13" width="1" height="1" fill="#686968"/>
<rect x="25" y="13" width="1" height="1" fill="#180808"/>
<rect x="28" y="13" width="1" height="1" fill="#d8e8d5"/>
<rect x="29" y="13" width="1" height="1" fill="#f8e8f8"/>
<rect x="26" y="11" width="2" height="4" fill="#000000"/>
<rect x="18" y="13" width="1" height="2" fill="#282829"/>
<rect x="15" y="14" width="3" height="1" fill="#080808"/>
<rect x="23" y="14" width="1" height="1" fill="#888886"/>
<rect x="24" y="14" width="1" height="1" fill="#585858"/>
<rect x="25" y="14" width="1" height="1" fill="#181819"/>
<rect x="15" y="15" width="2" height="1" fill="#585858"/>
<rect x="17" y="15" width="1" height="1" fill="#282829"/>
<rect x="18" y="15" width="1" height="1" fill="#180808"/>
<rect x="20" y="15" width="1" height="1" fill="#282829"/>
<rect x="22" y="15" width="1" height="1" fill="#888886"/>
<rect x="23" y="15" width="1" height="1" fill="#181819"/>
<rect x="24" y="15" width="1" height="1" fill="#080808"/>
<rect x="25" y="15" width="1" height="1" fill="#000000"/>
<rect x="26" y="15" width="1" height="1" fill="#686968"/>
<rect x="27" y="15" width="1" height="1" fill="#989899"/>
<rect x="17" y="16" width="1" height="1" fill="#383936"/>
<rect x="18" y="16" width="1" height="1" fill="#181819"/>
<rect x="22" y="16" width="1" height="1" fill="#787879"/>
<rect x="23" y="16" width="1" height="1" fill="#180808"/>
<rect x="24" y="16" width="2" height="1" fill="#000000"/>
<rect x="26" y="16" width="1" height="1" fill="#787879"/>
<rect x="19" y="15" width="1" height="3" fill="#000000"/>
<rect x="18" y="17" width="1" height="1" fill="#080808"/>
<rect x="23" y="17" width="1" height="1" fill="#888886"/>
<rect x="24" y="17" width="1" height="1" fill="#19081d"/>
<rect x="27" y="17" width="1" height="1" fill="#f8e8f8"/>
<rect x="20" y="16" width="1" height="3" fill="#181819"/>
<rect x="25" y="17" width="1" height="2" fill="#000000"/>
<rect x="24" y="18" width="1" height="1" fill="#180808"/>
<rect x="27" y="18" width="1" height="1" fill="#f8f8f8"/>
<rect x="17" y="17" width="1" height="3" fill="#000000"/>
<rect x="18" y="18" width="2" height="2" fill="#080808"/>
<rect x="20" y="19" width="4" height="1" fill="#000000"/>
<rect x="24" y="19" width="1" height="1" fill="#686968"/>
<rect x="17" y="20" width="1" height="1" fill="#081a08"/>
<rect x="18" y="20" width="1" height="1" fill="#080808"/>
<rect x="19" y="20" width="2" height="1" fill="#000000"/>
<rect x="21" y="20" width="1" height="1" fill="#080808"/>
<rect x="22" y="20" width="1" height="1" fill="#181819"/>
<rect x="23" y="20" width="1" height="1" fill="#080808"/>
<rect x="24" y="20" width="1" height="1" fill="#554459"/>
<rect x="18" y="21" width="1" height="1" fill="#babba1"/>
<rect x="19" y="21" width="1" height="1" fill="#000000"/>
<rect x="20" y="21" width="2" height="1" fill="#080808"/>
<rect x="22" y="21" width="1" height="1" fill="#08081e"/>
<rect x="25" y="21" width="1" height="1" fill="#ffffff"/>
<rect x="23" y="21" width="1" height="2" fill="#000000"/>
<rect x="24" y="21" width="1" height="2" fill="#888886"/>
<rect x="19" y="22" width="2" height="1" fill="#000000"/>
<rect x="21" y="22" width="2" height="1" fill="#080808"/>
<rect x="25" y="22" width="1" height="1" fill="#f8f8f8"/>
<rect x="21" y="23" width="1" height="1" fill="#181819"/>
<rect x="22" y="23" width="1" height="1" fill="#081a1b"/>
<rect x="23" y="23" width="1" height="1" fill="#080808"/>
<rect x="24" y="23" width="1" height="1" fill="#989899"/>
<rect x="25" y="23" width="1" height="1" fill="#ffffff"/>
<rect x="19" y="24" width="1" height="1" fill="#787879"/>
<rect x="20" y="24" width="1" height="1" fill="#989899"/>
<rect x="21" y="24" width="1" height="1" fill="#484848"/>
<rect x="22" y="24" width="1" height="1" fill="#282829"/>
<rect x="23" y="24" width="1" height="1" fill="#180808"/>
<rect x="24" y="24" width="1" height="1" fill="#85869b"/>
<rect x="25" y="24" width="1" height="1" fill="#f8e8f8"/>
<rect x="18" y="25" width="1" height="1" fill="#989899"/>
<rect x="19" y="25" width="1" height="1" fill="#081a1b"/>
<rect x="20" y="25" width="1" height="1" fill="#484848"/>
<rect x="21" y="25" width="1" height="1" fill="#f8f8e8"/>
<rect x="22" y="25" width="1" height="1" fill="#787879"/>
<rect x="24" y="25" width="1" height="1" fill="#686968"/>
<rect x="23" y="25" width="1" height="2" fill="#08081e"/>
<rect x="18" y="26" width="1" height="1" fill="#787879"/>
<rect x="19" y="26" width="1" height="1" fill="#090947"/>
<rect x="20" y="26" width="1" height="1" fill="#273176"/>
<rect x="21" y="26" width="1" height="1" fill="#b8b8b8"/>
<rect x="22" y="26" width="1" height="1" fill="#31354d"/>
<rect x="24" y="26" width="1" height="1" fill="#64667c"/>
<rect x="25" y="26" width="1" height="1" fill="#85869b"/>
<rect x="17" y="27" width="1" height="1" fill="#56566b"/>
<rect x="18" y="27" width="1" height="1" fill="#273176"/>
<rect x="19" y="27" width="4" height="1" fill="#0b0caa"/>
<rect x="23" y="27" width="1" height="2" fill="#0b0bda"/>
<rect x="24" y="27" width="1" height="2" fill="#0b0d7a"/>
<rect x="17" y="28" width="1" height="1" fill="#0b0d7a"/>
<rect x="18" y="28" width="2" height="1" fill="#0b0caa"/>
<rect x="20" y="28" width="1" height="1" fill="#0b0d7a"/>
<rect x="21" y="28" width="1" height="1" fill="#31354d"/>
<rect x="22" y="28" width="1" height="1" fill="#242fb6"/>
<rect x="25" y="27" width="1" height="3" fill="#080808"/>
<rect x="16" y="28" width="1" height="2" fill="#babba1"/>
<rect x="17" y="29" width="1" height="1" fill="#08081e"/>
<rect x="18" y="29" width="1" height="1" fill="#090947"/>
<rect x="19" y="29" width="1" height="1" fill="#0b0caa"/>
<rect x="20" y="29" width="1" height="1" fill="#126d6a"/>
<rect x="22" y="29" width="1" height="1" fill="#a898ac"/>
<rect x="23" y="29" width="1" height="1" fill="#0b0d7a"/>
<rect x="24" y="29" width="1" height="1" fill="#090947"/>
<rect x="28" y="29" width="3" height="1" fill="#0b0d7a"/>
<rect x="31" y="29" width="1" height="1" fill="#080808"/>
<rect x="15" y="30" width="2" height="1" fill="#85869b"/>
<rect x="17" y="30" width="2" height="1" fill="#090947"/>
<rect x="20" y="30" width="1" height="1" fill="#273176"/>
<rect x="22" y="30" width="1" height="1" fill="#717fb5"/>
<rect x="25" y="30" width="1" height="1" fill="#08081e"/>
<rect x="28" y="30" width="1" height="1" fill="#0b0caa"/>
<rect x="29" y="30" width="1" height="1" fill="#0b0bda"/>
<rect x="30" y="30" width="1" height="1" fill="#0b0caa"/>
<rect x="31" y="30" width="1" height="1" fill="#0b0d7a"/>
<rect x="21" y="29" width="1" height="3" fill="#f0f0d3"/>
<rect x="23" y="30" width="2" height="2" fill="#090947"/>
<rect x="15" y="31" width="2" height="1" fill="#090947"/>
<rect x="17" y="31" width="1" height="1" fill="#2c3aed"/>
<rect x="18" y="31" width="1" height="1" fill="#0b0bda"/>
<rect x="26" y="31" width="1" height="1" fill="#0b0caa"/>
<rect x="27" y="31" width="1" height="1" fill="#0b0d7a"/>
<rect x="28" y="31" width="2" height="1" fill="#0b0bda"/>
<rect x="30" y="31" width="2" height="1" fill="#2c3aed"/>
<rect x="32" y="31" width="1" height="1" fill="#090947"/>
<rect x="33" y="31" width="1" height="1" fill="#08081e"/>
<rect x="34" y="31" width="1" height="1" fill="#a9968f"/>
<rect x="22" y="31" width="1" height="2" fill="#5461b1"/>
<rect x="25" y="31" width="1" height="2" fill="#2c3aed"/>
<rect x="15" y="32" width="1" height="1" fill="#08081e"/>
<rect x="16" y="32" width="1" height="1" fill="#0b0d7a"/>
<rect x="17" y="32" width="1" height="1" fill="#8e94c4"/>
<rect x="18" y="32" width="1" height="1" fill="#242fb6"/>
<rect x="23" y="32" width="2" height="1" fill="#08081e"/>
<rect x="26" y="32" width="1" height="1" fill="#0b0d7a"/>
<rect x="27" y="32" width="1" height="1" fill="#090947"/>
<rect x="28" y="32" width="1" height="1" fill="#273176"/>
<rect x="29" y="32" width="3" height="1" fill="#242fb6"/>
<rect x="32" y="32" width="1" height="1" fill="#0b0d7a"/>
<rect x="33" y="32" width="1" height="1" fill="#090947"/>
<rect x="34" y="32" width="1" height="1" fill="#aaaa90"/>
<rect x="35" y="32" width="1" height="1" fill="#baa79f"/>
<rect x="10" y="33" width="1" height="1" fill="#869a9d"/>
<rect x="13" y="33" width="2" height="1" fill="#090947"/>
<rect x="15" y="33" width="1" height="1" fill="#0b0d7a"/>
<rect x="16" y="33" width="1" height="1" fill="#242fb6"/>
<rect x="17" y="33" width="1" height="1" fill="#f8f8e8"/>
<rect x="18" y="33" width="1" height="1" fill="#d2d7ef"/>
<rect x="26" y="33" width="2" height="1" fill="#080808"/>
<rect x="29" y="33" width="1" height="1" fill="#e8e8e8"/>
<rect x="30" y="33" width="2" height="1" fill="#f0f0d3"/>
<rect x="33" y="33" width="1" height="1" fill="#0b0bda"/>
<rect x="34" y="33" width="1" height="1" fill="#090947"/>
<rect x="19" y="30" width="1" height="5" fill="#0b0d7a"/>
<rect x="20" y="31" width="1" height="4" fill="#181a4a"/>
<rect x="11" y="33" width="2" height="2" fill="#0b0d7a"/>
<rect x="24" y="33" width="1" height="2" fill="#717fb5"/>
<rect x="25" y="33" width="1" height="2" fill="#0b0bda"/>
<rect x="32" y="33" width="1" height="2" fill="#3b479a"/>
<rect x="35" y="33" width="1" height="2" fill="#08081e"/>
<rect x="8" y="34" width="1" height="1" fill="#baa79f"/>
<rect x="9" y="34" width="1" height="1" fill="#717fb5"/>
<rect x="10" y="34" width="1" height="1" fill="#3b479a"/>
<rect x="13" y="34" width="1" height="1" fill="#090947"/>
<rect x="14" y="34" width="1" height="1" fill="#0b0d7a"/>
<rect x="15" y="34" width="1" height="1" fill="#0b0caa"/>
<rect x="16" y="34" width="1" height="1" fill="#273176"/>
<rect x="17" y="34" width="1" height="1" fill="#e8e8e8"/>
<rect x="18" y="34" width="1" height="1" fill="#b8a8bb"/>
<rect x="26" y="34" width="1" height="1" fill="#19081d"/>
<rect x="27" y="34" width="1" height="1" fill="#180808"/>
<rect x="33" y="34" width="1" height="1" fill="#242fb6"/>
<rect x="34" y="34" width="1" height="1" fill="#0b0caa"/>
<rect x="8" y="35" width="1" height="1" fill="#888886"/>
<rect x="9" y="35" width="1" height="1" fill="#0b0caa"/>
<rect x="10" y="35" width="1" height="1" fill="#0b0d7a"/>
<rect x="11" y="35" width="1" height="1" fill="#f8f8e8"/>
<rect x="12" y="35" width="1" height="1" fill="#f8e8e8"/>
<rect x="13" y="35" width="1" height="1" fill="#f0f0d3"/>
<rect x="14" y="35" width="1" height="1" fill="#a6a7be"/>
<rect x="15" y="35" width="2" height="1" fill="#0b0d7a"/>
<rect x="17" y="35" width="1" height="1" fill="#ebd8d2"/>
<rect x="18" y="35" width="1" height="1" fill="#94a6e9"/>
<rect x="19" y="35" width="2" height="1" fill="#090947"/>
<rect x="24" y="35" width="1" height="1" fill="#66797f"/>
<rect x="26" y="35" width="1" height="1" fill="#95a9ac"/>
<rect x="34" y="35" width="1" height="1" fill="#0b0bda"/>
<rect x="35" y="35" width="1" height="1" fill="#0b0d7a"/>
<rect x="7" y="36" width="1" height="1" fill="#85869b"/>
<rect x="8" y="36" width="1" height="1" fill="#3b479a"/>
<rect x="9" y="36" width="2" height="1" fill="#0b0d7a"/>
<rect x="11" y="36" width="1" height="1" fill="#ebd8d2"/>
<rect x="13" y="36" width="1" height="1" fill="#ebd8d2"/>
<rect x="14" y="36" width="1" height="1" fill="#94a6e9"/>
<rect x="15" y="36" width="1" height="1" fill="#0b0d7a"/>
<rect x="16" y="36" width="1" height="1" fill="#181a4a"/>
<rect x="17" y="36" width="1" height="1" fill="#a6a7be"/>
<rect x="18" y="36" width="1" height="1" fill="#6574e3"/>
<rect x="19" y="36" width="2" height="1" fill="#08081e"/>
<rect x="24" y="36" width="1" height="1" fill="#717fb5"/>
<rect x="34" y="36" width="1" height="1" fill="#0b0caa"/>
<rect x="35" y="36" width="1" height="2" fill="#08081e"/>
<rect x="6" y="37" width="1" height="1" fill="#989899"/>
<rect x="7" y="37" width="2" height="1" fill="#0b0d7a"/>
<rect x="20" y="37" width="1" height="1" fill="#090947"/>
<rect x="24" y="37" width="1" height="1" fill="#85869b"/>
<rect x="25" y="35" width="1" height="4" fill="#0b0caa"/>
<rect x="17" y="37" width="1" height="2" fill="#0b0caa"/>
<rect x="18" y="37" width="1" height="2" fill="#0b0d7a"/>
<rect x="19" y="37" width="1" height="2" fill="#080808"/>
<rect x="8" y="38" width="1" height="1" fill="#0b0caa"/>
<rect x="20" y="38" width="1" height="1" fill="#181a4a"/>
<rect x="24" y="38" width="1" height="1" fill="#717fb5"/>
<rect x="26" y="38" width="1" height="1" fill="#94a6e9"/>
<rect x="33" y="38" width="1" height="1" fill="#babba1"/>
<rect x="36" y="36" width="1" height="4" fill="#989899"/>
<rect x="34" y="37" width="1" height="3" fill="#0b0d7a"/>
<rect x="7" y="38" width="1" height="2" fill="#0b0d7a"/>
<rect x="35" y="38" width="1" height="2" fill="#090947"/>
<rect x="8" y="39" width="1" height="1" fill="#273176"/>
<rect x="17" y="39" width="1" height="1" fill="#0b0bda"/>
<rect x="18" y="39" width="1" height="1" fill="#404bcc"/>
<rect x="19" y="39" width="1" height="1" fill="#546c69"/>
<rect x="20" y="39" width="1" height="1" fill="#888886"/>
<rect x="24" y="39" width="1" height="1" fill="#85869b"/>
<rect x="25" y="39" width="1" height="1" fill="#0b0d7a"/>
<rect x="26" y="39" width="1" height="1" fill="#717fb5"/>
<rect x="32" y="39" width="2" height="1" fill="#babba1"/>
<rect x="7" y="40" width="2" height="1" fill="#0b0d7a"/>
<rect x="20" y="40" width="1" height="1" fill="#baa79f"/>
<rect x="24" y="40" width="1" height="1" fill="#66797f"/>
<rect x="25" y="40" width="1" height="1" fill="#090947"/>
<rect x="26" y="40" width="1" height="1" fill="#3b479a"/>
<rect x="27" y="40" width="1" height="1" fill="#6574e3"/>
<rect x="32" y="40" width="2" height="1" fill="#5461b1"/>
<rect x="34" y="40" width="2" height="1" fill="#0b0d7a"/>
<rect x="36" y="40" width="1" height="1" fill="#a898ac"/>
<rect x="6" y="38" width="1" height="4" fill="#a898ac"/>
<rect x="17" y="40" width="1" height="2" fill="#0b0d7a"/>
<rect x="18" y="40" width="1" height="2" fill="#090947"/>
<rect x="7" y="41" width="1" height="1" fill="#0b0d7a"/>
<rect x="8" y="41" width="1" height="1" fill="#0b0caa"/>
<rect x="27" y="41" width="1" height="1" fill="#090947"/>
<rect x="28" y="41" width="1" height="1" fill="#6574e3"/>
<rect x="32" y="41" width="1" height="1" fill="#0b0d7a"/>
<rect x="33" y="41" width="1" height="1" fill="#090947"/>
<rect x="26" y="41" width="1" height="2" fill="#181a4a"/>
<rect x="6" y="42" width="1" height="1" fill="#989899"/>
<rect x="7" y="42" width="1" height="1" fill="#0b0caa"/>
<rect x="8" y="42" width="1" height="1" fill="#242fb6"/>
<rect x="9" y="42" width="1" height="1" fill="#8e94c4"/>
<rect x="10" y="42" width="1" height="1" fill="#94a6e9"/>
<rect x="15" y="42" width="1" height="1" fill="#717fb5"/>
<rect x="16" y="42" width="1" height="1" fill="#85869b"/>
<rect x="17" y="42" width="1" height="1" fill="#0b0caa"/>
<rect x="18" y="42" width="1" height="1" fill="#0b0d7a"/>
<rect x="27" y="42" width="1" height="1" fill="#08081e"/>
<rect x="28" y="42" width="1" height="1" fill="#2c3aed"/>
<rect x="29" y="42" width="1" height="1" fill="#6574e3"/>
<rect x="30" y="42" width="1" height="1" fill="#2c3aed"/>
<rect x="31" y="42" width="1" height="1" fill="#404bcc"/>
<rect x="32" y="42" width="1" height="1" fill="#090947"/>
<rect x="33" y="42" width="1" height="1" fill="#181a4a"/>
<rect x="6" y="43" width="1" height="1" fill="#a898ac"/>
<rect x="7" y="43" width="2" height="1" fill="#0b0caa"/>
<rect x="9" y="43" width="1" height="1" fill="#0b0bda"/>
<rect x="10" y="43" width="1" height="1" fill="#0b0caa"/>
<rect x="11" y="43" width="1" height="1" fill="#ebd8d2"/>
<rect x="14" y="43" width="1" height="1" fill="#a898ac"/>
<rect x="15" y="43" width="1" height="1" fill="#0b0bda"/>
<rect x="16" y="43" width="1" height="1" fill="#0b0caa"/>
<rect x="17" y="43" width="1" height="1" fill="#0b0d7a"/>
<rect x="18" y="43" width="1" height="1" fill="#273176"/>
<rect x="28" y="43" width="4" height="1" fill="#0b0d7a"/>
<rect x="7" y="44" width="1" height="1" fill="#8e94c4"/>
<rect x="8" y="44" width="1" height="1" fill="#869a9d"/>
<rect x="9" y="44" width="2" height="1" fill="#0b0caa"/>
<rect x="11" y="44" width="2" height="1" fill="#a6a7be"/>
<rect x="14" y="44" width="1" height="1" fill="#717fb5"/>
<rect x="15" y="44" width="1" height="1" fill="#0b0caa"/>
<rect x="16" y="44" width="1" height="1" fill="#0b0d7a"/>
<rect x="17" y="44" width="1" height="1" fill="#31354d"/>
<rect x="18" y="44" width="1" height="1" fill="#56566b"/>
<rect x="28" y="44" width="1" height="1" fill="#090947"/>
<rect x="29" y="44" width="2" height="1" fill="#08081e"/>
<rect x="31" y="44" width="1" height="1" fill="#090947"/>
<rect x="9" y="45" width="2" height="1" fill="#273176"/>
<rect x="11" y="45" width="4" height="1" fill="#0b0caa"/>
<rect x="15" y="45" width="1" height="1" fill="#090947"/>
<rect x="16" y="45" width="1" height="1" fill="#181a4a"/>
<rect x="9" y="46" width="2" height="1" fill="#31354d"/>
<rect x="11" y="46" width="1" height="1" fill="#19081d"/>
<rect x="12" y="46" width="2" height="1" fill="#181a4a"/>
<rect x="14" y="46" width="1" height="1" fill="#08081e"/>
<rect x="15" y="46" width="1" height="1" fill="#080808"/>
<rect x="16" y="46" width="1" height="1" fill="#31354d"/>
<rect x="11" y="47" width="1" height="1" fill="#31354d"/>
<rect x="12" y="47" width="2" height="1" fill="#383936"/>
<rect x="14" y="47" width="1" height="1" fill="#56566b"/>
</svg>
