<svg xmlns="http://www.w3.org/2000/svg" width="48" height="48" viewBox="0 0 48 48" shape-rendering="crispEdges">
<rect x="3" y="9" width="1" height="1" fill="#7a6867"/>
<rect x="4" y="9" width="4" height="1" fill="#787879"/>
<rect x="8" y="9" width="1" height="1" fill="#888886"/>
<rect x="9" y="9" width="1" height="1" fill="#787879"/>
<rect x="10" y="9" width="1" height="1" fill="#85869b"/>
<rect x="11" y="9" width="1" height="1" fill="#888886"/>
<rect x="12" y="9" width="1" height="1" fill="#787879"/>
<rect x="13" y="9" width="3" height="1" fill="#888886"/>
<rect x="16" y="9" width="6" height="1" fill="#787879"/>
<rect x="22" y="9" width="1" height="1" fill="#85869b"/>
<rect x="23" y="9" width="9" height="1" fill="#787879"/>
<rect x="32" y="9" width="1" height="1" fill="#888886"/>
<rect x="33" y="9" width="3" height="1" fill="#787879"/>
<rect x="36" y="9" width="7" height="1" fill="#888886"/>
<rect x="43" y="9" width="1" height="1" fill="#85869b"/>
<rect x="44" y="9" width="1" height="1" fill="#787879"/>
<rect x="45" y="9" width="1" height="1" fill="#383936"/>
<rect x="4" y="10" width="1" height="1" fill="#5461b1"/>
<rect x="5" y="10" width="1" height="1" fill="#242fb6"/>
<rect x="6" y="10" width="2" height="1" fill="#3b479a"/>
<rect x="8" y="10" width="2" height="1" fill="#404bcc"/>
<rect x="10" y="10" width="1" height="1" fill="#3b479a"/>
<rect x="11" y="10" width="4" height="1" fill="#242fb6"/>
<rect x="15" y="10" width="2" height="1" fill="#3b479a"/>
<rect x="17" y="10" width="12" height="1" fill="#242fb6"/>
<rect x="29" y="10" width="1" height="1" fill="#3b479a"/>
<rect x="30" y="10" width="1" height="1" fill="#404bcc"/>
<rect x="31" y="10" width="1" height="1" fill="#3b479a"/>
<rect x="32" y="10" width="1" height="1" fill="#404bcc"/>
<rect x="33" y="10" width="8" height="1" fill="#3b479a"/>
<rect x="41" y="10" width="1" height="1" fill="#5461b1"/>
<rect x="42" y="10" width="2" height="1" fill="#3b479a"/>
<rect x="44" y="10" width="1" height="1" fill="#64667c"/>
<rect x="45" y="10" width="1" height="1" fill="#080808"/>
<rect x="5" y="11" width="39" height="1" fill="#0b0bda"/>
<rect x="44" y="11" width="1" height="1" fill="#0b0caa"/>
<rect x="5" y="12" width="2" height="1" fill="#0b0bda"/>
<rect x="7" y="12" width="1" height="1" fill="#0b0caa"/>
<rect x="8" y="12" width="1" height="1" fill="#181a4a"/>
<rect x="9" y="12" width="1" height="1" fill="#080808"/>
<rect x="10" y="12" width="1" height="1" fill="#404bcc"/>
<rect x="11" y="12" width="1" height="1" fill="#242fb6"/>
<rect x="12" y="12" width="1" height="1" fill="#0b0caa"/>
<rect x="15" y="12" width="2" height="1" fill="#080808"/>
<rect x="18" y="12" width="1" height="1" fill="#19081d"/>
<rect x="19" y="12" width="2" height="1" fill="#080808"/>
<rect x="21" y="12" width="1" height="1" fill="#19081d"/>
<rect x="22" y="12" width="1" height="1" fill="#08081e"/>
<rect x="23" y="12" width="1" height="1" fill="#181a4a"/>
<rect x="25" y="12" width="1" height="1" fill="#0b0bda"/>
<rect x="28" y="12" width="2" height="1" fill="#08081e"/>
<rect x="30" y="12" width="1" height="1" fill="#090947"/>
<rect x="31" y="12" width="2" height="1" fill="#0b0d7a"/>
<rect x="33" y="12" width="2" height="1" fill="#19081d"/>
<rect x="35" y="12" width="1" height="1" fill="#090947"/>
<rect x="36" y="12" width="2" height="1" fill="#0b0caa"/>
<rect x="38" y="12" width="1" height="1" fill="#404bcc"/>
<rect x="39" y="12" width="2" height="1" fill="#19081d"/>
<rect x="41" y="12" width="1" height="1" fill="#0b0d7a"/>
<rect x="42" y="12" width="1" height="1" fill="#0b0bda"/>
<rect x="43" y="12" width="1" height="1" fill="#08081e"/>
<rect x="44" y="12" width="1" height="1" fill="#0b0d7a"/>
<rect x="3" y="10" width="1" height="4" fill="#787879"/>
<rect x="4" y="11" width="1" height="3" fill="#3b479a"/>
<rect x="13" y="12" width="1" height="2" fill="#0b0d7a"/>
<rect x="14" y="12" width="1" height="2" fill="#6574e3"/>
<rect x="17" y="12" width="1" height="2" fill="#08081e"/>
<rect x="24" y="12" width="1" height="2" fill="#000000"/>
<rect x="26" y="12" width="1" height="2" fill="#090947"/>
<rect x="27" y="12" width="1" height="2" fill="#0b0d7a"/>
<rect x="5" y="13" width="1" height="1" fill="#0b0bda"/>
<rect x="6" y="13" width="1" height="1" fill="#0b0caa"/>
<rect x="7" y="13" width="1" height="1" fill="#000000"/>
<rect x="8" y="13" width="2" height="1" fill="#080808"/>
<rect x="10" y="13" width="1" height="1" fill="#3b479a"/>
<rect x="11" y="13" width="1" height="1" fill="#273176"/>
<rect x="12" y="13" width="1" height="1" fill="#090947"/>
<rect x="15" y="13" width="2" height="1" fill="#000000"/>
<rect x="18" y="13" width="2" height="1" fill="#000000"/>
<rect x="20" y="13" width="1" height="1" fill="#080808"/>
<rect x="21" y="13" width="1" height="1" fill="#08081e"/>
<rect x="22" y="13" width="1" height="1" fill="#080808"/>
<rect x="23" y="13" width="1" height="1" fill="#08081e"/>
<rect x="25" y="13" width="1" height="1" fill="#0b0caa"/>
<rect x="28" y="13" width="1" height="1" fill="#000000"/>
<rect x="29" y="13" width="2" height="1" fill="#080808"/>
<rect x="31" y="13" width="1" height="1" fill="#242fb6"/>
<rect x="32" y="13" width="1" height="1" fill="#090947"/>
<rect x="33" y="13" width="2" height="1" fill="#080808"/>
<rect x="35" y="13" width="1" height="1" fill="#08081e"/>
<rect x="36" y="13" width="1" height="1" fill="#0b0d7a"/>
<rect x="37" y="13" width="1" height="1" fill="#0b0caa"/>
<rect x="38" y="13" width="1" height="1" fill="#6574e3"/>
<rect x="39" y="13" width="1" height="1" fill="#000000"/>
<rect x="40" y="13" width="1" height="1" fill="#080808"/>
<rect x="41" y="13" width="1" height="1" fill="#090947"/>
<rect x="42" y="13" width="1" height="1" fill="#404bcc"/>
<rect x="43" y="13" width="1" height="1" fill="#000000"/>
<rect x="44" y="13" width="1" height="1" fill="#162b2a"/>
<rect x="4" y="14" width="1" height="1" fill="#64667c"/>
<rect x="5" y="14" width="1" height="1" fill="#181a4a"/>
<rect x="6" y="14" width="1" height="1" fill="#56566b"/>
<rect x="7" y="14" width="1" height="1" fill="#081a1b"/>
<rect x="8" y="14" width="2" height="1" fill="#31354d"/>
<rect x="10" y="14" width="6" height="1" fill="#3b479a"/>
<rect x="16" y="14" width="1" height="1" fill="#464d5a"/>
<rect x="17" y="14" width="1" height="1" fill="#273176"/>
<rect x="18" y="14" width="1" height="1" fill="#31354d"/>
<rect x="19" y="14" width="1" height="1" fill="#273176"/>
<rect x="20" y="14" width="1" height="1" fill="#464d5a"/>
<rect x="21" y="14" width="1" height="1" fill="#273176"/>
<rect x="22" y="14" width="2" height="1" fill="#31354d"/>
<rect x="24" y="14" width="1" height="1" fill="#162b2a"/>
<rect x="25" y="14" width="2" height="1" fill="#181a4a"/>
<rect x="27" y="14" width="1" height="1" fill="#273176"/>
<rect x="28" y="14" width="1" height="1" fill="#282829"/>
<rect x="29" y="14" width="1" height="1" fill="#181819"/>
<rect x="30" y="14" width="1" height="1" fill="#181a4a"/>
<rect x="31" y="14" width="2" height="1" fill="#273176"/>
<rect x="33" y="14" width="1" height="1" fill="#181a4a"/>
<rect x="34" y="14" width="2" height="1" fill="#273176"/>
<rect x="36" y="14" width="3" height="1" fill="#181a4a"/>
<rect x="39" y="14" width="1" height="1" fill="#273176"/>
<rect x="40" y="14" width="2" height="1" fill="#31354d"/>
<rect x="42" y="14" width="1" height="1" fill="#273176"/>
<rect x="43" y="14" width="1" height="1" fill="#31354d"/>
<rect x="44" y="14" width="1" height="1" fill="#585858"/>
<rect x="4" y="15" width="1" height="1" fill="#585858"/>
<rect x="5" y="15" width="1" height="1" fill="#282829"/>
<rect x="6" y="15" width="3" height="1" fill="#181819"/>
<rect x="9" y="15" width="1" height="1" fill="#282829"/>
<rect x="10" y="15" width="1" height="1" fill="#31354d"/>
<rect x="11" y="15" width="4" height="1" fill="#383936"/>
<rect x="15" y="15" width="1" height="1" fill="#282829"/>
<rect x="16" y="15" width="1" height="1" fill="#383936"/>
<rect x="17" y="15" width="1" height="1" fill="#162b2a"/>
<rect x="18" y="15" width="1" height="1" fill="#383936"/>
<rect x="19" y="15" width="2" height="1" fill="#282829"/>
<rect x="21" y="15" width="5" height="1" fill="#181819"/>
<rect x="26" y="15" width="1" height="1" fill="#162b2a"/>
<rect x="27" y="15" width="3" height="1" fill="#282829"/>
<rect x="30" y="15" width="1" height="1" fill="#383936"/>
<rect x="31" y="15" width="1" height="1" fill="#282829"/>
<rect x="32" y="15" width="5" height="1" fill="#181819"/>
<rect x="37" y="15" width="1" height="1" fill="#081a1b"/>
<rect x="38" y="15" width="3" height="1" fill="#181819"/>
<rect x="41" y="15" width="1" height="1" fill="#282829"/>
<rect x="42" y="15" width="2" height="1" fill="#383936"/>
<rect x="44" y="15" width="1" height="1" fill="#484848"/>
<rect x="4" y="16" width="1" height="1" fill="#e8e8e8"/>
<rect x="5" y="16" width="12" height="1" fill="#ffffff"/>
<rect x="17" y="16" width="1" height="1" fill="#181819"/>
<rect x="19" y="16" width="10" height="1" fill="#ffffff"/>
<rect x="29" y="16" width="1" height="1" fill="#383936"/>
<rect x="30" y="16" width="1" height="1" fill="#85869b"/>
<rect x="31" y="16" width="11" height="1" fill="#ffffff"/>
<rect x="43" y="16" width="1" height="1" fill="#e8e8f8"/>
<rect x="18" y="16" width="1" height="2" fill="#b8b8b8"/>
<rect x="44" y="16" width="1" height="2" fill="#e8e8e8"/>
<rect x="4" y="17" width="1" height="1" fill="#f8e8f8"/>
<rect x="6" y="17" width="1" height="1" fill="#e7f8f8"/>
<rect x="8" y="17" width="1" height="1" fill="#242fb6"/>
<rect x="9" y="17" width="1" height="1" fill="#3b479a"/>
<rect x="12" y="17" width="1" height="1" fill="#080808"/>
<rect x="13" y="17" width="1" height="1" fill="#282829"/>
<rect x="14" y="17" width="2" height="1" fill="#383936"/>
<rect x="16" y="17" width="1" height="1" fill="#c2c2c3"/>
<rect x="17" y="17" width="1" height="1" fill="#282829"/>
<rect x="19" y="17" width="1" height="1" fill="#ffffff"/>
<rect x="20" y="17" width="1" height="1" fill="#f8f8f8"/>
<rect x="21" y="17" width="1" height="1" fill="#d8c8db"/>
<rect x="22" y="17" width="1" height="1" fill="#3b479a"/>
<rect x="23" y="17" width="1" height="1" fill="#64667c"/>
<rect x="24" y="17" width="1" height="1" fill="#66797f"/>
<rect x="25" y="17" width="2" height="1" fill="#787879"/>
<rect x="27" y="17" width="1" height="1" fill="#686968"/>
<rect x="28" y="17" width="1" height="1" fill="#d8d8d8"/>
<rect x="31" y="17" width="1" height="1" fill="#ffffff"/>
<rect x="32" y="17" width="1" height="1" fill="#f8f8f8"/>
<rect x="33" y="17" width="1" height="1" fill="#6574e3"/>
<rect x="34" y="17" width="1" height="1" fill="#717fb5"/>
<rect x="35" y="17" width="1" height="1" fill="#64667c"/>
<rect x="36" y="17" width="1" height="1" fill="#e8e8e8"/>
<rect x="37" y="17" width="1" height="1" fill="#f8f8e8"/>
<rect x="38" y="17" width="1" height="1" fill="#546c69"/>
<rect x="39" y="17" width="2" height="1" fill="#585858"/>
<rect x="43" y="17" width="1" height="1" fill="#d8d8d8"/>
<rect x="5" y="17" width="1" height="2" fill="#f8f8f8"/>
<rect x="7" y="17" width="1" height="2" fill="#0b0caa"/>
<rect x="10" y="17" width="2" height="2" fill="#f8f8f8"/>
<rect x="30" y="17" width="1" height="2" fill="#787879"/>
<rect x="4" y="18" width="1" height="1" fill="#e8e8f8"/>
<rect x="6" y="18" width="1" height="1" fill="#e8e8f8"/>
<rect x="8" y="18" width="1" height="1" fill="#0b0d7a"/>
<rect x="9" y="18" width="1" height="1" fill="#181a4a"/>
<rect x="12" y="18" width="1" height="1" fill="#000000"/>
<rect x="13" y="18" width="1" height="1" fill="#080808"/>
<rect x="14" y="18" width="1" height="1" fill="#181819"/>
<rect x="15" y="18" width="1" height="1" fill="#080808"/>
<rect x="16" y="18" width="1" height="1" fill="#98889b"/>
<rect x="17" y="18" width="1" height="1" fill="#081a08"/>
<rect x="18" y="18" width="1" height="1" fill="#a8a9a8"/>
<rect x="21" y="18" width="1" height="1" fill="#c8b8c9"/>
<rect x="22" y="18" width="2" height="1" fill="#0b0d7a"/>
<rect x="24" y="18" width="1" height="1" fill="#181819"/>
<rect x="25" y="18" width="1" height="1" fill="#081a1b"/>
<rect x="26" y="18" width="1" height="1" fill="#180808"/>
<rect x="27" y="18" width="1" height="1" fill="#282829"/>
<rect x="28" y="18" width="1" height="1" fill="#ffffff"/>
<rect x="31" y="18" width="1" height="1" fill="#f8f8f8"/>
<rect x="32" y="18" width="1" height="1" fill="#e8e8f8"/>
<rect x="34" y="18" width="1" height="1" fill="#282829"/>
<rect x="35" y="18" width="1" height="1" fill="#180808"/>
<rect x="36" y="18" width="1" height="1" fill="#c8c8c8"/>
<rect x="37" y="18" width="1" height="1" fill="#e7f8f8"/>
<rect x="38" y="18" width="1" height="1" fill="#180808"/>
<rect x="39" y="18" width="1" height="1" fill="#080808"/>
<rect x="40" y="18" width="1" height="1" fill="#000000"/>
<rect x="43" y="18" width="2" height="1" fill="#d8d8d8"/>
<rect x="42" y="16" width="1" height="4" fill="#f8f8f8"/>
<rect x="33" y="18" width="1" height="2" fill="#2c3aed"/>
<rect x="4" y="19" width="1" height="1" fill="#f8e8f8"/>
<rect x="7" y="19" width="1" height="1" fill="#d6e8ef"/>
<rect x="8" y="19" width="1" height="1" fill="#e7f8f8"/>
<rect x="9" y="19" width="3" height="1" fill="#f8f8f8"/>
<rect x="12" y="19" width="1" height="1" fill="#c2c2c3"/>
<rect x="13" y="19" width="1" height="1" fill="#c4c4c5"/>
<rect x="14" y="19" width="1" height="1" fill="#b8b8b8"/>
<rect x="15" y="19" width="1" height="1" fill="#c2c2c3"/>
<rect x="18" y="19" width="1" height="1" fill="#b8b8b8"/>
<rect x="21" y="19" width="1" height="1" fill="#d2d7ef"/>
<rect x="22" y="19" width="2" height="1" fill="#6574e3"/>
<rect x="24" y="19" width="1" height="1" fill="#464d5a"/>
<rect x="25" y="19" width="1" height="1" fill="#95a9ac"/>
<rect x="31" y="19" width="1" height="1" fill="#e8f8e8"/>
<rect x="34" y="19" width="1" height="1" fill="#869a9d"/>
<rect x="35" y="19" width="1" height="1" fill="#98a994"/>
<rect x="36" y="19" width="1" height="1" fill="#e8e8f8"/>
<rect x="37" y="19" width="1" height="1" fill="#e8f8e8"/>
<rect x="38" y="19" width="1" height="1" fill="#a8a9a8"/>
<rect x="39" y="19" width="2" height="1" fill="#d8d8d8"/>
<rect x="43" y="19" width="2" height="1" fill="#ffffff"/>
<rect x="29" y="17" width="1" height="4" fill="#484848"/>
<rect x="41" y="17" width="1" height="4" fill="#ffffff"/>
<rect x="5" y="19" width="2" height="2" fill="#f8f8f8"/>
<rect x="16" y="19" width="1" height="2" fill="#f8f8f8"/>
<rect x="17" y="19" width="1" height="2" fill="#181819"/>
<rect x="26" y="19" width="1" height="2" fill="#a8a9a8"/>
<rect x="27" y="19" width="2" height="2" fill="#ffffff"/>
<rect x="32" y="19" width="1" height="2" fill="#f8e8f8"/>
<rect x="4" y="20" width="1" height="1" fill="#e8e8f8"/>
<rect x="7" y="20" width="1" height="1" fill="#c5dad9"/>
<rect x="8" y="20" width="1" height="1" fill="#c7d9c8"/>
<rect x="9" y="20" width="1" height="1" fill="#f8f8e8"/>
<rect x="11" y="20" width="2" height="1" fill="#d8d8d8"/>
<rect x="13" y="20" width="1" height="1" fill="#b8b8b8"/>
<rect x="14" y="20" width="1" height="1" fill="#a8a9a8"/>
<rect x="15" y="20" width="1" height="1" fill="#f8e8f8"/>
<rect x="21" y="20" width="1" height="1" fill="#e8e8f8"/>
<rect x="22" y="20" width="1" height="1" fill="#b0bde7"/>
<rect x="23" y="20" width="1" height="1" fill="#d6e8ef"/>
<rect x="24" y="20" width="1" height="1" fill="#5461b1"/>
<rect x="25" y="20" width="1" height="1" fill="#e8e8f8"/>
<rect x="31" y="20" width="1" height="1" fill="#f8f8e8"/>
<rect x="33" y="20" width="1" height="1" fill="#404bcc"/>
<rect x="34" y="20" width="1" height="1" fill="#b5cdb4"/>
<rect x="35" y="20" width="1" height="1" fill="#f0f0d3"/>
<rect x="36" y="20" width="1" height="1" fill="#d8e8d5"/>
<rect x="38" y="20" width="1" height="1" fill="#686968"/>
<rect x="40" y="20" width="1" height="1" fill="#d8d8d8"/>
<rect x="42" y="20" width="2" height="1" fill="#f8f8f8"/>
<rect x="44" y="20" width="1" height="1" fill="#ffffff"/>
<rect x="19" y="18" width="2" height="4" fill="#ffffff"/>
<rect x="10" y="20" width="1" height="2" fill="#f8f8f8"/>
<rect x="18" y="20" width="1" height="2" fill="#a8a9a8"/>
<rect x="39" y="20" width="1" height="2" fill="#e8e8e8"/>
<rect x="4" y="21" width="1" height="1" fill="#e8f8e8"/>
<rect x="5" y="21" width="2" height="1" fill="#ffffff"/>
<rect x="7" y="21" width="1" height="1" fill="#126d6a"/>
<rect x="8" y="21" width="1" height="1" fill="#455b41"/>
<rect x="9" y="21" width="1" height="1" fill="#181908"/>
<rect x="11" y="21" width="1" height="1" fill="#f8e8f8"/>
<rect x="12" y="21" width="3" height="1" fill="#f8f8f8"/>
<rect x="15" y="21" width="1" height="1" fill="#ffffff"/>
<rect x="16" y="21" width="1" height="1" fill="#f8e8f8"/>
<rect x="17" y="21" width="1" height="1" fill="#181908"/>
<rect x="21" y="21" width="1" height="1" fill="#f8f8f8"/>
<rect x="22" y="21" width="1" height="1" fill="#e8f8e8"/>
<rect x="23" y="21" width="1" height="1" fill="#f8f8e8"/>
<rect x="24" y="21" width="1" height="1" fill="#080808"/>
<rect x="25" y="21" width="1" height="1" fill="#08081e"/>
<rect x="26" y="21" width="1" height="1" fill="#686968"/>
<rect x="31" y="21" width="2" height="1" fill="#f8f8f8"/>
<rect x="33" y="21" width="1" height="1" fill="#e8f8e8"/>
<rect x="34" y="21" width="1" height="1" fill="#a4a46b"/>
<rect x="35" y="21" width="1" height="1" fill="#2f3012"/>
<rect x="36" y="21" width="1" height="1" fill="#c7d9c8"/>
<rect x="38" y="21" width="1" height="1" fill="#594745"/>
<rect x="40" y="21" width="3" height="1" fill="#f8f8f8"/>
<rect x="43" y="21" width="2" height="1" fill="#ffffff"/>
<rect x="37" y="20" width="1" height="3" fill="#f8f8f8"/>
<rect x="27" y="21" width="1" height="2" fill="#ffffff"/>
<rect x="28" y="21" width="1" height="2" fill="#f8f8f8"/>
<rect x="5" y="22" width="1" height="1" fill="#ffffff"/>
<rect x="6" y="22" width="1" height="1" fill="#f8f8f8"/>
<rect x="7" y="22" width="3" height="1" fill="#181908"/>
<rect x="10" y="22" width="1" height="1" fill="#d9c8c8"/>
<rect x="11" y="22" width="1" height="1" fill="#e8e8e8"/>
<rect x="12" y="22" width="4" height="1" fill="#f8f8f8"/>
<rect x="16" y="22" width="1" height="1" fill="#e8e8e8"/>
<rect x="17" y="22" width="1" height="1" fill="#180808"/>
<rect x="18" y="22" width="1" height="1" fill="#989899"/>
<rect x="21" y="22" width="1" height="1" fill="#e7f8f8"/>
<rect x="22" y="22" width="1" height="1" fill="#d8e8d5"/>
<rect x="23" y="22" width="1" height="1" fill="#c9c8b7"/>
<rect x="24" y="22" width="1" height="1" fill="#081a1b"/>
<rect x="25" y="22" width="1" height="1" fill="#181819"/>
<rect x="26" y="22" width="1" height="1" fill="#585858"/>
<rect x="32" y="22" width="1" height="1" fill="#d8d9c5"/>
<rect x="33" y="22" width="1" height="1" fill="#849a84"/>
<rect x="34" y="22" width="1" height="1" fill="#33b555"/>
<rect x="35" y="22" width="1" height="1" fill="#0d4812"/>
<rect x="36" y="22" width="1" height="1" fill="#c2c2c3"/>
<rect x="38" y="22" width="1" height="1" fill="#686968"/>
<rect x="39" y="22" width="1" height="1" fill="#c8c8c8"/>
<rect x="40" y="22" width="1" height="1" fill="#ffffff"/>
<rect x="41" y="22" width="1" height="1" fill="#f8f8f8"/>
<rect x="42" y="22" width="1" height="1" fill="#e8f8e8"/>
<rect x="43" y="22" width="1" height="1" fill="#f8f8f8"/>
<rect x="3" y="14" width="1" height="10" fill="#686968"/>
<rect x="19" y="22" width="2" height="2" fill="#f8f8f8"/>
<rect x="31" y="22" width="1" height="2" fill="#f8f8f8"/>
<rect x="5" y="23" width="7" height="1" fill="#ffffff"/>
<rect x="12" y="23" width="5" height="1" fill="#f8f8f8"/>
<rect x="18" y="23" width="1" height="1" fill="#a8a9a8"/>
<rect x="21" y="23" width="1" height="1" fill="#686968"/>
<rect x="22" y="23" width="2" height="1" fill="#000000"/>
<rect x="24" y="23" width="1" height="1" fill="#849a84"/>
<rect x="25" y="23" width="1" height="1" fill="#455b41"/>
<rect x="26" y="23" width="1" height="1" fill="#484848"/>
<rect x="27" y="23" width="2" height="1" fill="#ffffff"/>
<rect x="32" y="23" width="1" height="1" fill="#888886"/>
<rect x="33" y="23" width="1" height="1" fill="#383936"/>
<rect x="34" y="23" width="1" height="1" fill="#455b41"/>
<rect x="35" y="23" width="1" height="1" fill="#383936"/>
<rect x="36" y="23" width="2" height="1" fill="#ffffff"/>
<rect x="38" y="23" width="1" height="1" fill="#f8f8f8"/>
<rect x="39" y="23" width="2" height="1" fill="#ffffff"/>
<rect x="41" y="23" width="2" height="1" fill="#f8f8f8"/>
<rect x="43" y="23" width="1" height="1" fill="#f8e8f8"/>
<rect x="29" y="21" width="1" height="4" fill="#383936"/>
<rect x="3" y="24" width="1" height="1" fill="#7a6867"/>
<rect x="6" y="24" width="11" height="1" fill="#f8f8f8"/>
<rect x="19" y="24" width="2" height="1" fill="#ffffff"/>
<rect x="21" y="24" width="1" height="1" fill="#e7f8f8"/>
<rect x="22" y="24" width="2" height="1" fill="#f8e8f8"/>
<rect x="24" y="24" width="1" height="1" fill="#f8f8f8"/>
<rect x="25" y="24" width="1" height="1" fill="#e8f8e8"/>
<rect x="26" y="24" width="1" height="1" fill="#f8e8f8"/>
<rect x="27" y="24" width="1" height="1" fill="#f8f8f8"/>
<rect x="32" y="24" width="1" height="1" fill="#f8f8f8"/>
<rect x="33" y="24" width="1" height="1" fill="#e8f8e8"/>
<rect x="34" y="24" width="9" height="1" fill="#f8f8f8"/>
<rect x="43" y="24" width="1" height="1" fill="#f8f8e8"/>
<rect x="30" y="19" width="1" height="7" fill="#686968"/>
<rect x="28" y="24" width="1" height="2" fill="#ffffff"/>
<rect x="31" y="24" width="1" height="2" fill="#ffffff"/>
<rect x="3" y="25" width="1" height="1" fill="#787879"/>
<rect x="7" y="25" width="2" height="1" fill="#f8e8f8"/>
<rect x="9" y="25" width="1" height="1" fill="#e8f8e8"/>
<rect x="10" y="25" width="3" height="1" fill="#f8f8f8"/>
<rect x="13" y="25" width="3" height="1" fill="#f8f8e8"/>
<rect x="16" y="25" width="1" height="1" fill="#f8f8f8"/>
<rect x="21" y="25" width="1" height="1" fill="#e8f8e8"/>
<rect x="22" y="25" width="4" height="1" fill="#f8f8f8"/>
<rect x="26" y="25" width="2" height="1" fill="#f8e8f8"/>
<rect x="32" y="25" width="6" height="1" fill="#f8f8f8"/>
<rect x="38" y="25" width="1" height="1" fill="#f8f8e8"/>
<rect x="39" y="25" width="1" height="1" fill="#f8e8f8"/>
<rect x="40" y="25" width="1" height="1" fill="#f8e8e8"/>
<rect x="41" y="25" width="3" height="1" fill="#f8f8f8"/>
<rect x="4" y="22" width="1" height="5" fill="#e8e8e8"/>
<rect x="9" y="26" width="1" height="1" fill="#31354d"/>
<rect x="10" y="26" width="2" height="1" fill="#e7f8f8"/>
<rect x="13" y="26" width="2" height="1" fill="#080808"/>
<rect x="15" y="26" width="2" height="1" fill="#000000"/>
<rect x="21" y="26" width="1" height="1" fill="#242fb6"/>
<rect x="22" y="26" width="1" height="1" fill="#0b0caa"/>
<rect x="23" y="26" width="1" height="1" fill="#0b0d7a"/>
<rect x="24" y="26" width="1" height="1" fill="#0b0caa"/>
<rect x="25" y="26" width="1" height="1" fill="#2c3aed"/>
<rect x="26" y="26" width="1" height="1" fill="#0b0bda"/>
<rect x="28" y="26" width="1" height="1" fill="#0b0d7a"/>
<rect x="31" y="26" width="1" height="1" fill="#e8e8f8"/>
<rect x="32" y="26" width="1" height="1" fill="#242fb6"/>
<rect x="33" y="26" width="1" height="1" fill="#2c3aed"/>
<rect x="34" y="26" width="2" height="1" fill="#3b479a"/>
<rect x="36" y="26" width="1" height="1" fill="#8e94c4"/>
<rect x="37" y="26" width="1" height="1" fill="#e7f8f8"/>
<rect x="38" y="26" width="3" height="1" fill="#000000"/>
<rect x="42" y="26" width="2" height="1" fill="#f8f8f8"/>
<rect x="7" y="26" width="1" height="2" fill="#0b0bda"/>
<rect x="8" y="26" width="1" height="2" fill="#0b0caa"/>
<rect x="12" y="26" width="1" height="2" fill="#181819"/>
<rect x="27" y="26" width="1" height="2" fill="#090947"/>
<rect x="30" y="26" width="1" height="2" fill="#585858"/>
<rect x="41" y="26" width="1" height="2" fill="#f8e8f8"/>
<rect x="9" y="27" width="1" height="1" fill="#585858"/>
<rect x="10" y="27" width="2" height="1" fill="#f8f8f8"/>
<rect x="13" y="27" width="1" height="1" fill="#19081d"/>
<rect x="14" y="27" width="1" height="1" fill="#181819"/>
<rect x="15" y="27" width="1" height="1" fill="#180808"/>
<rect x="16" y="27" width="1" height="1" fill="#181819"/>
<rect x="21" y="27" width="1" height="1" fill="#404bcc"/>
<rect x="23" y="27" width="2" height="1" fill="#56566b"/>
<rect x="25" y="27" width="1" height="1" fill="#3b479a"/>
<rect x="26" y="27" width="1" height="1" fill="#0b0d7a"/>
<rect x="28" y="27" width="1" height="1" fill="#31354d"/>
<rect x="32" y="27" width="1" height="1" fill="#2c3aed"/>
<rect x="33" y="27" width="1" height="1" fill="#404bcc"/>
<rect x="34" y="27" width="1" height="1" fill="#64667c"/>
<rect x="35" y="27" width="1" height="1" fill="#7f8263"/>
<rect x="36" y="27" width="1" height="1" fill="#888886"/>
<rect x="37" y="27" width="1" height="1" fill="#f8f8f8"/>
<rect x="38" y="27" width="1" height="1" fill="#181908"/>
<rect x="39" y="27" width="1" height="1" fill="#080808"/>
<rect x="40" y="27" width="1" height="1" fill="#000000"/>
<rect x="42" y="27" width="2" height="1" fill="#e7f8f8"/>
<rect x="44" y="22" width="1" height="7" fill="#ffffff"/>
<rect x="17" y="23" width="1" height="6" fill="#080808"/>
<rect x="5" y="24" width="1" height="5" fill="#ffffff"/>
<rect x="6" y="25" width="1" height="4" fill="#f8f8f8"/>
<rect x="29" y="25" width="1" height="4" fill="#484848"/>
<rect x="22" y="27" width="1" height="2" fill="#0b0bda"/>
<rect x="31" y="27" width="1" height="2" fill="#d2d7ef"/>
<rect x="7" y="28" width="1" height="1" fill="#f8e8f8"/>
<rect x="8" y="28" width="1" height="1" fill="#e7f8f8"/>
<rect x="9" y="28" width="1" height="1" fill="#aaaa90"/>
<rect x="10" y="28" width="1" height="1" fill="#f8f8f8"/>
<rect x="12" y="28" width="2" height="1" fill="#ffffff"/>
<rect x="14" y="28" width="3" height="1" fill="#f8f8f8"/>
<rect x="23" y="28" width="1" height="1" fill="#f8f8e8"/>
<rect x="24" y="28" width="1" height="1" fill="#eeefae"/>
<rect x="25" y="28" width="1" height="1" fill="#918d38"/>
<rect x="26" y="28" width="1" height="1" fill="#95a9ac"/>
<rect x="27" y="28" width="1" height="1" fill="#ffffff"/>
<rect x="28" y="28" width="1" height="1" fill="#f8f8f8"/>
<rect x="30" y="28" width="1" height="1" fill="#464d5a"/>
<rect x="32" y="28" width="1" height="1" fill="#404bcc"/>
<rect x="33" y="28" width="1" height="1" fill="#ffffff"/>
<rect x="34" y="28" width="1" height="1" fill="#7f8263"/>
<rect x="35" y="28" width="1" height="1" fill="#717050"/>
<rect x="36" y="28" width="1" height="1" fill="#787879"/>
<rect x="37" y="28" width="3" height="1" fill="#f8f8f8"/>
<rect x="40" y="28" width="1" height="1" fill="#c7d9c8"/>
<rect x="41" y="28" width="3" height="1" fill="#f8f8f8"/>
<rect x="18" y="24" width="1" height="6" fill="#989899"/>
<rect x="19" y="25" width="1" height="5" fill="#ffffff"/>
<rect x="20" y="25" width="1" height="5" fill="#f8f8f8"/>
<rect x="11" y="28" width="1" height="2" fill="#d8d8d8"/>
<rect x="21" y="28" width="1" height="2" fill="#242fb6"/>
<rect x="7" y="29" width="1" height="1" fill="#869a9d"/>
<rect x="8" y="29" width="1" height="1" fill="#98a994"/>
<rect x="9" y="29" width="1" height="1" fill="#6a5754"/>
<rect x="12" y="29" width="1" height="1" fill="#ffffff"/>
<rect x="13" y="29" width="4" height="1" fill="#f8f8f8"/>
<rect x="22" y="29" width="1" height="1" fill="#0b0caa"/>
<rect x="23" y="29" width="1" height="1" fill="#f0f0d3"/>
<rect x="24" y="29" width="1" height="1" fill="#c2c2c3"/>
<rect x="25" y="29" width="1" height="1" fill="#787879"/>
<rect x="26" y="29" width="1" height="1" fill="#31354d"/>
<rect x="27" y="29" width="1" height="1" fill="#d6e8ef"/>
<rect x="28" y="29" width="1" height="1" fill="#e8f8e8"/>
<rect x="30" y="29" width="1" height="1" fill="#455b41"/>
<rect x="31" y="29" width="1" height="1" fill="#e8d8eb"/>
<rect x="32" y="29" width="1" height="1" fill="#3b479a"/>
<rect x="33" y="29" width="1" height="1" fill="#b8b8b8"/>
<rect x="34" y="29" width="2" height="1" fill="#717050"/>
<rect x="36" y="29" width="1" height="1" fill="#888886"/>
<rect x="37" y="29" width="1" height="1" fill="#ffffff"/>
<rect x="38" y="29" width="1" height="1" fill="#e8f8e8"/>
<rect x="39" y="29" width="1" height="1" fill="#a8a9a8"/>
<rect x="40" y="29" width="1" height="1" fill="#686968"/>
<rect x="5" y="29" width="2" height="2" fill="#ffffff"/>
<rect x="10" y="29" width="1" height="2" fill="#ffffff"/>
<rect x="29" y="29" width="1" height="2" fill="#383936"/>
<rect x="41" y="29" width="4" height="2" fill="#ffffff"/>
<rect x="7" y="30" width="1" height="1" fill="#383936"/>
<rect x="8" y="30" width="1" height="1" fill="#484848"/>
<rect x="9" y="30" width="1" height="1" fill="#5a5b42"/>
<rect x="11" y="30" width="1" height="1" fill="#f8f8f8"/>
<rect x="12" y="30" width="1" height="1" fill="#f8e8f8"/>
<rect x="13" y="30" width="1" height="1" fill="#f8f8f8"/>
<rect x="14" y="30" width="1" height="1" fill="#e7f8f8"/>
<rect x="15" y="30" width="1" height="1" fill="#e8e8e8"/>
<rect x="16" y="30" width="1" height="1" fill="#f8f8e8"/>
<rect x="19" y="30" width="2" height="1" fill="#ffffff"/>
<rect x="21" y="30" width="1" height="1" fill="#273176"/>
<rect x="22" y="30" width="1" height="1" fill="#090947"/>
<rect x="23" y="30" width="1" height="1" fill="#080808"/>
<rect x="24" y="30" width="1" height="1" fill="#180808"/>
<rect x="25" y="30" width="1" height="1" fill="#080808"/>
<rect x="26" y="30" width="1" height="1" fill="#000000"/>
<rect x="27" y="30" width="1" height="1" fill="#d8d8d8"/>
<rect x="28" y="30" width="1" height="1" fill="#f8e8f8"/>
<rect x="30" y="30" width="1" height="1" fill="#585858"/>
<rect x="31" y="30" width="1" height="1" fill="#ffffff"/>
<rect x="32" y="30" width="1" height="1" fill="#383936"/>
<rect x="33" y="30" width="1" height="1" fill="#282829"/>
<rect x="34" y="30" width="2" height="1" fill="#383936"/>
<rect x="36" y="30" width="1" height="1" fill="#e8e8e8"/>
<rect x="37" y="30" width="1" height="1" fill="#f8f8f8"/>
<rect x="38" y="30" width="1" height="1" fill="#000000"/>
<rect x="39" y="30" width="1" height="1" fill="#080808"/>
<rect x="40" y="30" width="1" height="1" fill="#000000"/>
<rect x="4" y="27" width="1" height="5" fill="#d8d8d8"/>
<rect x="17" y="29" width="1" height="3" fill="#08081e"/>
<rect x="18" y="30" width="1" height="2" fill="#888886"/>
<rect x="5" y="31" width="2" height="1" fill="#f8f8f8"/>
<rect x="7" y="31" width="1" height="1" fill="#e8f8e8"/>
<rect x="8" y="31" width="2" height="1" fill="#f8f8f8"/>
<rect x="10" y="31" width="6" height="1" fill="#ffffff"/>
<rect x="16" y="31" width="1" height="1" fill="#f8f8f8"/>
<rect x="19" y="31" width="2" height="1" fill="#f8f8f8"/>
<rect x="21" y="31" width="1" height="1" fill="#e8f8e8"/>
<rect x="22" y="31" width="1" height="1" fill="#f8f8f8"/>
<rect x="23" y="31" width="1" height="1" fill="#f8e8f8"/>
<rect x="24" y="31" width="1" height="1" fill="#e8f8e8"/>
<rect x="25" y="31" width="1" height="1" fill="#f8f8f8"/>
<rect x="26" y="31" width="1" height="1" fill="#f8e8f8"/>
<rect x="27" y="31" width="1" height="1" fill="#e7f8f8"/>
<rect x="28" y="31" width="1" height="1" fill="#f8f8f8"/>
<rect x="29" y="31" width="2" height="1" fill="#585858"/>
<rect x="31" y="31" width="1" height="1" fill="#f8f8f8"/>
<rect x="32" y="31" width="1" height="1" fill="#e8f8e8"/>
<rect x="33" y="31" width="2" height="1" fill="#f8f8f8"/>
<rect x="35" y="31" width="5" height="1" fill="#ffffff"/>
<rect x="40" y="31" width="4" height="1" fill="#f8f8f8"/>
<rect x="3" y="26" width="1" height="7" fill="#686968"/>
<rect x="44" y="31" width="1" height="2" fill="#ffffff"/>
<rect x="6" y="32" width="3" height="1" fill="#f8f8f8"/>
<rect x="9" y="32" width="8" height="1" fill="#ffffff"/>
<rect x="29" y="32" width="1" height="1" fill="#383936"/>
<rect x="34" y="32" width="7" height="1" fill="#ffffff"/>
<rect x="41" y="32" width="3" height="1" fill="#f8f8f8"/>
<rect x="5" y="32" width="1" height="2" fill="#ffffff"/>
<rect x="19" y="32" width="9" height="2" fill="#f8f8f8"/>
<rect x="32" y="32" width="2" height="2" fill="#f8f8f8"/>
<rect x="3" y="33" width="1" height="1" fill="#787879"/>
<rect x="6" y="33" width="2" height="1" fill="#f8f8f8"/>
<rect x="8" y="33" width="2" height="1" fill="#ffffff"/>
<rect x="10" y="33" width="6" height="1" fill="#f8f8f8"/>
<rect x="16" y="33" width="1" height="1" fill="#ffffff"/>
<rect x="29" y="33" width="1" height="1" fill="#282829"/>
<rect x="34" y="33" width="4" height="1" fill="#ffffff"/>
<rect x="38" y="33" width="5" height="1" fill="#f8f8f8"/>
<rect x="43" y="33" width="2" height="1" fill="#ffffff"/>
<rect x="28" y="32" width="1" height="3" fill="#ffffff"/>
<rect x="30" y="32" width="1" height="3" fill="#484848"/>
<rect x="5" y="34" width="2" height="1" fill="#ffffff"/>
<rect x="7" y="34" width="3" height="1" fill="#b0bde7"/>
<rect x="11" y="34" width="1" height="1" fill="#e8e8e8"/>
<rect x="12" y="34" width="1" height="1" fill="#383936"/>
<rect x="13" y="34" width="1" height="1" fill="#484848"/>
<rect x="14" y="34" width="2" height="1" fill="#383936"/>
<rect x="16" y="34" width="1" height="1" fill="#989899"/>
<rect x="19" y="34" width="1" height="1" fill="#ffffff"/>
<rect x="20" y="34" width="1" height="1" fill="#f8f8f8"/>
<rect x="21" y="34" width="3" height="1" fill="#b0bde7"/>
<rect x="24" y="34" width="1" height="1" fill="#c2c2c3"/>
<rect x="25" y="34" width="1" height="1" fill="#85869b"/>
<rect x="26" y="34" width="1" height="1" fill="#869a9d"/>
<rect x="27" y="34" width="1" height="1" fill="#b8b8b8"/>
<rect x="29" y="34" width="1" height="1" fill="#383936"/>
<rect x="32" y="34" width="1" height="1" fill="#d8d8d8"/>
<rect x="33" y="34" width="2" height="1" fill="#c5c8db"/>
<rect x="35" y="34" width="1" height="1" fill="#c8c8c8"/>
<rect x="36" y="34" width="1" height="1" fill="#e8e8e8"/>
<rect x="37" y="34" width="1" height="1" fill="#ffffff"/>
<rect x="38" y="34" width="1" height="1" fill="#989899"/>
<rect x="39" y="34" width="1" height="1" fill="#787879"/>
<rect x="40" y="34" width="1" height="1" fill="#686968"/>
<rect x="4" y="32" width="1" height="4" fill="#e8e8e8"/>
<rect x="17" y="32" width="1" height="4" fill="#080808"/>
<rect x="31" y="32" width="1" height="4" fill="#ffffff"/>
<rect x="41" y="34" width="4" height="2" fill="#ffffff"/>
<rect x="5" y="35" width="1" height="1" fill="#f8f8f8"/>
<rect x="6" y="35" width="1" height="1" fill="#ffffff"/>
<rect x="9" y="35" width="1" height="1" fill="#0b0d7a"/>
<rect x="11" y="35" width="1" height="1" fill="#d8d8d8"/>
<rect x="12" y="35" width="1" height="1" fill="#080808"/>
<rect x="13" y="35" width="2" height="1" fill="#181819"/>
<rect x="15" y="35" width="1" height="1" fill="#081a1b"/>
<rect x="16" y="35" width="1" height="1" fill="#282829"/>
<rect x="19" y="35" width="2" height="1" fill="#ffffff"/>
<rect x="21" y="35" width="2" height="1" fill="#0b0bda"/>
<rect x="23" y="35" width="1" height="1" fill="#0b0d7a"/>
<rect x="24" y="35" width="1" height="1" fill="#081a08"/>
<rect x="25" y="35" width="1" height="1" fill="#180808"/>
<rect x="26" y="35" width="1" height="1" fill="#080808"/>
<rect x="27" y="35" width="1" height="1" fill="#000000"/>
<rect x="28" y="35" width="1" height="1" fill="#e8f8e8"/>
<rect x="32" y="35" width="1" height="1" fill="#242fb6"/>
<rect x="34" y="35" width="1" height="1" fill="#181819"/>
<rect x="36" y="35" width="1" height="1" fill="#686968"/>
<rect x="38" y="35" width="2" height="1" fill="#080808"/>
<rect x="40" y="35" width="1" height="1" fill="#000000"/>
<rect x="18" y="32" width="1" height="5" fill="#787879"/>
<rect x="10" y="34" width="1" height="3" fill="#ffffff"/>
<rect x="7" y="35" width="2" height="2" fill="#0b0bda"/>
<rect x="33" y="35" width="1" height="2" fill="#0b0d7a"/>
<rect x="35" y="35" width="1" height="2" fill="#181908"/>
<rect x="37" y="35" width="1" height="2" fill="#f8f8f8"/>
<rect x="4" y="36" width="1" height="1" fill="#d8d8d8"/>
<rect x="5" y="36" width="2" height="1" fill="#f8f8f8"/>
<rect x="9" y="36" width="1" height="1" fill="#090947"/>
<rect x="11" y="36" width="1" height="1" fill="#e8e8f8"/>
<rect x="12" y="36" width="1" height="1" fill="#888886"/>
<rect x="13" y="36" width="1" height="1" fill="#787879"/>
<rect x="14" y="36" width="1" height="1" fill="#686968"/>
<rect x="15" y="36" width="1" height="1" fill="#989899"/>
<rect x="16" y="36" width="1" height="1" fill="#f8f8f8"/>
<rect x="17" y="36" width="1" height="1" fill="#180808"/>
<rect x="19" y="36" width="1" height="1" fill="#ffffff"/>
<rect x="20" y="36" width="1" height="1" fill="#f8f8f8"/>
<rect x="21" y="36" width="1" height="1" fill="#242fb6"/>
<rect x="22" y="36" width="1" height="1" fill="#0b0bda"/>
<rect x="23" y="36" width="1" height="1" fill="#94a6e9"/>
<rect x="24" y="36" width="1" height="1" fill="#c9c8b7"/>
<rect x="25" y="36" width="1" height="1" fill="#2f3012"/>
<rect x="26" y="36" width="1" height="1" fill="#282829"/>
<rect x="27" y="36" width="1" height="1" fill="#6a5754"/>
<rect x="28" y="36" width="1" height="1" fill="#ffffff"/>
<rect x="31" y="36" width="1" height="1" fill="#f8f8f8"/>
<rect x="32" y="36" width="1" height="1" fill="#404bcc"/>
<rect x="34" y="36" width="1" height="1" fill="#090947"/>
<rect x="36" y="36" width="1" height="1" fill="#888886"/>
<rect x="38" y="36" width="1" height="1" fill="#08081e"/>
<rect x="39" y="36" width="1" height="1" fill="#180808"/>
<rect x="40" y="36" width="1" height="1" fill="#080808"/>
<rect x="41" y="36" width="2" height="1" fill="#ffffff"/>
<rect x="43" y="36" width="1" height="1" fill="#f8f8f8"/>
<rect x="29" y="35" width="2" height="3" fill="#383936"/>
<rect x="44" y="36" width="1" height="2" fill="#ffffff"/>
<rect x="4" y="37" width="1" height="1" fill="#e8d8eb"/>
<rect x="5" y="37" width="6" height="1" fill="#f8f8f8"/>
<rect x="11" y="37" width="1" height="1" fill="#f8e8f8"/>
<rect x="12" y="37" width="1" height="1" fill="#b8b8b8"/>
<rect x="13" y="37" width="1" height="1" fill="#c6c6c7"/>
<rect x="14" y="37" width="1" height="1" fill="#e8e8e8"/>
<rect x="15" y="37" width="2" height="1" fill="#ffffff"/>
<rect x="17" y="37" width="1" height="1" fill="#08081e"/>
<rect x="18" y="37" width="1" height="1" fill="#888886"/>
<rect x="21" y="37" width="1" height="1" fill="#f8e8f8"/>
<rect x="22" y="37" width="1" height="1" fill="#f8f8e8"/>
<rect x="23" y="37" width="1" height="1" fill="#ffffff"/>
<rect x="24" y="37" width="1" height="1" fill="#081a08"/>
<rect x="25" y="37" width="1" height="1" fill="#ffffff"/>
<rect x="26" y="37" width="1" height="1" fill="#f8e8f8"/>
<rect x="27" y="37" width="1" height="1" fill="#e8e8f8"/>
<rect x="28" y="37" width="1" height="1" fill="#f8f8f8"/>
<rect x="31" y="37" width="2" height="1" fill="#e7f8f8"/>
<rect x="33" y="37" width="2" height="1" fill="#f8f8e8"/>
<rect x="35" y="37" width="1" height="1" fill="#f0f18b"/>
<rect x="36" y="37" width="1" height="1" fill="#d8d9c5"/>
<rect x="37" y="37" width="4" height="1" fill="#ffffff"/>
<rect x="41" y="37" width="3" height="1" fill="#f8f8f8"/>
<rect x="19" y="37" width="2" height="2" fill="#ffffff"/>
<rect x="7" y="38" width="1" height="1" fill="#081a1b"/>
<rect x="8" y="38" width="1" height="1" fill="#180808"/>
<rect x="9" y="38" width="1" height="1" fill="#081a1b"/>
<rect x="11" y="38" width="1" height="1" fill="#e8e8e8"/>
<rect x="18" y="38" width="1" height="1" fill="#787879"/>
<rect x="21" y="38" width="1" height="1" fill="#383936"/>
<rect x="22" y="38" width="1" height="1" fill="#180808"/>
<rect x="23" y="38" width="1" height="1" fill="#181908"/>
<rect x="24" y="38" width="1" height="1" fill="#576c52"/>
<rect x="25" y="38" width="1" height="1" fill="#464d5a"/>
<rect x="26" y="38" width="1" height="1" fill="#546c69"/>
<rect x="31" y="38" width="1" height="1" fill="#f8f8f8"/>
<rect x="32" y="38" width="1" height="1" fill="#989899"/>
<rect x="33" y="38" width="1" height="1" fill="#383936"/>
<rect x="34" y="38" width="1" height="1" fill="#081a1b"/>
<rect x="35" y="38" width="1" height="1" fill="#19081d"/>
<rect x="36" y="38" width="1" height="1" fill="#000000"/>
<rect x="38" y="38" width="1" height="1" fill="#e8e8f8"/>
<rect x="39" y="38" width="1" height="1" fill="#e8f8e8"/>
<rect x="40" y="38" width="1" height="1" fill="#e8e8e8"/>
<rect x="41" y="38" width="2" height="1" fill="#f8f8f8"/>
<rect x="43" y="38" width="2" height="1" fill="#ffffff"/>
<rect x="5" y="38" width="2" height="2" fill="#f8f8f8"/>
<rect x="10" y="38" width="1" height="2" fill="#f8f8f8"/>
<rect x="12" y="38" width="5" height="2" fill="#f8f8f8"/>
<rect x="27" y="38" width="2" height="2" fill="#ffffff"/>
<rect x="29" y="38" width="1" height="2" fill="#383936"/>
<rect x="30" y="38" width="1" height="2" fill="#282829"/>
<rect x="7" y="39" width="1" height="1" fill="#66797f"/>
<rect x="8" y="39" width="1" height="1" fill="#686968"/>
<rect x="9" y="39" width="1" height="1" fill="#546c69"/>
<rect x="11" y="39" width="1" height="1" fill="#e8f8e8"/>
<rect x="19" y="39" width="2" height="1" fill="#f8f8f8"/>
<rect x="21" y="39" width="1" height="1" fill="#869a9d"/>
<rect x="22" y="39" width="1" height="1" fill="#888886"/>
<rect x="23" y="39" width="1" height="1" fill="#989484"/>
<rect x="24" y="39" width="3" height="1" fill="#a8a9a8"/>
<rect x="31" y="39" width="1" height="1" fill="#ffffff"/>
<rect x="32" y="39" width="1" height="1" fill="#c8c8c8"/>
<rect x="33" y="39" width="1" height="1" fill="#b8b8b8"/>
<rect x="34" y="39" width="1" height="1" fill="#98a994"/>
<rect x="35" y="39" width="2" height="1" fill="#888886"/>
<rect x="38" y="39" width="2" height="1" fill="#f8e8f8"/>
<rect x="40" y="39" width="1" height="1" fill="#e8f8e8"/>
<rect x="41" y="39" width="3" height="1" fill="#f8f8f8"/>
<rect x="3" y="34" width="1" height="7" fill="#686968"/>
<rect x="37" y="38" width="1" height="3" fill="#ffffff"/>
<rect x="18" y="39" width="1" height="2" fill="#686968"/>
<rect x="5" y="40" width="12" height="1" fill="#f8f8f8"/>
<rect x="19" y="40" width="7" height="1" fill="#f8f8f8"/>
<rect x="26" y="40" width="1" height="1" fill="#e8f8e8"/>
<rect x="27" y="40" width="1" height="1" fill="#f8f8f8"/>
<rect x="29" y="40" width="2" height="1" fill="#383936"/>
<rect x="31" y="40" width="1" height="1" fill="#f8f8f8"/>
<rect x="32" y="40" width="1" height="1" fill="#f8f8e8"/>
<rect x="33" y="40" width="4" height="1" fill="#f8f8f8"/>
<rect x="38" y="40" width="6" height="1" fill="#f8f8f8"/>
<rect x="17" y="38" width="1" height="4" fill="#080808"/>
<rect x="44" y="39" width="1" height="3" fill="#ffffff"/>
<rect x="28" y="40" width="1" height="2" fill="#ffffff"/>
<rect x="3" y="41" width="1" height="1" fill="#796878"/>
<rect x="5" y="41" width="1" height="1" fill="#ffffff"/>
<rect x="6" y="41" width="2" height="1" fill="#f8f8f8"/>
<rect x="8" y="41" width="3" height="1" fill="#ffffff"/>
<rect x="11" y="41" width="6" height="1" fill="#f8f8f8"/>
<rect x="18" y="41" width="1" height="1" fill="#787879"/>
<rect x="19" y="41" width="5" height="1" fill="#f8f8f8"/>
<rect x="24" y="41" width="2" height="1" fill="#ffffff"/>
<rect x="26" y="41" width="2" height="1" fill="#f8f8f8"/>
<rect x="29" y="41" width="1" height="1" fill="#585858"/>
<rect x="30" y="41" width="1" height="1" fill="#686968"/>
<rect x="31" y="41" width="1" height="1" fill="#ffffff"/>
<rect x="32" y="41" width="2" height="1" fill="#f8f8f8"/>
<rect x="34" y="41" width="7" height="1" fill="#ffffff"/>
<rect x="41" y="41" width="2" height="1" fill="#f8f8f8"/>
<rect x="43" y="41" width="1" height="1" fill="#e7f8f8"/>
<rect x="4" y="38" width="1" height="5" fill="#d8d8d8"/>
<rect x="3" y="42" width="1" height="1" fill="#686968"/>
<rect x="5" y="42" width="6" height="1" fill="#f8f8f8"/>
<rect x="11" y="42" width="1" height="1" fill="#ffffff"/>
<rect x="12" y="42" width="5" height="1" fill="#f8f8f8"/>
<rect x="17" y="42" width="1" height="1" fill="#f8f8e8"/>
<rect x="18" y="42" width="12" height="1" fill="#f8f8f8"/>
<rect x="30" y="42" width="1" height="1" fill="#e8f8e8"/>
<rect x="31" y="42" width="1" height="1" fill="#f8f8f8"/>
<rect x="32" y="42" width="1" height="1" fill="#ffffff"/>
<rect x="33" y="42" width="8" height="1" fill="#f8f8f8"/>
<rect x="41" y="42" width="1" height="1" fill="#ffffff"/>
<rect x="42" y="42" width="1" height="1" fill="#f8f8f8"/>
<rect x="43" y="42" width="1" height="1" fill="#c8c8c8"/>
<rect x="44" y="42" width="1" height="1" fill="#d8d8d8"/>
<rect x="3" y="43" width="1" height="1" fill="#685868"/>
<rect x="4" y="43" width="1" height="1" fill="#989484"/>
<rect x="5" y="43" width="10" height="1" fill="#a8a9a8"/>
<rect x="15" y="43" width="2" height="1" fill="#989899"/>
<rect x="17" y="43" width="1" height="1" fill="#686968"/>
<rect x="18" y="43" width="1" height="1" fill="#888886"/>
<rect x="19" y="43" width="9" height="1" fill="#989899"/>
<rect x="28" y="43" width="2" height="1" fill="#888886"/>
<rect x="30" y="43" width="1" height="1" fill="#989899"/>
<rect x="31" y="43" width="11" height="1" fill="#a8a9a8"/>
<rect x="42" y="43" width="3" height="1" fill="#989899"/>
<rect x="45" y="11" width="1" height="34" fill="#000000"/>
<rect x="3" y="44" width="1" height="1" fill="#484848"/>
<rect x="4" y="44" width="1" height="1" fill="#282829"/>
<rect x="5" y="44" width="2" height="1" fill="#080808"/>
<rect x="7" y="44" width="1" height="1" fill="#08081e"/>
<rect x="8" y="44" width="36" height="1" fill="#080808"/>
<rect x="44" y="44" width="1" height="1" fill="#08081e"/>
</svg>
