<svg xmlns="http://www.w3.org/2000/svg" width="48" height="48" viewBox="0 0 32 32" shape-rendering="crispEdges">
<rect x="19" y="0" width="4" height="1" fill="#808000"/>
<rect x="17" y="1" width="2" height="1" fill="#808000"/>
<rect x="19" y="1" width="4" height="1" fill="#ffff00"/>
<rect x="23" y="1" width="2" height="1" fill="#000000"/>
<rect x="16" y="2" width="1" height="1" fill="#808000"/>
<rect x="17" y="2" width="2" height="1" fill="#ffff00"/>
<rect x="19" y="2" width="3" height="1" fill="#808000"/>
<rect x="22" y="2" width="1" height="1" fill="#c0c0c0"/>
<rect x="23" y="2" width="1" height="1" fill="#ffff00"/>
<rect x="24" y="2" width="1" height="1" fill="#808000"/>
<rect x="25" y="2" width="1" height="1" fill="#000000"/>
<rect x="6" y="3" width="5" height="1" fill="#000000"/>
<rect x="15" y="3" width="1" height="1" fill="#808000"/>
<rect x="16" y="3" width="1" height="1" fill="#ffff00"/>
<rect x="17" y="3" width="1" height="1" fill="#c0c0c0"/>
<rect x="18" y="3" width="1" height="1" fill="#808000"/>
<rect x="19" y="3" width="4" height="1" fill="#000000"/>
<rect x="23" y="3" width="2" height="1" fill="#c0c0c0"/>
<rect x="25" y="3" width="1" height="1" fill="#808000"/>
<rect x="26" y="3" width="1" height="1" fill="#000000"/>
<rect x="5" y="4" width="1" height="1" fill="#000000"/>
<rect x="6" y="4" width="1" height="1" fill="#808080"/>
<rect x="10" y="4" width="1" height="1" fill="#808080"/>
<rect x="11" y="4" width="1" height="1" fill="#000000"/>
<rect x="16" y="4" width="1" height="1" fill="#c0c0c0"/>
<rect x="17" y="4" width="1" height="1" fill="#808000"/>
<rect x="18" y="4" width="1" height="1" fill="#000000"/>
<rect x="23" y="4" width="1" height="1" fill="#808000"/>
<rect x="24" y="4" width="1" height="1" fill="#ffff00"/>
<rect x="3" y="5" width="6" height="1" fill="#808080"/>
<rect x="11" y="5" width="1" height="1" fill="#808080"/>
<rect x="2" y="6" width="1" height="1" fill="#808080"/>
<rect x="3" y="6" width="4" height="1" fill="#ffffff"/>
<rect x="8" y="6" width="1" height="1" fill="#808080"/>
<rect x="9" y="6" width="1" height="1" fill="#000000"/>
<rect x="14" y="4" width="1" height="4" fill="#808000"/>
<rect x="7" y="6" width="1" height="2" fill="#c0c0c0"/>
<rect x="1" y="7" width="1" height="1" fill="#808080"/>
<rect x="2" y="7" width="1" height="1" fill="#ffffff"/>
<rect x="3" y="7" width="2" height="1" fill="#c0c0c0"/>
<rect x="5" y="7" width="2" height="1" fill="#000000"/>
<rect x="8" y="7" width="4" height="1" fill="#808080"/>
<rect x="15" y="4" width="1" height="5" fill="#ffff00"/>
<rect x="12" y="5" width="1" height="4" fill="#000000"/>
<rect x="13" y="7" width="1" height="2" fill="#808080"/>
<rect x="5" y="8" width="3" height="1" fill="#808080"/>
<rect x="8" y="8" width="4" height="1" fill="#ffffff"/>
<rect x="14" y="8" width="1" height="1" fill="#000000"/>
<rect x="16" y="5" width="1" height="5" fill="#808000"/>
<rect x="17" y="5" width="1" height="5" fill="#000000"/>
<rect x="24" y="5" width="1" height="5" fill="#808000"/>
<rect x="4" y="8" width="1" height="2" fill="#000000"/>
<rect x="5" y="9" width="2" height="1" fill="#808080"/>
<rect x="7" y="9" width="1" height="1" fill="#ffffff"/>
<rect x="8" y="9" width="2" height="1" fill="#c0c0c0"/>
<rect x="10" y="9" width="2" height="1" fill="#000000"/>
<rect x="12" y="9" width="2" height="1" fill="#c0c0c0"/>
<rect x="14" y="9" width="1" height="1" fill="#808080"/>
<rect x="15" y="9" width="1" height="1" fill="#000000"/>
<rect x="2" y="8" width="2" height="3" fill="#c0c0c0"/>
<rect x="4" y="10" width="1" height="1" fill="#ffffff"/>
<rect x="10" y="10" width="2" height="1" fill="#808080"/>
<rect x="18" y="10" width="7" height="1" fill="#808000"/>
<rect x="28" y="10" width="2" height="1" fill="#808000"/>
<rect x="25" y="4" width="1" height="8" fill="#c0c0c0"/>
<rect x="26" y="4" width="1" height="8" fill="#808000"/>
<rect x="27" y="4" width="1" height="8" fill="#000000"/>
<rect x="9" y="10" width="1" height="2" fill="#000000"/>
<rect x="12" y="10" width="1" height="2" fill="#000000"/>
<rect x="13" y="10" width="2" height="2" fill="#c0c0c0"/>
<rect x="16" y="10" width="2" height="2" fill="#000000"/>
<rect x="2" y="11" width="3" height="1" fill="#c0c0c0"/>
<rect x="10" y="11" width="1" height="1" fill="#808080"/>
<rect x="18" y="11" width="1" height="1" fill="#808000"/>
<rect x="19" y="11" width="1" height="1" fill="#808080"/>
<rect x="20" y="11" width="1" height="1" fill="#808000"/>
<rect x="21" y="11" width="1" height="1" fill="#808080"/>
<rect x="22" y="11" width="1" height="1" fill="#808000"/>
<rect x="23" y="11" width="1" height="1" fill="#808080"/>
<rect x="24" y="11" width="1" height="1" fill="#808000"/>
<rect x="28" y="11" width="1" height="1" fill="#808000"/>
<rect x="29" y="11" width="1" height="1" fill="#808080"/>
<rect x="30" y="11" width="1" height="1" fill="#808000"/>
<rect x="0" y="8" width="1" height="5" fill="#808080"/>
<rect x="1" y="8" width="1" height="5" fill="#ffffff"/>
<rect x="7" y="10" width="2" height="3" fill="#c0c0c0"/>
<rect x="2" y="12" width="2" height="1" fill="#c0c0c0"/>
<rect x="4" y="12" width="1" height="1" fill="#ffffff"/>
<rect x="9" y="12" width="1" height="1" fill="#ffffff"/>
<rect x="10" y="12" width="2" height="1" fill="#000000"/>
<rect x="12" y="12" width="1" height="1" fill="#c0c0c0"/>
<rect x="13" y="12" width="1" height="1" fill="#ffffff"/>
<rect x="14" y="12" width="1" height="1" fill="#c0c0c0"/>
<rect x="17" y="12" width="1" height="1" fill="#808000"/>
<rect x="18" y="12" width="1" height="1" fill="#808080"/>
<rect x="19" y="12" width="1" height="1" fill="#808000"/>
<rect x="20" y="12" width="1" height="1" fill="#808080"/>
<rect x="21" y="12" width="1" height="1" fill="#808000"/>
<rect x="22" y="12" width="1" height="1" fill="#808080"/>
<rect x="23" y="12" width="1" height="1" fill="#808000"/>
<rect x="24" y="12" width="1" height="1" fill="#808080"/>
<rect x="25" y="12" width="2" height="1" fill="#000000"/>
<rect x="27" y="12" width="1" height="1" fill="#808000"/>
<rect x="28" y="12" width="1" height="1" fill="#808080"/>
<rect x="29" y="12" width="1" height="1" fill="#808000"/>
<rect x="30" y="12" width="1" height="1" fill="#808080"/>
<rect x="1" y="13" width="1" height="1" fill="#808080"/>
<rect x="2" y="13" width="1" height="1" fill="#ffffff"/>
<rect x="3" y="13" width="2" height="1" fill="#c0c0c0"/>
<rect x="7" y="13" width="3" height="1" fill="#c0c0c0"/>
<rect x="10" y="13" width="1" height="1" fill="#ffffff"/>
<rect x="11" y="13" width="1" height="1" fill="#c0c0c0"/>
<rect x="12" y="13" width="1" height="1" fill="#ffffff"/>
<rect x="13" y="13" width="2" height="1" fill="#c0c0c0"/>
<rect x="17" y="13" width="1" height="1" fill="#808080"/>
<rect x="18" y="13" width="1" height="1" fill="#808000"/>
<rect x="19" y="13" width="1" height="1" fill="#808080"/>
<rect x="20" y="13" width="1" height="1" fill="#808000"/>
<rect x="21" y="13" width="1" height="1" fill="#808080"/>
<rect x="22" y="13" width="1" height="1" fill="#808000"/>
<rect x="23" y="13" width="1" height="1" fill="#808080"/>
<rect x="24" y="13" width="1" height="1" fill="#808000"/>
<rect x="25" y="13" width="1" height="1" fill="#808080"/>
<rect x="26" y="13" width="1" height="1" fill="#808000"/>
<rect x="27" y="13" width="1" height="1" fill="#808080"/>
<rect x="28" y="13" width="1" height="1" fill="#808000"/>
<rect x="29" y="13" width="1" height="1" fill="#808080"/>
<rect x="30" y="13" width="1" height="1" fill="#808000"/>
<rect x="5" y="10" width="1" height="5" fill="#808080"/>
<rect x="6" y="10" width="1" height="5" fill="#ffffff"/>
<rect x="15" y="10" width="1" height="5" fill="#808080"/>
<rect x="16" y="12" width="1" height="3" fill="#000000"/>
<rect x="2" y="14" width="1" height="1" fill="#808080"/>
<rect x="3" y="14" width="1" height="1" fill="#ffffff"/>
<rect x="4" y="14" width="1" height="1" fill="#c0c0c0"/>
<rect x="7" y="14" width="2" height="1" fill="#c0c0c0"/>
<rect x="9" y="14" width="1" height="1" fill="#ffffff"/>
<rect x="10" y="14" width="1" height="1" fill="#c0c0c0"/>
<rect x="11" y="14" width="1" height="1" fill="#ffffff"/>
<rect x="12" y="14" width="3" height="1" fill="#c0c0c0"/>
<rect x="17" y="14" width="10" height="1" fill="#ffffff"/>
<rect x="27" y="14" width="2" height="1" fill="#c0c0c0"/>
<rect x="29" y="14" width="1" height="1" fill="#808000"/>
<rect x="30" y="14" width="1" height="1" fill="#808080"/>
<rect x="3" y="15" width="1" height="1" fill="#808080"/>
<rect x="4" y="15" width="1" height="1" fill="#ffffff"/>
<rect x="6" y="15" width="1" height="1" fill="#808080"/>
<rect x="7" y="15" width="1" height="1" fill="#ffffff"/>
<rect x="8" y="15" width="2" height="1" fill="#c0c0c0"/>
<rect x="10" y="15" width="1" height="1" fill="#ffffff"/>
<rect x="11" y="15" width="1" height="1" fill="#c0c0c0"/>
<rect x="12" y="15" width="1" height="1" fill="#ffffff"/>
<rect x="13" y="15" width="1" height="1" fill="#c0c0c0"/>
<rect x="14" y="15" width="1" height="1" fill="#808080"/>
<rect x="15" y="15" width="1" height="1" fill="#000000"/>
<rect x="16" y="15" width="11" height="1" fill="#ffff00"/>
<rect x="27" y="15" width="1" height="1" fill="#ffffff"/>
<rect x="29" y="15" width="1" height="1" fill="#808080"/>
<rect x="30" y="15" width="1" height="1" fill="#808000"/>
<rect x="6" y="16" width="2" height="1" fill="#808080"/>
<rect x="8" y="16" width="1" height="1" fill="#ffffff"/>
<rect x="9" y="16" width="5" height="1" fill="#c0c0c0"/>
<rect x="14" y="16" width="1" height="1" fill="#000000"/>
<rect x="15" y="16" width="13" height="1" fill="#ffff00"/>
<rect x="29" y="16" width="1" height="1" fill="#808000"/>
<rect x="30" y="16" width="1" height="1" fill="#808080"/>
<rect x="4" y="16" width="1" height="2" fill="#808080"/>
<rect x="8" y="17" width="1" height="1" fill="#808080"/>
<rect x="9" y="17" width="1" height="1" fill="#ffffff"/>
<rect x="11" y="17" width="1" height="1" fill="#ffffff"/>
<rect x="12" y="17" width="1" height="1" fill="#808080"/>
<rect x="14" y="17" width="13" height="1" fill="#c0c0c0"/>
<rect x="27" y="17" width="1" height="1" fill="#ffff00"/>
<rect x="29" y="17" width="1" height="1" fill="#808080"/>
<rect x="30" y="17" width="1" height="1" fill="#808000"/>
<rect x="11" y="18" width="2" height="1" fill="#808080"/>
<rect x="14" y="18" width="14" height="1" fill="#ffff00"/>
<rect x="29" y="18" width="1" height="1" fill="#808000"/>
<rect x="30" y="18" width="1" height="1" fill="#808080"/>
<rect x="5" y="15" width="1" height="5" fill="#c0c0c0"/>
<rect x="6" y="17" width="1" height="3" fill="#808080"/>
<rect x="3" y="18" width="1" height="2" fill="#808080"/>
<rect x="4" y="18" width="1" height="2" fill="#ffffff"/>
<rect x="8" y="18" width="1" height="2" fill="#000000"/>
<rect x="9" y="18" width="1" height="2" fill="#808080"/>
<rect x="14" y="19" width="13" height="1" fill="#c0c0c0"/>
<rect x="27" y="19" width="1" height="1" fill="#ffff00"/>
<rect x="29" y="19" width="1" height="1" fill="#808080"/>
<rect x="30" y="19" width="1" height="1" fill="#808000"/>
<rect x="4" y="20" width="1" height="1" fill="#000000"/>
<rect x="5" y="20" width="2" height="1" fill="#808080"/>
<rect x="14" y="20" width="14" height="1" fill="#ffff00"/>
<rect x="29" y="20" width="1" height="1" fill="#808000"/>
<rect x="30" y="20" width="1" height="1" fill="#808080"/>
<rect x="10" y="17" width="1" height="5" fill="#c0c0c0"/>
<rect x="11" y="19" width="1" height="3" fill="#808080"/>
<rect x="8" y="20" width="1" height="2" fill="#808080"/>
<rect x="9" y="20" width="1" height="2" fill="#ffffff"/>
<rect x="5" y="21" width="1" height="1" fill="#000000"/>
<rect x="14" y="21" width="13" height="1" fill="#c0c0c0"/>
<rect x="27" y="21" width="1" height="1" fill="#ffff00"/>
<rect x="29" y="21" width="1" height="1" fill="#808080"/>
<rect x="30" y="21" width="1" height="1" fill="#808000"/>
<rect x="4" y="22" width="1" height="1" fill="#808080"/>
<rect x="8" y="22" width="2" height="1" fill="#000000"/>
<rect x="10" y="22" width="2" height="1" fill="#808080"/>
<rect x="14" y="22" width="14" height="1" fill="#ffff00"/>
<rect x="29" y="22" width="1" height="1" fill="#808000"/>
<rect x="30" y="22" width="1" height="1" fill="#808080"/>
<rect x="3" y="23" width="1" height="1" fill="#808080"/>
<rect x="4" y="23" width="1" height="1" fill="#ffffff"/>
<rect x="10" y="23" width="1" height="1" fill="#000000"/>
<rect x="14" y="23" width="13" height="1" fill="#c0c0c0"/>
<rect x="27" y="23" width="1" height="1" fill="#ffff00"/>
<rect x="29" y="23" width="1" height="1" fill="#808080"/>
<rect x="30" y="23" width="1" height="1" fill="#808000"/>
<rect x="5" y="22" width="1" height="3" fill="#c0c0c0"/>
<rect x="8" y="23" width="1" height="2" fill="#000000"/>
<rect x="4" y="24" width="1" height="1" fill="#000000"/>
<rect x="9" y="24" width="1" height="1" fill="#808080"/>
<rect x="14" y="24" width="14" height="1" fill="#ffff00"/>
<rect x="29" y="24" width="1" height="1" fill="#808000"/>
<rect x="30" y="24" width="1" height="1" fill="#808080"/>
<rect x="5" y="25" width="1" height="1" fill="#000000"/>
<rect x="8" y="25" width="1" height="1" fill="#808080"/>
<rect x="9" y="25" width="1" height="1" fill="#ffffff"/>
<rect x="14" y="25" width="13" height="1" fill="#c0c0c0"/>
<rect x="27" y="25" width="1" height="1" fill="#ffff00"/>
<rect x="29" y="25" width="1" height="1" fill="#808080"/>
<rect x="30" y="25" width="1" height="1" fill="#808000"/>
<rect x="7" y="17" width="1" height="10" fill="#c0c0c0"/>
<rect x="6" y="21" width="1" height="6" fill="#808080"/>
<rect x="10" y="24" width="1" height="3" fill="#c0c0c0"/>
<rect x="5" y="26" width="1" height="1" fill="#c0c0c0"/>
<rect x="8" y="26" width="2" height="1" fill="#000000"/>
<rect x="29" y="26" width="1" height="1" fill="#808000"/>
<rect x="30" y="26" width="1" height="1" fill="#808080"/>
<rect x="31" y="12" width="1" height="16" fill="#000000"/>
<rect x="28" y="15" width="1" height="13" fill="#c0c0c0"/>
<rect x="4" y="26" width="1" height="2" fill="#808080"/>
<rect x="14" y="26" width="14" height="2" fill="#ffff00"/>
<rect x="5" y="27" width="3" height="1" fill="#c0c0c0"/>
<rect x="8" y="27" width="1" height="1" fill="#000000"/>
<rect x="10" y="27" width="1" height="1" fill="#000000"/>
<rect x="30" y="27" width="1" height="1" fill="#808000"/>
<rect x="13" y="17" width="1" height="12" fill="#000000"/>
<rect x="12" y="19" width="1" height="10" fill="#c0c0c0"/>
<rect x="11" y="23" width="1" height="6" fill="#808080"/>
<rect x="29" y="27" width="1" height="2" fill="#808080"/>
<rect x="5" y="28" width="1" height="1" fill="#000000"/>
<rect x="6" y="28" width="1" height="1" fill="#c0c0c0"/>
<rect x="7" y="28" width="1" height="1" fill="#000000"/>
<rect x="10" y="28" width="1" height="1" fill="#c0c0c0"/>
<rect x="14" y="28" width="15" height="1" fill="#808000"/>
<rect x="30" y="28" width="1" height="1" fill="#000000"/>
<rect x="9" y="28" width="1" height="2" fill="#808080"/>
<rect x="6" y="29" width="1" height="1" fill="#000000"/>
<rect x="10" y="29" width="3" height="1" fill="#c0c0c0"/>
<rect x="13" y="29" width="17" height="1" fill="#000000"/>
<rect x="10" y="30" width="1" height="1" fill="#000000"/>
<rect x="11" y="30" width="1" height="1" fill="#c0c0c0"/>
<rect x="12" y="30" width="1" height="1" fill="#000000"/>
<rect x="11" y="31" width="1" height="1" fill="#000000"/>
</svg>
