<svg xmlns="http://www.w3.org/2000/svg" width="48" height="48" viewBox="0 0 48 48" shape-rendering="crispEdges">
<rect x="27" y="0" width="17" height="1" fill="#040404"/>
<rect x="25" y="1" width="2" height="1" fill="#040404"/>
<rect x="27" y="1" width="5" height="1" fill="#777777"/>
<rect x="32" y="1" width="8" height="1" fill="#424242"/>
<rect x="40" y="1" width="3" height="1" fill="#333333"/>
<rect x="43" y="1" width="2" height="1" fill="#040404"/>
<rect x="23" y="2" width="2" height="1" fill="#040404"/>
<rect x="25" y="2" width="2" height="1" fill="#a0a0a4"/>
<rect x="27" y="2" width="1" height="1" fill="#777777"/>
<rect x="28" y="2" width="2" height="1" fill="#666666"/>
<rect x="30" y="2" width="1" height="1" fill="#5f5f5f"/>
<rect x="31" y="2" width="1" height="1" fill="#555555"/>
<rect x="35" y="2" width="1" height="1" fill="#292929"/>
<rect x="36" y="2" width="1" height="1" fill="#222222"/>
<rect x="37" y="2" width="1" height="1" fill="#1c1c1c"/>
<rect x="38" y="2" width="1" height="1" fill="#161616"/>
<rect x="39" y="2" width="7" height="1" fill="#040404"/>
<rect x="32" y="2" width="1" height="2" fill="#424242"/>
<rect x="33" y="2" width="1" height="2" fill="#393939"/>
<rect x="34" y="2" width="1" height="2" fill="#333333"/>
<rect x="22" y="3" width="1" height="1" fill="#040404"/>
<rect x="23" y="3" width="1" height="1" fill="#999999"/>
<rect x="24" y="3" width="1" height="1" fill="#a0a0a4"/>
<rect x="25" y="3" width="1" height="1" fill="#868686"/>
<rect x="26" y="3" width="2" height="1" fill="#777777"/>
<rect x="28" y="3" width="1" height="1" fill="#666666"/>
<rect x="29" y="3" width="1" height="1" fill="#5f5f5f"/>
<rect x="30" y="3" width="1" height="1" fill="#555555"/>
<rect x="31" y="3" width="1" height="1" fill="#4d4d4d"/>
<rect x="35" y="3" width="1" height="2" fill="#222222"/>
<rect x="36" y="3" width="1" height="2" fill="#1c1c1c"/>
<rect x="37" y="3" width="1" height="2" fill="#161616"/>
<rect x="38" y="3" width="1" height="2" fill="#0c0c0c"/>
<rect x="39" y="3" width="8" height="2" fill="#040404"/>
<rect x="21" y="4" width="1" height="1" fill="#040404"/>
<rect x="22" y="4" width="1" height="1" fill="#a0a0a4"/>
<rect x="23" y="4" width="2" height="1" fill="#868686"/>
<rect x="25" y="4" width="2" height="1" fill="#777777"/>
<rect x="27" y="4" width="2" height="1" fill="#666666"/>
<rect x="29" y="4" width="1" height="1" fill="#555555"/>
<rect x="30" y="4" width="1" height="1" fill="#4d4d4d"/>
<rect x="34" y="4" width="1" height="1" fill="#292929"/>
<rect x="31" y="4" width="1" height="2" fill="#424242"/>
<rect x="32" y="4" width="1" height="2" fill="#393939"/>
<rect x="33" y="4" width="1" height="2" fill="#333333"/>
<rect x="20" y="5" width="1" height="1" fill="#040404"/>
<rect x="21" y="5" width="1" height="1" fill="#a0a0a4"/>
<rect x="22" y="5" width="2" height="1" fill="#868686"/>
<rect x="28" y="5" width="1" height="1" fill="#5f5f5f"/>
<rect x="29" y="5" width="2" height="1" fill="#4d4d4d"/>
<rect x="36" y="5" width="1" height="1" fill="#161616"/>
<rect x="37" y="5" width="1" height="1" fill="#0c0c0c"/>
<rect x="24" y="5" width="2" height="2" fill="#777777"/>
<rect x="26" y="5" width="2" height="2" fill="#666666"/>
<rect x="34" y="5" width="1" height="2" fill="#222222"/>
<rect x="35" y="5" width="1" height="2" fill="#1c1c1c"/>
<rect x="38" y="5" width="9" height="2" fill="#040404"/>
<rect x="21" y="6" width="1" height="1" fill="#868686"/>
<rect x="22" y="6" width="1" height="1" fill="#777777"/>
<rect x="23" y="6" width="1" height="1" fill="#868686"/>
<rect x="28" y="6" width="1" height="1" fill="#555555"/>
<rect x="29" y="6" width="1" height="1" fill="#4d4d4d"/>
<rect x="31" y="6" width="1" height="1" fill="#393939"/>
<rect x="32" y="6" width="1" height="1" fill="#333333"/>
<rect x="33" y="6" width="1" height="1" fill="#292929"/>
<rect x="36" y="6" width="2" height="1" fill="#0c0c0c"/>
<rect x="30" y="6" width="1" height="2" fill="#424242"/>
<rect x="21" y="7" width="2" height="1" fill="#868686"/>
<rect x="23" y="7" width="2" height="1" fill="#777777"/>
<rect x="25" y="7" width="2" height="1" fill="#666666"/>
<rect x="27" y="7" width="1" height="1" fill="#5f5f5f"/>
<rect x="28" y="7" width="2" height="1" fill="#4d4d4d"/>
<rect x="35" y="7" width="1" height="1" fill="#040404"/>
<rect x="36" y="7" width="1" height="1" fill="#0c0c0c"/>
<rect x="37" y="7" width="2" height="1" fill="#040404"/>
<rect x="39" y="7" width="2" height="1" fill="#b2b2b2"/>
<rect x="41" y="7" width="1" height="1" fill="#c0c0c0"/>
<rect x="44" y="7" width="2" height="1" fill="#040404"/>
<rect x="19" y="6" width="1" height="3" fill="#040404"/>
<rect x="20" y="6" width="1" height="3" fill="#a0a0a4"/>
<rect x="31" y="7" width="1" height="2" fill="#333333"/>
<rect x="32" y="7" width="1" height="2" fill="#292929"/>
<rect x="33" y="7" width="1" height="2" fill="#222222"/>
<rect x="34" y="7" width="1" height="2" fill="#1c1c1c"/>
<rect x="42" y="7" width="1" height="2" fill="#b2b2b2"/>
<rect x="43" y="7" width="1" height="2" fill="#969696"/>
<rect x="21" y="8" width="1" height="1" fill="#868686"/>
<rect x="22" y="8" width="3" height="1" fill="#777777"/>
<rect x="25" y="8" width="1" height="1" fill="#666666"/>
<rect x="27" y="8" width="1" height="1" fill="#555555"/>
<rect x="28" y="8" width="1" height="1" fill="#4d4d4d"/>
<rect x="29" y="8" width="1" height="1" fill="#424242"/>
<rect x="30" y="8" width="1" height="1" fill="#393939"/>
<rect x="35" y="8" width="1" height="1" fill="#0c0c0c"/>
<rect x="36" y="8" width="1" height="1" fill="#040404"/>
<rect x="37" y="8" width="1" height="1" fill="#c0c0c0"/>
<rect x="38" y="8" width="1" height="1" fill="#b2b2b2"/>
<rect x="39" y="8" width="3" height="1" fill="#c0c0c0"/>
<rect x="44" y="8" width="1" height="1" fill="#040404"/>
<rect x="26" y="8" width="1" height="2" fill="#5f5f5f"/>
<rect x="13" y="9" width="9" height="1" fill="#868686"/>
<rect x="22" y="9" width="2" height="1" fill="#777777"/>
<rect x="24" y="9" width="2" height="1" fill="#666666"/>
<rect x="27" y="9" width="2" height="1" fill="#4d4d4d"/>
<rect x="29" y="9" width="2" height="1" fill="#393939"/>
<rect x="34" y="9" width="1" height="1" fill="#161616"/>
<rect x="35" y="9" width="1" height="1" fill="#040404"/>
<rect x="36" y="9" width="1" height="1" fill="#c0c0c0"/>
<rect x="37" y="9" width="1" height="1" fill="#b2b2b2"/>
<rect x="38" y="9" width="2" height="1" fill="#c0c0c0"/>
<rect x="40" y="9" width="2" height="1" fill="#b2b2b2"/>
<rect x="42" y="9" width="1" height="1" fill="#999999"/>
<rect x="31" y="9" width="1" height="2" fill="#292929"/>
<rect x="32" y="9" width="1" height="2" fill="#222222"/>
<rect x="33" y="9" width="1" height="2" fill="#1c1c1c"/>
<rect x="43" y="9" width="1" height="2" fill="#040404"/>
<rect x="11" y="10" width="1" height="1" fill="#868686"/>
<rect x="12" y="10" width="1" height="1" fill="#999999"/>
<rect x="13" y="10" width="1" height="1" fill="#ffffff"/>
<rect x="14" y="10" width="2" height="1" fill="#f1f1f1"/>
<rect x="16" y="10" width="2" height="1" fill="#eaeaea"/>
<rect x="18" y="10" width="2" height="1" fill="#e3e3e3"/>
<rect x="20" y="10" width="4" height="1" fill="#dddddd"/>
<rect x="24" y="10" width="1" height="1" fill="#a0a0a4"/>
<rect x="25" y="10" width="1" height="1" fill="#040404"/>
<rect x="26" y="10" width="1" height="1" fill="#555555"/>
<rect x="27" y="10" width="1" height="1" fill="#4d4d4d"/>
<rect x="28" y="10" width="1" height="1" fill="#424242"/>
<rect x="29" y="10" width="1" height="1" fill="#393939"/>
<rect x="30" y="10" width="1" height="1" fill="#333333"/>
<rect x="34" y="10" width="1" height="1" fill="#040404"/>
<rect x="35" y="10" width="2" height="1" fill="#b2b2b2"/>
<rect x="37" y="10" width="1" height="1" fill="#c0c0c0"/>
<rect x="38" y="10" width="1" height="1" fill="#b2b2b2"/>
<rect x="39" y="10" width="3" height="1" fill="#c0c0c0"/>
<rect x="42" y="10" width="1" height="1" fill="#969696"/>
<rect x="9" y="11" width="1" height="1" fill="#868686"/>
<rect x="10" y="11" width="1" height="1" fill="#969696"/>
<rect x="11" y="11" width="2" height="1" fill="#ffffff"/>
<rect x="13" y="11" width="2" height="1" fill="#f1f1f1"/>
<rect x="15" y="11" width="2" height="1" fill="#eaeaea"/>
<rect x="17" y="11" width="1" height="1" fill="#e3e3e3"/>
<rect x="18" y="11" width="2" height="1" fill="#dddddd"/>
<rect x="20" y="11" width="1" height="1" fill="#d7d7d7"/>
<rect x="21" y="11" width="2" height="1" fill="#cccccc"/>
<rect x="23" y="11" width="1" height="1" fill="#c0c0c0"/>
<rect x="24" y="11" width="1" height="1" fill="#cccccc"/>
<rect x="25" y="11" width="1" height="1" fill="#a0a0a4"/>
<rect x="26" y="11" width="2" height="1" fill="#040404"/>
<rect x="28" y="11" width="1" height="1" fill="#393939"/>
<rect x="30" y="11" width="1" height="1" fill="#292929"/>
<rect x="32" y="11" width="1" height="1" fill="#1c1c1c"/>
<rect x="33" y="11" width="1" height="1" fill="#040404"/>
<rect x="34" y="11" width="3" height="1" fill="#c0c0c0"/>
<rect x="37" y="11" width="1" height="1" fill="#b2b2b2"/>
<rect x="38" y="11" width="1" height="1" fill="#c0c0c0"/>
<rect x="39" y="11" width="5" height="1" fill="#040404"/>
<rect x="29" y="11" width="1" height="2" fill="#333333"/>
<rect x="31" y="11" width="1" height="2" fill="#222222"/>
<rect x="7" y="12" width="1" height="1" fill="#868686"/>
<rect x="8" y="12" width="1" height="1" fill="#b2b2b2"/>
<rect x="9" y="12" width="4" height="1" fill="#ffffff"/>
<rect x="13" y="12" width="1" height="1" fill="#f1f1f1"/>
<rect x="14" y="12" width="2" height="1" fill="#eaeaea"/>
<rect x="16" y="12" width="1" height="1" fill="#e3e3e3"/>
<rect x="17" y="12" width="2" height="1" fill="#dddddd"/>
<rect x="19" y="12" width="1" height="1" fill="#d7d7d7"/>
<rect x="20" y="12" width="3" height="1" fill="#cccccc"/>
<rect x="23" y="12" width="2" height="1" fill="#c0c0c0"/>
<rect x="25" y="12" width="2" height="1" fill="#b2b2b2"/>
<rect x="27" y="12" width="1" height="1" fill="#a0a0a4"/>
<rect x="28" y="12" width="1" height="1" fill="#040404"/>
<rect x="30" y="12" width="1" height="1" fill="#0c0c0c"/>
<rect x="32" y="12" width="1" height="1" fill="#040404"/>
<rect x="33" y="12" width="1" height="1" fill="#c0c0c0"/>
<rect x="34" y="12" width="1" height="1" fill="#b2b2b2"/>
<rect x="35" y="12" width="1" height="1" fill="#c0c0c0"/>
<rect x="36" y="12" width="1" height="1" fill="#b2b2b2"/>
<rect x="37" y="12" width="1" height="1" fill="#c0c0c0"/>
<rect x="39" y="12" width="1" height="1" fill="#040404"/>
<rect x="40" y="12" width="1" height="1" fill="#777777"/>
<rect x="41" y="12" width="1" height="1" fill="#868686"/>
<rect x="43" y="12" width="1" height="1" fill="#040404"/>
<rect x="38" y="12" width="1" height="2" fill="#b2b2b2"/>
<rect x="42" y="12" width="1" height="2" fill="#969696"/>
<rect x="6" y="13" width="1" height="1" fill="#a0a0a4"/>
<rect x="7" y="13" width="4" height="1" fill="#ffffff"/>
<rect x="11" y="13" width="2" height="1" fill="#f1f1f1"/>
<rect x="13" y="13" width="2" height="1" fill="#eaeaea"/>
<rect x="15" y="13" width="1" height="1" fill="#e3e3e3"/>
<rect x="16" y="13" width="2" height="1" fill="#dddddd"/>
<rect x="18" y="13" width="1" height="1" fill="#d7d7d7"/>
<rect x="19" y="13" width="2" height="1" fill="#cccccc"/>
<rect x="21" y="13" width="3" height="1" fill="#c0c0c0"/>
<rect x="24" y="13" width="1" height="1" fill="#b2b2b2"/>
<rect x="25" y="13" width="2" height="1" fill="#c0c0c0"/>
<rect x="27" y="13" width="1" height="1" fill="#b2b2b2"/>
<rect x="28" y="13" width="1" height="1" fill="#a0a0a4"/>
<rect x="29" y="13" width="3" height="1" fill="#040404"/>
<rect x="32" y="13" width="1" height="1" fill="#c0c0c0"/>
<rect x="33" y="13" width="1" height="1" fill="#b2b2b2"/>
<rect x="34" y="13" width="1" height="1" fill="#c0c0c0"/>
<rect x="35" y="13" width="1" height="1" fill="#b2b2b2"/>
<rect x="36" y="13" width="2" height="1" fill="#c0c0c0"/>
<rect x="39" y="13" width="1" height="1" fill="#868686"/>
<rect x="40" y="13" width="1" height="1" fill="#b2b2b2"/>
<rect x="41" y="13" width="1" height="1" fill="#a0a0a4"/>
<rect x="43" y="13" width="1" height="2" fill="#868686"/>
<rect x="44" y="13" width="1" height="2" fill="#040404"/>
<rect x="5" y="14" width="1" height="1" fill="#a0a0a4"/>
<rect x="6" y="14" width="5" height="1" fill="#ffffff"/>
<rect x="11" y="14" width="1" height="1" fill="#f1f1f1"/>
<rect x="12" y="14" width="2" height="1" fill="#eaeaea"/>
<rect x="14" y="14" width="1" height="1" fill="#e3e3e3"/>
<rect x="15" y="14" width="2" height="1" fill="#dddddd"/>
<rect x="17" y="14" width="1" height="1" fill="#d7d7d7"/>
<rect x="18" y="14" width="3" height="1" fill="#cccccc"/>
<rect x="21" y="14" width="2" height="1" fill="#c0c0c0"/>
<rect x="23" y="14" width="6" height="1" fill="#b2b2b2"/>
<rect x="30" y="14" width="1" height="1" fill="#040404"/>
<rect x="31" y="14" width="1" height="1" fill="#868686"/>
<rect x="32" y="14" width="1" height="1" fill="#b2b2b2"/>
<rect x="33" y="14" width="1" height="1" fill="#c0c0c0"/>
<rect x="34" y="14" width="1" height="1" fill="#b2b2b2"/>
<rect x="35" y="14" width="1" height="1" fill="#c0c0c0"/>
<rect x="36" y="14" width="5" height="1" fill="#b2b2b2"/>
<rect x="41" y="14" width="2" height="1" fill="#a0a0a4"/>
<rect x="29" y="14" width="1" height="2" fill="#868686"/>
<rect x="4" y="15" width="1" height="1" fill="#969696"/>
<rect x="5" y="15" width="5" height="1" fill="#ffffff"/>
<rect x="10" y="15" width="1" height="1" fill="#f1f1f1"/>
<rect x="11" y="15" width="2" height="1" fill="#eaeaea"/>
<rect x="13" y="15" width="1" height="1" fill="#e3e3e3"/>
<rect x="14" y="15" width="2" height="1" fill="#dddddd"/>
<rect x="16" y="15" width="1" height="1" fill="#d7d7d7"/>
<rect x="17" y="15" width="2" height="1" fill="#cccccc"/>
<rect x="19" y="15" width="2" height="1" fill="#c0c0c0"/>
<rect x="21" y="15" width="1" height="1" fill="#cccccc"/>
<rect x="22" y="15" width="1" height="1" fill="#a0a0a4"/>
<rect x="23" y="15" width="1" height="1" fill="#b2b2b2"/>
<rect x="24" y="15" width="1" height="1" fill="#a0a0a4"/>
<rect x="25" y="15" width="1" height="1" fill="#b2b2b2"/>
<rect x="26" y="15" width="1" height="1" fill="#a0a0a4"/>
<rect x="27" y="15" width="1" height="1" fill="#b2b2b2"/>
<rect x="28" y="15" width="1" height="1" fill="#a0a0a4"/>
<rect x="30" y="15" width="1" height="1" fill="#777777"/>
<rect x="31" y="15" width="1" height="1" fill="#b2b2b2"/>
<rect x="32" y="15" width="3" height="1" fill="#c0c0c0"/>
<rect x="35" y="15" width="4" height="1" fill="#b2b2b2"/>
<rect x="39" y="15" width="4" height="1" fill="#a0a0a4"/>
<rect x="43" y="15" width="2" height="1" fill="#868686"/>
<rect x="45" y="15" width="1" height="1" fill="#040404"/>
<rect x="3" y="16" width="1" height="1" fill="#868686"/>
<rect x="4" y="16" width="5" height="1" fill="#ffffff"/>
<rect x="9" y="16" width="1" height="1" fill="#f1f1f1"/>
<rect x="10" y="16" width="1" height="1" fill="#eaeaea"/>
<rect x="11" y="16" width="2" height="1" fill="#e3e3e3"/>
<rect x="13" y="16" width="2" height="1" fill="#dddddd"/>
<rect x="15" y="16" width="1" height="1" fill="#d7d7d7"/>
<rect x="16" y="16" width="2" height="1" fill="#cccccc"/>
<rect x="18" y="16" width="1" height="1" fill="#c0c0c0"/>
<rect x="19" y="16" width="2" height="1" fill="#cccccc"/>
<rect x="21" y="16" width="1" height="1" fill="#a0a0a4"/>
<rect x="22" y="16" width="5" height="1" fill="#040404"/>
<rect x="27" y="16" width="3" height="1" fill="#868686"/>
<rect x="30" y="16" width="1" height="1" fill="#040404"/>
<rect x="31" y="16" width="2" height="1" fill="#c0c0c0"/>
<rect x="33" y="16" width="4" height="1" fill="#b2b2b2"/>
<rect x="37" y="16" width="1" height="1" fill="#a0a0a4"/>
<rect x="38" y="16" width="1" height="1" fill="#b2b2b2"/>
<rect x="39" y="16" width="3" height="1" fill="#a0a0a4"/>
<rect x="42" y="16" width="1" height="1" fill="#999999"/>
<rect x="43" y="16" width="1" height="1" fill="#868686"/>
<rect x="44" y="16" width="1" height="1" fill="#777777"/>
<rect x="45" y="16" width="1" height="1" fill="#868686"/>
<rect x="46" y="16" width="1" height="2" fill="#040404"/>
<rect x="3" y="17" width="1" height="1" fill="#999999"/>
<rect x="4" y="17" width="4" height="1" fill="#ffffff"/>
<rect x="8" y="17" width="1" height="1" fill="#f1f1f1"/>
<rect x="9" y="17" width="2" height="1" fill="#eaeaea"/>
<rect x="11" y="17" width="1" height="1" fill="#e3e3e3"/>
<rect x="12" y="17" width="2" height="1" fill="#dddddd"/>
<rect x="14" y="17" width="1" height="1" fill="#d7d7d7"/>
<rect x="15" y="17" width="2" height="1" fill="#cccccc"/>
<rect x="17" y="17" width="1" height="1" fill="#c0c0c0"/>
<rect x="18" y="17" width="1" height="1" fill="#cccccc"/>
<rect x="19" y="17" width="1" height="1" fill="#c0c0c0"/>
<rect x="20" y="17" width="1" height="1" fill="#868686"/>
<rect x="21" y="17" width="1" height="1" fill="#040404"/>
<rect x="22" y="17" width="1" height="1" fill="#ffffff"/>
<rect x="23" y="17" width="1" height="1" fill="#f1f1f1"/>
<rect x="24" y="17" width="1" height="1" fill="#fffbf0"/>
<rect x="25" y="17" width="1" height="1" fill="#f1f1f1"/>
<rect x="27" y="17" width="1" height="1" fill="#868686"/>
<rect x="28" y="17" width="1" height="1" fill="#777777"/>
<rect x="29" y="17" width="1" height="1" fill="#040404"/>
<rect x="30" y="17" width="1" height="1" fill="#c0c0c0"/>
<rect x="31" y="17" width="6" height="1" fill="#b2b2b2"/>
<rect x="37" y="17" width="4" height="1" fill="#a0a0a4"/>
<rect x="41" y="17" width="2" height="1" fill="#999999"/>
<rect x="43" y="17" width="1" height="1" fill="#777777"/>
<rect x="44" y="17" width="2" height="1" fill="#868686"/>
<rect x="26" y="17" width="1" height="2" fill="#cccccc"/>
<rect x="3" y="18" width="4" height="1" fill="#ffffff"/>
<rect x="7" y="18" width="1" height="1" fill="#f1f1f1"/>
<rect x="8" y="18" width="2" height="1" fill="#eaeaea"/>
<rect x="10" y="18" width="1" height="1" fill="#e3e3e3"/>
<rect x="11" y="18" width="2" height="1" fill="#dddddd"/>
<rect x="13" y="18" width="1" height="1" fill="#d7d7d7"/>
<rect x="14" y="18" width="3" height="1" fill="#cccccc"/>
<rect x="17" y="18" width="2" height="1" fill="#c0c0c0"/>
<rect x="19" y="18" width="1" height="1" fill="#868686"/>
<rect x="20" y="18" width="1" height="1" fill="#040404"/>
<rect x="21" y="18" width="3" height="1" fill="#ffffff"/>
<rect x="24" y="18" width="2" height="1" fill="#f1f1f1"/>
<rect x="27" y="18" width="1" height="1" fill="#777777"/>
<rect x="28" y="18" width="2" height="1" fill="#868686"/>
<rect x="30" y="18" width="4" height="1" fill="#b2b2b2"/>
<rect x="34" y="18" width="5" height="1" fill="#a0a0a4"/>
<rect x="39" y="18" width="2" height="1" fill="#999999"/>
<rect x="41" y="18" width="2" height="1" fill="#969696"/>
<rect x="43" y="18" width="3" height="1" fill="#040404"/>
<rect x="2" y="18" width="1" height="2" fill="#868686"/>
<rect x="3" y="19" width="3" height="1" fill="#ffffff"/>
<rect x="6" y="19" width="1" height="1" fill="#f1f1f1"/>
<rect x="7" y="19" width="2" height="1" fill="#eaeaea"/>
<rect x="9" y="19" width="1" height="1" fill="#e3e3e3"/>
<rect x="10" y="19" width="2" height="1" fill="#dddddd"/>
<rect x="12" y="19" width="1" height="1" fill="#d7d7d7"/>
<rect x="13" y="19" width="2" height="1" fill="#cccccc"/>
<rect x="15" y="19" width="3" height="1" fill="#c0c0c0"/>
<rect x="18" y="19" width="1" height="1" fill="#868686"/>
<rect x="19" y="19" width="1" height="1" fill="#040404"/>
<rect x="20" y="19" width="1" height="1" fill="#ffffff"/>
<rect x="21" y="19" width="1" height="1" fill="#f1f1f1"/>
<rect x="22" y="19" width="1" height="1" fill="#fffbf0"/>
<rect x="23" y="19" width="3" height="1" fill="#f1f1f1"/>
<rect x="28" y="19" width="1" height="1" fill="#777777"/>
<rect x="29" y="19" width="1" height="1" fill="#040404"/>
<rect x="30" y="19" width="3" height="1" fill="#b2b2b2"/>
<rect x="33" y="19" width="1" height="1" fill="#a0a0a4"/>
<rect x="34" y="19" width="1" height="1" fill="#b2b2b2"/>
<rect x="35" y="19" width="3" height="1" fill="#a0a0a4"/>
<rect x="38" y="19" width="2" height="1" fill="#999999"/>
<rect x="40" y="19" width="1" height="1" fill="#969696"/>
<rect x="41" y="19" width="2" height="1" fill="#868686"/>
<rect x="26" y="19" width="1" height="2" fill="#040404"/>
<rect x="27" y="19" width="1" height="2" fill="#868686"/>
<rect x="4" y="20" width="2" height="1" fill="#f1f1f1"/>
<rect x="6" y="20" width="2" height="1" fill="#eaeaea"/>
<rect x="8" y="20" width="1" height="1" fill="#e3e3e3"/>
<rect x="9" y="20" width="1" height="1" fill="#dddddd"/>
<rect x="12" y="20" width="3" height="1" fill="#cccccc"/>
<rect x="15" y="20" width="2" height="1" fill="#c0c0c0"/>
<rect x="17" y="20" width="1" height="1" fill="#868686"/>
<rect x="18" y="20" width="1" height="1" fill="#040404"/>
<rect x="19" y="20" width="3" height="1" fill="#ffffff"/>
<rect x="22" y="20" width="4" height="1" fill="#f1f1f1"/>
<rect x="28" y="20" width="1" height="1" fill="#040404"/>
<rect x="29" y="20" width="1" height="1" fill="#868686"/>
<rect x="30" y="20" width="1" height="1" fill="#040404"/>
<rect x="31" y="20" width="1" height="1" fill="#b2b2b2"/>
<rect x="32" y="20" width="4" height="1" fill="#a0a0a4"/>
<rect x="36" y="20" width="1" height="1" fill="#999999"/>
<rect x="37" y="20" width="3" height="1" fill="#969696"/>
<rect x="40" y="20" width="3" height="1" fill="#868686"/>
<rect x="2" y="20" width="2" height="2" fill="#ffffff"/>
<rect x="10" y="20" width="2" height="2" fill="#d7d7d7"/>
<rect x="4" y="21" width="1" height="1" fill="#f1f1f1"/>
<rect x="5" y="21" width="2" height="1" fill="#eaeaea"/>
<rect x="7" y="21" width="1" height="1" fill="#e3e3e3"/>
<rect x="8" y="21" width="2" height="1" fill="#dddddd"/>
<rect x="12" y="21" width="1" height="1" fill="#cccccc"/>
<rect x="13" y="21" width="3" height="1" fill="#c0c0c0"/>
<rect x="16" y="21" width="1" height="1" fill="#868686"/>
<rect x="17" y="21" width="1" height="1" fill="#040404"/>
<rect x="18" y="21" width="1" height="1" fill="#fffbf0"/>
<rect x="19" y="21" width="1" height="1" fill="#ffffff"/>
<rect x="20" y="21" width="1" height="1" fill="#f1f1f1"/>
<rect x="22" y="21" width="6" height="1" fill="#040404"/>
<rect x="28" y="21" width="1" height="1" fill="#777777"/>
<rect x="29" y="21" width="1" height="1" fill="#040404"/>
<rect x="30" y="21" width="1" height="1" fill="#868686"/>
<rect x="31" y="21" width="1" height="1" fill="#040404"/>
<rect x="32" y="21" width="2" height="1" fill="#a0a0a4"/>
<rect x="34" y="21" width="2" height="1" fill="#999999"/>
<rect x="36" y="21" width="2" height="1" fill="#969696"/>
<rect x="38" y="21" width="4" height="1" fill="#868686"/>
<rect x="42" y="21" width="1" height="2" fill="#777777"/>
<rect x="2" y="22" width="2" height="1" fill="#f1f1f1"/>
<rect x="4" y="22" width="2" height="1" fill="#eaeaea"/>
<rect x="6" y="22" width="1" height="1" fill="#e3e3e3"/>
<rect x="7" y="22" width="2" height="1" fill="#dddddd"/>
<rect x="9" y="22" width="1" height="1" fill="#d7d7d7"/>
<rect x="10" y="22" width="2" height="1" fill="#cccccc"/>
<rect x="12" y="22" width="3" height="1" fill="#c0c0c0"/>
<rect x="15" y="22" width="1" height="1" fill="#868686"/>
<rect x="16" y="22" width="1" height="1" fill="#040404"/>
<rect x="17" y="22" width="1" height="1" fill="#ffffff"/>
<rect x="18" y="22" width="3" height="1" fill="#f1f1f1"/>
<rect x="22" y="22" width="2" height="1" fill="#0000ff"/>
<rect x="24" y="22" width="1" height="1" fill="#f1f1f1"/>
<rect x="25" y="22" width="1" height="1" fill="#eaeaea"/>
<rect x="27" y="22" width="2" height="1" fill="#040404"/>
<rect x="29" y="22" width="1" height="1" fill="#868686"/>
<rect x="30" y="22" width="1" height="1" fill="#040404"/>
<rect x="31" y="22" width="2" height="1" fill="#a0a0a4"/>
<rect x="33" y="22" width="2" height="1" fill="#999999"/>
<rect x="35" y="22" width="2" height="1" fill="#969696"/>
<rect x="37" y="22" width="5" height="1" fill="#868686"/>
<rect x="43" y="19" width="1" height="5" fill="#040404"/>
<rect x="21" y="21" width="1" height="3" fill="#c0c0c0"/>
<rect x="2" y="23" width="1" height="1" fill="#f1f1f1"/>
<rect x="3" y="23" width="2" height="1" fill="#eaeaea"/>
<rect x="5" y="23" width="1" height="1" fill="#e3e3e3"/>
<rect x="6" y="23" width="2" height="1" fill="#dddddd"/>
<rect x="8" y="23" width="1" height="1" fill="#d7d7d7"/>
<rect x="9" y="23" width="2" height="1" fill="#cccccc"/>
<rect x="11" y="23" width="2" height="1" fill="#c0c0c0"/>
<rect x="13" y="23" width="1" height="1" fill="#868686"/>
<rect x="14" y="23" width="2" height="1" fill="#040404"/>
<rect x="16" y="23" width="3" height="1" fill="#ffffff"/>
<rect x="19" y="23" width="2" height="1" fill="#f1f1f1"/>
<rect x="22" y="23" width="1" height="1" fill="#0000ff"/>
<rect x="23" y="23" width="1" height="1" fill="#868686"/>
<rect x="24" y="23" width="1" height="1" fill="#eaeaea"/>
<rect x="25" y="23" width="1" height="1" fill="#f1f1f1"/>
<rect x="27" y="23" width="1" height="1" fill="#040404"/>
<rect x="28" y="23" width="1" height="1" fill="#868686"/>
<rect x="29" y="23" width="1" height="1" fill="#040404"/>
<rect x="30" y="23" width="3" height="1" fill="#999999"/>
<rect x="33" y="23" width="3" height="1" fill="#969696"/>
<rect x="36" y="23" width="5" height="1" fill="#868686"/>
<rect x="41" y="23" width="2" height="1" fill="#777777"/>
<rect x="1" y="20" width="1" height="5" fill="#868686"/>
<rect x="26" y="22" width="1" height="3" fill="#c0c0c0"/>
<rect x="3" y="24" width="2" height="1" fill="#e3e3e3"/>
<rect x="5" y="24" width="1" height="1" fill="#dddddd"/>
<rect x="8" y="24" width="3" height="1" fill="#cccccc"/>
<rect x="11" y="24" width="1" height="1" fill="#c0c0c0"/>
<rect x="12" y="24" width="1" height="1" fill="#868686"/>
<rect x="13" y="24" width="1" height="1" fill="#040404"/>
<rect x="14" y="24" width="3" height="1" fill="#ffffff"/>
<rect x="17" y="24" width="1" height="1" fill="#f1f1f1"/>
<rect x="18" y="24" width="1" height="1" fill="#ffffff"/>
<rect x="19" y="24" width="4" height="1" fill="#f1f1f1"/>
<rect x="23" y="24" width="3" height="1" fill="#eaeaea"/>
<rect x="27" y="24" width="2" height="1" fill="#040404"/>
<rect x="29" y="24" width="2" height="1" fill="#999999"/>
<rect x="31" y="24" width="3" height="1" fill="#969696"/>
<rect x="34" y="24" width="4" height="1" fill="#868686"/>
<rect x="38" y="24" width="3" height="1" fill="#777777"/>
<rect x="41" y="24" width="2" height="1" fill="#040404"/>
<rect x="2" y="24" width="1" height="2" fill="#eaeaea"/>
<rect x="6" y="24" width="2" height="2" fill="#d7d7d7"/>
<rect x="1" y="25" width="1" height="1" fill="#777777"/>
<rect x="3" y="25" width="1" height="1" fill="#e3e3e3"/>
<rect x="4" y="25" width="2" height="1" fill="#dddddd"/>
<rect x="8" y="25" width="1" height="1" fill="#cccccc"/>
<rect x="9" y="25" width="2" height="1" fill="#c0c0c0"/>
<rect x="11" y="25" width="1" height="1" fill="#868686"/>
<rect x="12" y="25" width="1" height="1" fill="#040404"/>
<rect x="13" y="25" width="3" height="1" fill="#ffffff"/>
<rect x="16" y="25" width="1" height="1" fill="#f1f1f1"/>
<rect x="17" y="25" width="1" height="1" fill="#ffffff"/>
<rect x="18" y="25" width="4" height="1" fill="#f1f1f1"/>
<rect x="22" y="25" width="1" height="1" fill="#eaeaea"/>
<rect x="23" y="25" width="1" height="1" fill="#f1f1f1"/>
<rect x="24" y="25" width="2" height="1" fill="#eaeaea"/>
<rect x="26" y="25" width="2" height="1" fill="#c0c0c0"/>
<rect x="28" y="25" width="1" height="1" fill="#040404"/>
<rect x="29" y="25" width="1" height="1" fill="#999999"/>
<rect x="30" y="25" width="2" height="1" fill="#969696"/>
<rect x="32" y="25" width="9" height="1" fill="#040404"/>
<rect x="2" y="26" width="1" height="1" fill="#e3e3e3"/>
<rect x="3" y="26" width="2" height="1" fill="#dddddd"/>
<rect x="5" y="26" width="1" height="1" fill="#d7d7d7"/>
<rect x="6" y="26" width="2" height="1" fill="#cccccc"/>
<rect x="8" y="26" width="3" height="1" fill="#c0c0c0"/>
<rect x="15" y="26" width="1" height="1" fill="#f1f1f1"/>
<rect x="16" y="26" width="1" height="1" fill="#ffffff"/>
<rect x="17" y="26" width="6" height="1" fill="#f1f1f1"/>
<rect x="23" y="26" width="3" height="1" fill="#eaeaea"/>
<rect x="26" y="26" width="1" height="1" fill="#cccccc"/>
<rect x="27" y="26" width="2" height="1" fill="#c0c0c0"/>
<rect x="30" y="26" width="6" height="1" fill="#868686"/>
<rect x="36" y="26" width="1" height="1" fill="#777777"/>
<rect x="12" y="26" width="3" height="2" fill="#ffffff"/>
<rect x="29" y="26" width="1" height="2" fill="#040404"/>
<rect x="2" y="27" width="2" height="1" fill="#dddddd"/>
<rect x="4" y="27" width="1" height="1" fill="#d7d7d7"/>
<rect x="5" y="27" width="2" height="1" fill="#cccccc"/>
<rect x="7" y="27" width="3" height="1" fill="#c0c0c0"/>
<rect x="10" y="27" width="1" height="1" fill="#868686"/>
<rect x="15" y="27" width="1" height="1" fill="#fffbf0"/>
<rect x="16" y="27" width="5" height="1" fill="#f1f1f1"/>
<rect x="21" y="27" width="5" height="1" fill="#eaeaea"/>
<rect x="26" y="27" width="1" height="1" fill="#868686"/>
<rect x="27" y="27" width="1" height="1" fill="#777777"/>
<rect x="28" y="27" width="1" height="1" fill="#868686"/>
<rect x="30" y="27" width="3" height="1" fill="#868686"/>
<rect x="33" y="27" width="1" height="1" fill="#777777"/>
<rect x="34" y="27" width="1" height="1" fill="#868686"/>
<rect x="35" y="27" width="1" height="1" fill="#777777"/>
<rect x="36" y="27" width="1" height="1" fill="#868686"/>
<rect x="1" y="26" width="1" height="3" fill="#868686"/>
<rect x="11" y="26" width="1" height="3" fill="#040404"/>
<rect x="2" y="28" width="2" height="1" fill="#d7d7d7"/>
<rect x="4" y="28" width="3" height="1" fill="#cccccc"/>
<rect x="7" y="28" width="2" height="1" fill="#c0c0c0"/>
<rect x="9" y="28" width="1" height="1" fill="#868686"/>
<rect x="10" y="28" width="1" height="1" fill="#b2b2b2"/>
<rect x="12" y="28" width="2" height="1" fill="#ffffff"/>
<rect x="14" y="28" width="5" height="1" fill="#f1f1f1"/>
<rect x="19" y="28" width="1" height="1" fill="#eaeaea"/>
<rect x="20" y="28" width="1" height="1" fill="#f1f1f1"/>
<rect x="21" y="28" width="4" height="1" fill="#eaeaea"/>
<rect x="25" y="28" width="1" height="1" fill="#e3e3e3"/>
<rect x="26" y="28" width="3" height="1" fill="#040404"/>
<rect x="29" y="28" width="2" height="1" fill="#868686"/>
<rect x="31" y="28" width="1" height="1" fill="#777777"/>
<rect x="32" y="28" width="2" height="1" fill="#868686"/>
<rect x="34" y="28" width="1" height="1" fill="#777777"/>
<rect x="35" y="28" width="2" height="1" fill="#868686"/>
<rect x="1" y="29" width="1" height="1" fill="#777777"/>
<rect x="3" y="29" width="2" height="1" fill="#cccccc"/>
<rect x="5" y="29" width="3" height="1" fill="#c0c0c0"/>
<rect x="8" y="29" width="1" height="1" fill="#868686"/>
<rect x="9" y="29" width="1" height="1" fill="#b2b2b2"/>
<rect x="10" y="29" width="2" height="1" fill="#868686"/>
<rect x="12" y="29" width="1" height="1" fill="#040404"/>
<rect x="13" y="29" width="1" height="1" fill="#ffffff"/>
<rect x="14" y="29" width="6" height="1" fill="#f1f1f1"/>
<rect x="20" y="29" width="5" height="1" fill="#eaeaea"/>
<rect x="25" y="29" width="1" height="1" fill="#cccccc"/>
<rect x="27" y="29" width="6" height="1" fill="#868686"/>
<rect x="33" y="29" width="1" height="1" fill="#777777"/>
<rect x="34" y="29" width="2" height="1" fill="#868686"/>
<rect x="38" y="29" width="2" height="1" fill="#008000"/>
<rect x="2" y="29" width="1" height="2" fill="#d7d7d7"/>
<rect x="36" y="29" width="1" height="2" fill="#777777"/>
<rect x="1" y="30" width="1" height="1" fill="#868686"/>
<rect x="4" y="30" width="3" height="1" fill="#c0c0c0"/>
<rect x="7" y="30" width="2" height="1" fill="#b2b2b2"/>
<rect x="9" y="30" width="1" height="1" fill="#868686"/>
<rect x="10" y="30" width="1" height="1" fill="#b2b2b2"/>
<rect x="11" y="30" width="2" height="1" fill="#868686"/>
<rect x="13" y="30" width="1" height="1" fill="#040404"/>
<rect x="14" y="30" width="4" height="1" fill="#f1f1f1"/>
<rect x="18" y="30" width="6" height="1" fill="#eaeaea"/>
<rect x="24" y="30" width="1" height="1" fill="#e3e3e3"/>
<rect x="27" y="30" width="1" height="1" fill="#868686"/>
<rect x="28" y="30" width="1" height="1" fill="#777777"/>
<rect x="29" y="30" width="1" height="1" fill="#868686"/>
<rect x="30" y="30" width="2" height="1" fill="#777777"/>
<rect x="32" y="30" width="2" height="1" fill="#868686"/>
<rect x="34" y="30" width="1" height="1" fill="#777777"/>
<rect x="35" y="30" width="1" height="1" fill="#868686"/>
<rect x="39" y="30" width="1" height="1" fill="#009900"/>
<rect x="40" y="30" width="1" height="1" fill="#008000"/>
<rect x="3" y="30" width="1" height="2" fill="#cccccc"/>
<rect x="4" y="31" width="2" height="1" fill="#c0c0c0"/>
<rect x="6" y="31" width="2" height="1" fill="#b2b2b2"/>
<rect x="8" y="31" width="1" height="1" fill="#868686"/>
<rect x="9" y="31" width="1" height="1" fill="#b2b2b2"/>
<rect x="10" y="31" width="1" height="1" fill="#868686"/>
<rect x="11" y="31" width="1" height="1" fill="#a0a0a4"/>
<rect x="12" y="31" width="1" height="1" fill="#969696"/>
<rect x="13" y="31" width="1" height="1" fill="#868686"/>
<rect x="14" y="31" width="1" height="1" fill="#040404"/>
<rect x="15" y="31" width="3" height="1" fill="#f1f1f1"/>
<rect x="23" y="31" width="1" height="1" fill="#e3e3e3"/>
<rect x="24" y="31" width="1" height="1" fill="#eaeaea"/>
<rect x="27" y="31" width="2" height="1" fill="#868686"/>
<rect x="29" y="31" width="1" height="1" fill="#777777"/>
<rect x="30" y="31" width="2" height="1" fill="#868686"/>
<rect x="33" y="31" width="2" height="1" fill="#868686"/>
<rect x="35" y="31" width="1" height="1" fill="#777777"/>
<rect x="36" y="31" width="1" height="1" fill="#868686"/>
<rect x="39" y="31" width="1" height="1" fill="#00ff00"/>
<rect x="40" y="31" width="1" height="1" fill="#009900"/>
<rect x="41" y="31" width="2" height="1" fill="#008000"/>
<rect x="37" y="26" width="1" height="7" fill="#040404"/>
<rect x="38" y="30" width="1" height="3" fill="#008000"/>
<rect x="2" y="31" width="1" height="2" fill="#868686"/>
<rect x="18" y="31" width="5" height="2" fill="#eaeaea"/>
<rect x="32" y="31" width="1" height="2" fill="#777777"/>
<rect x="3" y="32" width="2" height="1" fill="#c0c0c0"/>
<rect x="7" y="32" width="1" height="1" fill="#969696"/>
<rect x="8" y="32" width="1" height="1" fill="#a0a0a4"/>
<rect x="9" y="32" width="1" height="1" fill="#868686"/>
<rect x="10" y="32" width="1" height="1" fill="#a0a0a4"/>
<rect x="11" y="32" width="2" height="1" fill="#868686"/>
<rect x="13" y="32" width="1" height="1" fill="#777777"/>
<rect x="14" y="32" width="2" height="1" fill="#040404"/>
<rect x="16" y="32" width="1" height="1" fill="#eaeaea"/>
<rect x="17" y="32" width="1" height="1" fill="#f1f1f1"/>
<rect x="23" y="32" width="2" height="1" fill="#e3e3e3"/>
<rect x="27" y="32" width="2" height="1" fill="#008000"/>
<rect x="29" y="32" width="1" height="1" fill="#868686"/>
<rect x="30" y="32" width="1" height="1" fill="#777777"/>
<rect x="31" y="32" width="1" height="1" fill="#868686"/>
<rect x="33" y="32" width="1" height="1" fill="#868686"/>
<rect x="34" y="32" width="1" height="1" fill="#777777"/>
<rect x="35" y="32" width="2" height="1" fill="#868686"/>
<rect x="39" y="32" width="3" height="1" fill="#00ff00"/>
<rect x="42" y="32" width="1" height="1" fill="#009900"/>
<rect x="43" y="32" width="1" height="1" fill="#008000"/>
<rect x="26" y="29" width="1" height="5" fill="#040404"/>
<rect x="25" y="30" width="1" height="4" fill="#c0c0c0"/>
<rect x="5" y="32" width="2" height="2" fill="#b2b2b2"/>
<rect x="3" y="33" width="1" height="1" fill="#868686"/>
<rect x="4" y="33" width="1" height="1" fill="#c0c0c0"/>
<rect x="7" y="33" width="1" height="1" fill="#a0a0a4"/>
<rect x="8" y="33" width="1" height="1" fill="#868686"/>
<rect x="9" y="33" width="1" height="1" fill="#a0a0a4"/>
<rect x="10" y="33" width="1" height="1" fill="#868686"/>
<rect x="11" y="33" width="1" height="1" fill="#a0a0a4"/>
<rect x="12" y="33" width="1" height="1" fill="#868686"/>
<rect x="13" y="33" width="1" height="1" fill="#040404"/>
<rect x="14" y="33" width="1" height="1" fill="#f1f1f1"/>
<rect x="15" y="33" width="1" height="1" fill="#eaeaea"/>
<rect x="16" y="33" width="1" height="1" fill="#f1f1f1"/>
<rect x="17" y="33" width="5" height="1" fill="#eaeaea"/>
<rect x="22" y="33" width="2" height="1" fill="#e3e3e3"/>
<rect x="24" y="33" width="1" height="1" fill="#cccccc"/>
<rect x="27" y="33" width="2" height="1" fill="#00ff00"/>
<rect x="29" y="33" width="6" height="1" fill="#008000"/>
<rect x="35" y="33" width="1" height="1" fill="#868686"/>
<rect x="36" y="33" width="2" height="1" fill="#008000"/>
<rect x="38" y="33" width="1" height="1" fill="#00ff00"/>
<rect x="39" y="33" width="1" height="1" fill="#00cc00"/>
<rect x="40" y="33" width="1" height="1" fill="#00ff00"/>
<rect x="41" y="33" width="1" height="1" fill="#00cc00"/>
<rect x="42" y="33" width="1" height="1" fill="#00ff00"/>
<rect x="43" y="33" width="1" height="1" fill="#009900"/>
<rect x="44" y="33" width="1" height="1" fill="#008000"/>
<rect x="6" y="34" width="1" height="1" fill="#a0a0a4"/>
<rect x="7" y="34" width="1" height="1" fill="#969696"/>
<rect x="8" y="34" width="1" height="1" fill="#a0a0a4"/>
<rect x="9" y="34" width="1" height="1" fill="#868686"/>
<rect x="10" y="34" width="1" height="1" fill="#a0a0a4"/>
<rect x="11" y="34" width="1" height="1" fill="#868686"/>
<rect x="12" y="34" width="1" height="1" fill="#040404"/>
<rect x="13" y="34" width="1" height="1" fill="#f1f1f1"/>
<rect x="14" y="34" width="1" height="1" fill="#eaeaea"/>
<rect x="15" y="34" width="1" height="1" fill="#f1f1f1"/>
<rect x="16" y="34" width="4" height="1" fill="#eaeaea"/>
<rect x="20" y="34" width="3" height="1" fill="#e3e3e3"/>
<rect x="23" y="34" width="1" height="1" fill="#cccccc"/>
<rect x="24" y="34" width="1" height="1" fill="#c0c0c0"/>
<rect x="25" y="34" width="1" height="1" fill="#040404"/>
<rect x="26" y="34" width="6" height="1" fill="#00ff00"/>
<rect x="32" y="34" width="1" height="1" fill="#00cc00"/>
<rect x="33" y="34" width="1" height="1" fill="#00ff00"/>
<rect x="34" y="34" width="4" height="1" fill="#008000"/>
<rect x="38" y="34" width="4" height="1" fill="#00cc00"/>
<rect x="42" y="34" width="1" height="1" fill="#009900"/>
<rect x="43" y="34" width="1" height="1" fill="#008000"/>
<rect x="4" y="34" width="1" height="2" fill="#868686"/>
<rect x="5" y="34" width="1" height="2" fill="#b2b2b2"/>
<rect x="6" y="35" width="1" height="1" fill="#868686"/>
<rect x="7" y="35" width="1" height="1" fill="#a0a0a4"/>
<rect x="8" y="35" width="1" height="1" fill="#868686"/>
<rect x="9" y="35" width="1" height="1" fill="#a0a0a4"/>
<rect x="10" y="35" width="1" height="1" fill="#868686"/>
<rect x="11" y="35" width="1" height="1" fill="#040404"/>
<rect x="12" y="35" width="2" height="1" fill="#f1f1f1"/>
<rect x="14" y="35" width="3" height="1" fill="#eaeaea"/>
<rect x="17" y="35" width="4" height="1" fill="#cccccc"/>
<rect x="21" y="35" width="3" height="1" fill="#c0c0c0"/>
<rect x="24" y="35" width="1" height="1" fill="#040404"/>
<rect x="25" y="35" width="1" height="1" fill="#00ff00"/>
<rect x="26" y="35" width="1" height="1" fill="#00cc00"/>
<rect x="27" y="35" width="1" height="1" fill="#00ff00"/>
<rect x="28" y="35" width="11" height="1" fill="#00cc00"/>
<rect x="39" y="35" width="1" height="1" fill="#009900"/>
<rect x="40" y="35" width="1" height="1" fill="#00cc00"/>
<rect x="41" y="35" width="1" height="1" fill="#009900"/>
<rect x="42" y="35" width="1" height="1" fill="#008000"/>
<rect x="5" y="36" width="1" height="1" fill="#868686"/>
<rect x="6" y="36" width="1" height="1" fill="#a0a0a4"/>
<rect x="7" y="36" width="1" height="1" fill="#868686"/>
<rect x="8" y="36" width="1" height="1" fill="#a0a0a4"/>
<rect x="9" y="36" width="1" height="1" fill="#868686"/>
<rect x="10" y="36" width="1" height="1" fill="#040404"/>
<rect x="11" y="36" width="1" height="1" fill="#f1f1f1"/>
<rect x="12" y="36" width="1" height="1" fill="#eaeaea"/>
<rect x="13" y="36" width="1" height="1" fill="#f1f1f1"/>
<rect x="14" y="36" width="1" height="1" fill="#eaeaea"/>
<rect x="15" y="36" width="9" height="1" fill="#040404"/>
<rect x="24" y="36" width="9" height="1" fill="#00cc00"/>
<rect x="33" y="36" width="7" height="1" fill="#009900"/>
<rect x="40" y="36" width="1" height="1" fill="#009933"/>
<rect x="41" y="36" width="1" height="1" fill="#008000"/>
<rect x="6" y="37" width="1" height="1" fill="#868686"/>
<rect x="7" y="37" width="1" height="1" fill="#a0a0a4"/>
<rect x="8" y="37" width="1" height="1" fill="#868686"/>
<rect x="13" y="37" width="3" height="1" fill="#eaeaea"/>
<rect x="16" y="37" width="2" height="1" fill="#c0c0c0"/>
<rect x="18" y="37" width="1" height="1" fill="#b2b2b2"/>
<rect x="21" y="37" width="2" height="1" fill="#008000"/>
<rect x="23" y="37" width="2" height="1" fill="#00cc00"/>
<rect x="25" y="37" width="1" height="1" fill="#009900"/>
<rect x="26" y="37" width="1" height="1" fill="#00cc00"/>
<rect x="27" y="37" width="2" height="1" fill="#009900"/>
<rect x="29" y="37" width="1" height="1" fill="#009933"/>
<rect x="30" y="37" width="2" height="1" fill="#009900"/>
<rect x="32" y="37" width="1" height="1" fill="#009933"/>
<rect x="33" y="37" width="1" height="1" fill="#009900"/>
<rect x="34" y="37" width="1" height="1" fill="#009933"/>
<rect x="35" y="37" width="1" height="1" fill="#009900"/>
<rect x="36" y="37" width="1" height="1" fill="#009933"/>
<rect x="37" y="37" width="1" height="1" fill="#008000"/>
<rect x="38" y="37" width="1" height="1" fill="#009933"/>
<rect x="39" y="37" width="2" height="1" fill="#008000"/>
<rect x="9" y="37" width="1" height="2" fill="#040404"/>
<rect x="10" y="37" width="1" height="2" fill="#f1f1f1"/>
<rect x="11" y="37" width="1" height="2" fill="#eaeaea"/>
<rect x="12" y="37" width="1" height="2" fill="#f1f1f1"/>
<rect x="7" y="38" width="2" height="1" fill="#868686"/>
<rect x="13" y="38" width="4" height="1" fill="#eaeaea"/>
<rect x="17" y="38" width="1" height="1" fill="#e3e3e3"/>
<rect x="21" y="38" width="2" height="1" fill="#000080"/>
<rect x="23" y="38" width="16" height="1" fill="#008000"/>
<rect x="18" y="38" width="1" height="2" fill="#c0c0c0"/>
<rect x="6" y="39" width="3" height="1" fill="#000080"/>
<rect x="9" y="39" width="1" height="1" fill="#f1f1f1"/>
<rect x="10" y="39" width="1" height="1" fill="#eaeaea"/>
<rect x="11" y="39" width="1" height="1" fill="#f1f1f1"/>
<rect x="12" y="39" width="4" height="1" fill="#eaeaea"/>
<rect x="16" y="39" width="1" height="1" fill="#e3e3e3"/>
<rect x="22" y="39" width="1" height="1" fill="#003399"/>
<rect x="23" y="39" width="1" height="1" fill="#000080"/>
<rect x="17" y="39" width="1" height="2" fill="#eaeaea"/>
<rect x="5" y="40" width="1" height="1" fill="#000080"/>
<rect x="6" y="40" width="1" height="1" fill="#33ccff"/>
<rect x="7" y="40" width="2" height="1" fill="#0099cc"/>
<rect x="9" y="40" width="2" height="1" fill="#000080"/>
<rect x="11" y="40" width="4" height="1" fill="#eaeaea"/>
<rect x="15" y="40" width="2" height="1" fill="#e3e3e3"/>
<rect x="18" y="40" width="1" height="1" fill="#b2b2b2"/>
<rect x="22" y="40" width="1" height="1" fill="#0099cc"/>
<rect x="23" y="40" width="1" height="1" fill="#003399"/>
<rect x="24" y="40" width="1" height="1" fill="#000080"/>
<rect x="19" y="37" width="1" height="5" fill="#868686"/>
<rect x="4" y="41" width="1" height="1" fill="#000080"/>
<rect x="5" y="41" width="1" height="1" fill="#66ccff"/>
<rect x="6" y="41" width="2" height="1" fill="#0099cc"/>
<rect x="8" y="41" width="1" height="1" fill="#0099ff"/>
<rect x="9" y="41" width="1" height="1" fill="#0099cc"/>
<rect x="10" y="41" width="2" height="1" fill="#000080"/>
<rect x="12" y="41" width="3" height="1" fill="#eaeaea"/>
<rect x="15" y="41" width="1" height="1" fill="#e3e3e3"/>
<rect x="16" y="41" width="1" height="1" fill="#eaeaea"/>
<rect x="17" y="41" width="1" height="1" fill="#e3e3e3"/>
<rect x="22" y="41" width="2" height="1" fill="#0099cc"/>
<rect x="24" y="41" width="1" height="1" fill="#003399"/>
<rect x="25" y="41" width="1" height="1" fill="#000080"/>
<rect x="20" y="37" width="1" height="6" fill="#040404"/>
<rect x="21" y="39" width="1" height="4" fill="#000080"/>
<rect x="3" y="42" width="1" height="1" fill="#000080"/>
<rect x="4" y="42" width="1" height="1" fill="#33ccff"/>
<rect x="5" y="42" width="2" height="1" fill="#0099cc"/>
<rect x="7" y="42" width="1" height="1" fill="#0099ff"/>
<rect x="8" y="42" width="4" height="1" fill="#0099cc"/>
<rect x="12" y="42" width="2" height="1" fill="#000080"/>
<rect x="14" y="42" width="4" height="1" fill="#e3e3e3"/>
<rect x="19" y="42" width="1" height="1" fill="#777777"/>
<rect x="22" y="42" width="1" height="1" fill="#0099cc"/>
<rect x="23" y="42" width="1" height="1" fill="#0099ff"/>
<rect x="24" y="42" width="1" height="1" fill="#0099cc"/>
<rect x="25" y="42" width="1" height="1" fill="#003399"/>
<rect x="26" y="42" width="1" height="1" fill="#000080"/>
<rect x="18" y="41" width="1" height="3" fill="#c0c0c0"/>
<rect x="3" y="43" width="1" height="1" fill="#6699ff"/>
<rect x="4" y="43" width="1" height="1" fill="#0099cc"/>
<rect x="6" y="43" width="4" height="1" fill="#0099cc"/>
<rect x="10" y="43" width="1" height="1" fill="#0066cc"/>
<rect x="12" y="43" width="1" height="1" fill="#0066cc"/>
<rect x="13" y="43" width="1" height="1" fill="#0099cc"/>
<rect x="14" y="43" width="2" height="1" fill="#000080"/>
<rect x="16" y="43" width="1" height="1" fill="#eaeaea"/>
<rect x="17" y="43" width="1" height="1" fill="#e3e3e3"/>
<rect x="19" y="43" width="1" height="1" fill="#868686"/>
<rect x="20" y="43" width="1" height="1" fill="#000080"/>
<rect x="21" y="43" width="5" height="1" fill="#0099cc"/>
<rect x="26" y="43" width="1" height="1" fill="#003399"/>
<rect x="27" y="43" width="1" height="1" fill="#000080"/>
<rect x="2" y="43" width="1" height="2" fill="#000080"/>
<rect x="5" y="43" width="1" height="2" fill="#0066cc"/>
<rect x="11" y="43" width="1" height="2" fill="#0099cc"/>
<rect x="3" y="44" width="1" height="1" fill="#3399cc"/>
<rect x="4" y="44" width="1" height="1" fill="#006699"/>
<rect x="6" y="44" width="1" height="1" fill="#006699"/>
<rect x="7" y="44" width="4" height="1" fill="#0066cc"/>
<rect x="12" y="44" width="3" height="1" fill="#0066cc"/>
<rect x="15" y="44" width="1" height="1" fill="#0099cc"/>
<rect x="16" y="44" width="5" height="1" fill="#000080"/>
<rect x="21" y="44" width="2" height="1" fill="#0066cc"/>
<rect x="23" y="44" width="1" height="1" fill="#006699"/>
<rect x="24" y="44" width="1" height="1" fill="#0066cc"/>
<rect x="25" y="44" width="1" height="1" fill="#003366"/>
<rect x="26" y="44" width="2" height="1" fill="#000080"/>
<rect x="1" y="45" width="1" height="1" fill="#000080"/>
<rect x="2" y="45" width="1" height="1" fill="#66cccc"/>
<rect x="3" y="45" width="5" height="1" fill="#0066cc"/>
<rect x="8" y="45" width="1" height="1" fill="#006699"/>
<rect x="9" y="45" width="1" height="1" fill="#0066cc"/>
<rect x="10" y="45" width="1" height="1" fill="#006699"/>
<rect x="11" y="45" width="1" height="1" fill="#0066cc"/>
<rect x="12" y="45" width="1" height="1" fill="#006699"/>
<rect x="13" y="45" width="1" height="1" fill="#0066cc"/>
<rect x="14" y="45" width="1" height="1" fill="#006699"/>
<rect x="15" y="45" width="1" height="1" fill="#0066cc"/>
<rect x="16" y="45" width="1" height="1" fill="#006699"/>
<rect x="17" y="45" width="1" height="1" fill="#0066cc"/>
<rect x="18" y="45" width="2" height="1" fill="#000080"/>
<rect x="20" y="45" width="1" height="1" fill="#006699"/>
<rect x="21" y="45" width="1" height="1" fill="#0066cc"/>
<rect x="22" y="45" width="1" height="1" fill="#006699"/>
<rect x="23" y="45" width="2" height="1" fill="#003399"/>
<rect x="25" y="45" width="2" height="1" fill="#000080"/>
<rect x="1" y="46" width="3" height="1" fill="#000080"/>
<rect x="4" y="46" width="19" height="1" fill="#003399"/>
<rect x="23" y="46" width="2" height="1" fill="#000080"/>
<rect x="3" y="47" width="20" height="1" fill="#000080"/>
</svg>
