<svg xmlns="http://www.w3.org/2000/svg" width="48" height="48" viewBox="0 0 48 48" shape-rendering="crispEdges">
<rect x="5" y="0" width="30" height="1" fill="#808080"/>
<rect x="34" y="1" width="1" height="1" fill="#808080"/>
<rect x="35" y="1" width="1" height="1" fill="#000000"/>
<rect x="34" y="2" width="2" height="1" fill="#808080"/>
<rect x="36" y="2" width="1" height="1" fill="#000000"/>
<rect x="35" y="3" width="1" height="1" fill="#c0c0c0"/>
<rect x="36" y="3" width="1" height="1" fill="#808080"/>
<rect x="37" y="3" width="1" height="1" fill="#000000"/>
<rect x="35" y="4" width="1" height="1" fill="#ffffff"/>
<rect x="36" y="4" width="1" height="1" fill="#c0c0c0"/>
<rect x="37" y="4" width="1" height="1" fill="#808080"/>
<rect x="38" y="4" width="1" height="1" fill="#000000"/>
<rect x="35" y="5" width="2" height="1" fill="#ffffff"/>
<rect x="37" y="5" width="1" height="1" fill="#c0c0c0"/>
<rect x="38" y="5" width="1" height="1" fill="#808080"/>
<rect x="39" y="5" width="1" height="1" fill="#000000"/>
<rect x="35" y="6" width="3" height="1" fill="#ffffff"/>
<rect x="38" y="6" width="1" height="1" fill="#c0c0c0"/>
<rect x="39" y="6" width="1" height="1" fill="#808080"/>
<rect x="40" y="6" width="1" height="1" fill="#000000"/>
<rect x="35" y="7" width="4" height="1" fill="#ffffff"/>
<rect x="39" y="7" width="1" height="1" fill="#c0c0c0"/>
<rect x="40" y="7" width="1" height="1" fill="#808080"/>
<rect x="41" y="7" width="1" height="1" fill="#000000"/>
<rect x="35" y="8" width="5" height="1" fill="#ffffff"/>
<rect x="40" y="8" width="1" height="1" fill="#c0c0c0"/>
<rect x="41" y="8" width="1" height="1" fill="#808080"/>
<rect x="42" y="8" width="1" height="1" fill="#000000"/>
<rect x="35" y="9" width="6" height="1" fill="#ffffff"/>
<rect x="41" y="9" width="1" height="1" fill="#c0c0c0"/>
<rect x="42" y="9" width="1" height="1" fill="#808080"/>
<rect x="43" y="9" width="1" height="1" fill="#000000"/>
<rect x="6" y="1" width="28" height="10" fill="#ffffff"/>
<rect x="34" y="3" width="1" height="8" fill="#808080"/>
<rect x="35" y="10" width="9" height="1" fill="#000000"/>
<rect x="6" y="11" width="36" height="5" fill="#ffffff"/>
<rect x="6" y="16" width="10" height="1" fill="#ffffff"/>
<rect x="16" y="16" width="2" height="1" fill="#000000"/>
<rect x="18" y="16" width="1" height="1" fill="#ffffff"/>
<rect x="19" y="16" width="1" height="1" fill="#c0c0c0"/>
<rect x="20" y="16" width="2" height="1" fill="#000000"/>
<rect x="22" y="16" width="3" height="1" fill="#ffffff"/>
<rect x="25" y="16" width="2" height="1" fill="#000000"/>
<rect x="27" y="16" width="15" height="1" fill="#ffffff"/>
<rect x="16" y="17" width="2" height="1" fill="#808080"/>
<rect x="18" y="17" width="1" height="1" fill="#000000"/>
<rect x="19" y="17" width="1" height="1" fill="#808080"/>
<rect x="20" y="17" width="1" height="1" fill="#ffffff"/>
<rect x="21" y="17" width="1" height="1" fill="#c0c0c0"/>
<rect x="22" y="17" width="1" height="1" fill="#000000"/>
<rect x="23" y="17" width="1" height="1" fill="#ffffff"/>
<rect x="24" y="17" width="1" height="1" fill="#000000"/>
<rect x="25" y="17" width="1" height="1" fill="#ffffff"/>
<rect x="26" y="17" width="1" height="1" fill="#c0c0c0"/>
<rect x="16" y="18" width="1" height="1" fill="#ffffff"/>
<rect x="17" y="18" width="1" height="1" fill="#c0c0c0"/>
<rect x="18" y="18" width="1" height="1" fill="#808080"/>
<rect x="19" y="18" width="1" height="1" fill="#ffffff"/>
<rect x="20" y="18" width="2" height="1" fill="#808080"/>
<rect x="22" y="18" width="2" height="1" fill="#000000"/>
<rect x="24" y="18" width="1" height="1" fill="#ffffff"/>
<rect x="25" y="18" width="1" height="1" fill="#c0c0c0"/>
<rect x="6" y="17" width="9" height="3" fill="#ffffff"/>
<rect x="15" y="17" width="1" height="3" fill="#000000"/>
<rect x="27" y="17" width="1" height="3" fill="#000000"/>
<rect x="28" y="17" width="14" height="3" fill="#ffffff"/>
<rect x="16" y="19" width="1" height="1" fill="#c0c0c0"/>
<rect x="17" y="19" width="1" height="1" fill="#ffffff"/>
<rect x="18" y="19" width="2" height="1" fill="#808080"/>
<rect x="22" y="19" width="1" height="1" fill="#000000"/>
<rect x="23" y="19" width="1" height="1" fill="#808080"/>
<rect x="24" y="19" width="1" height="1" fill="#c0c0c0"/>
<rect x="25" y="19" width="1" height="1" fill="#ffffff"/>
<rect x="26" y="18" width="1" height="3" fill="#808080"/>
<rect x="6" y="20" width="7" height="1" fill="#ffffff"/>
<rect x="13" y="20" width="3" height="1" fill="#000000"/>
<rect x="16" y="20" width="1" height="1" fill="#808080"/>
<rect x="17" y="20" width="1" height="1" fill="#c0c0c0"/>
<rect x="18" y="20" width="1" height="1" fill="#000000"/>
<rect x="22" y="20" width="2" height="1" fill="#000000"/>
<rect x="24" y="20" width="1" height="1" fill="#ffffff"/>
<rect x="25" y="20" width="1" height="1" fill="#c0c0c0"/>
<rect x="27" y="20" width="2" height="1" fill="#000000"/>
<rect x="29" y="20" width="13" height="1" fill="#ffffff"/>
<rect x="20" y="19" width="1" height="3" fill="#ffffff"/>
<rect x="21" y="19" width="1" height="3" fill="#808080"/>
<rect x="19" y="20" width="1" height="2" fill="#808080"/>
<rect x="13" y="21" width="1" height="1" fill="#ffffff"/>
<rect x="14" y="21" width="1" height="1" fill="#c0c0c0"/>
<rect x="15" y="21" width="1" height="1" fill="#ffffff"/>
<rect x="16" y="21" width="1" height="1" fill="#c0c0c0"/>
<rect x="17" y="21" width="1" height="1" fill="#000000"/>
<rect x="18" y="21" width="1" height="1" fill="#ffffff"/>
<rect x="22" y="21" width="1" height="1" fill="#000000"/>
<rect x="23" y="21" width="1" height="1" fill="#ffffff"/>
<rect x="24" y="21" width="1" height="1" fill="#000000"/>
<rect x="25" y="21" width="1" height="1" fill="#ffffff"/>
<rect x="26" y="21" width="1" height="1" fill="#c0c0c0"/>
<rect x="27" y="21" width="1" height="1" fill="#ffffff"/>
<rect x="28" y="21" width="1" height="1" fill="#c0c0c0"/>
<rect x="29" y="21" width="1" height="2" fill="#000000"/>
<rect x="30" y="21" width="12" height="2" fill="#ffffff"/>
<rect x="13" y="22" width="2" height="1" fill="#808080"/>
<rect x="15" y="22" width="1" height="1" fill="#000000"/>
<rect x="16" y="22" width="1" height="1" fill="#ffffff"/>
<rect x="17" y="22" width="1" height="1" fill="#c0c0c0"/>
<rect x="18" y="22" width="1" height="1" fill="#808080"/>
<rect x="19" y="22" width="4" height="1" fill="#000000"/>
<rect x="23" y="22" width="1" height="1" fill="#808080"/>
<rect x="24" y="22" width="1" height="1" fill="#ffffff"/>
<rect x="25" y="22" width="1" height="1" fill="#c0c0c0"/>
<rect x="26" y="22" width="1" height="1" fill="#000000"/>
<rect x="27" y="22" width="2" height="1" fill="#808080"/>
<rect x="12" y="21" width="1" height="3" fill="#000000"/>
<rect x="13" y="23" width="1" height="1" fill="#808080"/>
<rect x="14" y="23" width="1" height="1" fill="#000000"/>
<rect x="15" y="23" width="1" height="1" fill="#ffffff"/>
<rect x="16" y="23" width="1" height="1" fill="#c0c0c0"/>
<rect x="17" y="23" width="1" height="1" fill="#ffffff"/>
<rect x="18" y="23" width="1" height="1" fill="#c0c0c0"/>
<rect x="19" y="23" width="1" height="1" fill="#ffffff"/>
<rect x="20" y="23" width="1" height="1" fill="#c0c0c0"/>
<rect x="21" y="23" width="1" height="1" fill="#ffffff"/>
<rect x="22" y="23" width="1" height="1" fill="#c0c0c0"/>
<rect x="23" y="23" width="2" height="1" fill="#000000"/>
<rect x="25" y="23" width="1" height="1" fill="#ffffff"/>
<rect x="26" y="23" width="1" height="1" fill="#c0c0c0"/>
<rect x="27" y="23" width="2" height="1" fill="#000000"/>
<rect x="29" y="23" width="1" height="1" fill="#808080"/>
<rect x="30" y="23" width="2" height="1" fill="#ffffff"/>
<rect x="32" y="23" width="2" height="1" fill="#000000"/>
<rect x="34" y="23" width="8" height="1" fill="#ffffff"/>
<rect x="6" y="21" width="6" height="4" fill="#ffffff"/>
<rect x="12" y="24" width="2" height="1" fill="#000000"/>
<rect x="14" y="24" width="1" height="1" fill="#808080"/>
<rect x="15" y="24" width="1" height="1" fill="#c0c0c0"/>
<rect x="16" y="24" width="2" height="1" fill="#000000"/>
<rect x="18" y="24" width="1" height="1" fill="#808080"/>
<rect x="19" y="24" width="1" height="1" fill="#c0c0c0"/>
<rect x="20" y="24" width="1" height="1" fill="#ffffff"/>
<rect x="21" y="24" width="1" height="1" fill="#c0c0c0"/>
<rect x="23" y="24" width="2" height="1" fill="#808000"/>
<rect x="25" y="24" width="1" height="1" fill="#000000"/>
<rect x="26" y="24" width="1" height="1" fill="#808080"/>
<rect x="27" y="24" width="1" height="1" fill="#ffffff"/>
<rect x="28" y="24" width="1" height="1" fill="#808080"/>
<rect x="29" y="24" width="1" height="1" fill="#000000"/>
<rect x="30" y="24" width="1" height="1" fill="#ffffff"/>
<rect x="31" y="24" width="1" height="1" fill="#000000"/>
<rect x="32" y="24" width="1" height="1" fill="#ffffff"/>
<rect x="33" y="24" width="1" height="1" fill="#ffff00"/>
<rect x="16" y="25" width="4" height="1" fill="#808080"/>
<rect x="20" y="25" width="1" height="1" fill="#c0c0c0"/>
<rect x="21" y="25" width="1" height="1" fill="#ffffff"/>
<rect x="23" y="25" width="1" height="1" fill="#ffffff"/>
<rect x="24" y="25" width="1" height="1" fill="#ffff00"/>
<rect x="26" y="25" width="3" height="1" fill="#808080"/>
<rect x="29" y="25" width="2" height="1" fill="#000000"/>
<rect x="31" y="25" width="1" height="1" fill="#ffffff"/>
<rect x="32" y="25" width="1" height="1" fill="#ffff00"/>
<rect x="22" y="24" width="1" height="3" fill="#000000"/>
<rect x="34" y="24" width="1" height="3" fill="#000000"/>
<rect x="35" y="24" width="7" height="3" fill="#ffffff"/>
<rect x="25" y="25" width="1" height="2" fill="#808000"/>
<rect x="16" y="26" width="2" height="1" fill="#808080"/>
<rect x="18" y="26" width="1" height="1" fill="#000000"/>
<rect x="20" y="26" width="1" height="1" fill="#ffffff"/>
<rect x="21" y="26" width="1" height="1" fill="#c0c0c0"/>
<rect x="23" y="26" width="1" height="1" fill="#ffff00"/>
<rect x="24" y="26" width="1" height="1" fill="#ffffff"/>
<rect x="29" y="26" width="1" height="1" fill="#000000"/>
<rect x="30" y="26" width="1" height="1" fill="#808000"/>
<rect x="31" y="26" width="1" height="1" fill="#ffff00"/>
<rect x="32" y="26" width="1" height="1" fill="#ffffff"/>
<rect x="6" y="25" width="7" height="3" fill="#ffffff"/>
<rect x="13" y="25" width="1" height="3" fill="#808080"/>
<rect x="14" y="25" width="1" height="3" fill="#c0c0c0"/>
<rect x="15" y="25" width="1" height="3" fill="#000000"/>
<rect x="33" y="25" width="1" height="3" fill="#808000"/>
<rect x="19" y="26" width="1" height="2" fill="#808080"/>
<rect x="16" y="27" width="1" height="1" fill="#808080"/>
<rect x="17" y="27" width="1" height="1" fill="#000000"/>
<rect x="18" y="27" width="1" height="1" fill="#ffffff"/>
<rect x="20" y="27" width="3" height="1" fill="#000000"/>
<rect x="23" y="27" width="1" height="1" fill="#808000"/>
<rect x="24" y="27" width="1" height="1" fill="#ffff00"/>
<rect x="25" y="27" width="1" height="1" fill="#000000"/>
<rect x="29" y="27" width="2" height="1" fill="#000000"/>
<rect x="31" y="27" width="1" height="1" fill="#ffffff"/>
<rect x="32" y="27" width="1" height="1" fill="#ffff00"/>
<rect x="34" y="27" width="2" height="1" fill="#000000"/>
<rect x="36" y="27" width="6" height="1" fill="#ffffff"/>
<rect x="26" y="26" width="1" height="3" fill="#808080"/>
<rect x="27" y="26" width="1" height="3" fill="#ffffff"/>
<rect x="28" y="26" width="1" height="3" fill="#808080"/>
<rect x="6" y="28" width="8" height="1" fill="#ffffff"/>
<rect x="14" y="28" width="3" height="1" fill="#000000"/>
<rect x="17" y="28" width="2" height="1" fill="#ffffff"/>
<rect x="20" y="28" width="1" height="1" fill="#ffffff"/>
<rect x="21" y="28" width="1" height="1" fill="#ffff00"/>
<rect x="22" y="28" width="1" height="1" fill="#ffffff"/>
<rect x="23" y="28" width="1" height="1" fill="#ffff00"/>
<rect x="24" y="28" width="1" height="1" fill="#000000"/>
<rect x="25" y="28" width="1" height="1" fill="#ffffff"/>
<rect x="29" y="28" width="1" height="1" fill="#000000"/>
<rect x="30" y="28" width="1" height="1" fill="#ffffff"/>
<rect x="31" y="28" width="1" height="1" fill="#000000"/>
<rect x="32" y="28" width="1" height="1" fill="#ffffff"/>
<rect x="33" y="28" width="1" height="1" fill="#ffff00"/>
<rect x="34" y="28" width="1" height="1" fill="#ffffff"/>
<rect x="35" y="28" width="1" height="1" fill="#ffff00"/>
<rect x="20" y="29" width="2" height="1" fill="#808000"/>
<rect x="22" y="29" width="1" height="1" fill="#000000"/>
<rect x="23" y="29" width="1" height="1" fill="#ffffff"/>
<rect x="24" y="29" width="1" height="1" fill="#ffff00"/>
<rect x="25" y="29" width="1" height="1" fill="#808000"/>
<rect x="26" y="29" width="4" height="1" fill="#000000"/>
<rect x="30" y="29" width="1" height="1" fill="#808000"/>
<rect x="31" y="29" width="1" height="1" fill="#ffffff"/>
<rect x="32" y="29" width="1" height="1" fill="#ffff00"/>
<rect x="19" y="28" width="1" height="3" fill="#000000"/>
<rect x="36" y="28" width="1" height="3" fill="#000000"/>
<rect x="37" y="28" width="5" height="3" fill="#ffffff"/>
<rect x="33" y="29" width="1" height="2" fill="#000000"/>
<rect x="34" y="29" width="2" height="2" fill="#808000"/>
<rect x="20" y="30" width="1" height="1" fill="#808000"/>
<rect x="21" y="30" width="1" height="1" fill="#000000"/>
<rect x="22" y="30" width="1" height="1" fill="#ffffff"/>
<rect x="23" y="30" width="1" height="1" fill="#ffff00"/>
<rect x="24" y="30" width="1" height="1" fill="#ffffff"/>
<rect x="25" y="30" width="1" height="1" fill="#ffff00"/>
<rect x="26" y="30" width="1" height="1" fill="#ffffff"/>
<rect x="27" y="30" width="1" height="1" fill="#ffff00"/>
<rect x="28" y="30" width="1" height="1" fill="#ffffff"/>
<rect x="29" y="30" width="1" height="1" fill="#ffff00"/>
<rect x="30" y="30" width="1" height="1" fill="#ffffff"/>
<rect x="31" y="30" width="1" height="1" fill="#ffff00"/>
<rect x="32" y="30" width="1" height="1" fill="#ffffff"/>
<rect x="6" y="29" width="13" height="3" fill="#ffffff"/>
<rect x="19" y="31" width="2" height="1" fill="#000000"/>
<rect x="21" y="31" width="1" height="1" fill="#808000"/>
<rect x="22" y="31" width="1" height="1" fill="#ffff00"/>
<rect x="23" y="31" width="2" height="1" fill="#000000"/>
<rect x="25" y="31" width="1" height="1" fill="#808000"/>
<rect x="26" y="31" width="1" height="1" fill="#ffff00"/>
<rect x="27" y="31" width="1" height="1" fill="#ffffff"/>
<rect x="28" y="31" width="1" height="1" fill="#ffff00"/>
<rect x="29" y="31" width="1" height="1" fill="#ffffff"/>
<rect x="30" y="31" width="2" height="1" fill="#000000"/>
<rect x="32" y="31" width="1" height="1" fill="#ffff00"/>
<rect x="33" y="31" width="1" height="1" fill="#ffffff"/>
<rect x="34" y="31" width="2" height="1" fill="#000000"/>
<rect x="23" y="32" width="4" height="1" fill="#808000"/>
<rect x="27" y="32" width="1" height="1" fill="#ffff00"/>
<rect x="28" y="32" width="1" height="1" fill="#ffffff"/>
<rect x="29" y="32" width="1" height="1" fill="#000000"/>
<rect x="30" y="32" width="3" height="1" fill="#808000"/>
<rect x="33" y="32" width="1" height="1" fill="#ffff00"/>
<rect x="34" y="32" width="1" height="1" fill="#ffffff"/>
<rect x="23" y="33" width="2" height="1" fill="#808000"/>
<rect x="25" y="33" width="1" height="1" fill="#000000"/>
<rect x="27" y="33" width="1" height="1" fill="#ffffff"/>
<rect x="28" y="33" width="1" height="1" fill="#ffff00"/>
<rect x="29" y="33" width="3" height="1" fill="#000000"/>
<rect x="32" y="33" width="3" height="1" fill="#808000"/>
<rect x="36" y="31" width="6" height="4" fill="#ffffff"/>
<rect x="6" y="32" width="14" height="3" fill="#ffffff"/>
<rect x="20" y="32" width="1" height="3" fill="#808000"/>
<rect x="21" y="32" width="1" height="3" fill="#ffff00"/>
<rect x="22" y="32" width="1" height="3" fill="#000000"/>
<rect x="35" y="32" width="1" height="3" fill="#000000"/>
<rect x="26" y="33" width="1" height="2" fill="#808000"/>
<rect x="23" y="34" width="1" height="1" fill="#808000"/>
<rect x="24" y="34" width="1" height="1" fill="#000000"/>
<rect x="25" y="34" width="1" height="1" fill="#ffffff"/>
<rect x="27" y="34" width="1" height="1" fill="#ffff00"/>
<rect x="28" y="34" width="1" height="1" fill="#ffffff"/>
<rect x="30" y="34" width="2" height="1" fill="#ffffff"/>
<rect x="32" y="34" width="1" height="1" fill="#000000"/>
<rect x="33" y="34" width="2" height="1" fill="#808000"/>
<rect x="6" y="35" width="15" height="1" fill="#ffffff"/>
<rect x="21" y="35" width="3" height="1" fill="#000000"/>
<rect x="24" y="35" width="2" height="1" fill="#ffffff"/>
<rect x="26" y="35" width="3" height="1" fill="#808000"/>
<rect x="30" y="35" width="3" height="1" fill="#ffffff"/>
<rect x="33" y="35" width="2" height="1" fill="#000000"/>
<rect x="35" y="35" width="7" height="1" fill="#ffffff"/>
<rect x="29" y="34" width="1" height="3" fill="#000000"/>
<rect x="6" y="36" width="20" height="1" fill="#ffffff"/>
<rect x="26" y="36" width="1" height="1" fill="#000000"/>
<rect x="27" y="36" width="2" height="1" fill="#808000"/>
<rect x="30" y="36" width="12" height="1" fill="#ffffff"/>
<rect x="6" y="37" width="21" height="1" fill="#ffffff"/>
<rect x="27" y="37" width="2" height="1" fill="#000000"/>
<rect x="29" y="37" width="13" height="1" fill="#ffffff"/>
<rect x="5" y="1" width="1" height="45" fill="#808080"/>
<rect x="42" y="11" width="1" height="35" fill="#c0c0c0"/>
<rect x="6" y="38" width="36" height="8" fill="#ffffff"/>
<rect x="43" y="11" width="1" height="36" fill="#000000"/>
<rect x="5" y="46" width="2" height="1" fill="#808080"/>
<rect x="7" y="46" width="36" height="1" fill="#c0c0c0"/>
<rect x="5" y="47" width="39" height="1" fill="#000000"/>
</svg>
