<svg xmlns="http://www.w3.org/2000/svg" width="48" height="48" viewBox="0 0 48 48" shape-rendering="crispEdges">
<rect x="10" y="5" width="15" height="1" fill="#999900"/>
<rect x="9" y="6" width="1" height="1" fill="#999900"/>
<rect x="10" y="6" width="14" height="1" fill="#f8f8f8"/>
<rect x="24" y="6" width="1" height="1" fill="#cccc66"/>
<rect x="25" y="6" width="1" height="1" fill="#999900"/>
<rect x="8" y="7" width="1" height="1" fill="#999900"/>
<rect x="9" y="7" width="1" height="1" fill="#f8f8f8"/>
<rect x="10" y="7" width="15" height="1" fill="#ffff99"/>
<rect x="25" y="7" width="1" height="1" fill="#cccc66"/>
<rect x="26" y="7" width="1" height="1" fill="#999900"/>
<rect x="7" y="8" width="1" height="1" fill="#999900"/>
<rect x="8" y="8" width="1" height="1" fill="#f8f8f8"/>
<rect x="9" y="8" width="17" height="1" fill="#ffff99"/>
<rect x="26" y="8" width="1" height="1" fill="#cccc66"/>
<rect x="27" y="8" width="1" height="1" fill="#999900"/>
<rect x="6" y="9" width="1" height="1" fill="#999900"/>
<rect x="7" y="9" width="1" height="1" fill="#f8f8f8"/>
<rect x="8" y="9" width="19" height="1" fill="#ffff99"/>
<rect x="27" y="9" width="1" height="1" fill="#cccc66"/>
<rect x="28" y="9" width="1" height="1" fill="#999900"/>
<rect x="7" y="10" width="21" height="1" fill="#ffff99"/>
<rect x="28" y="10" width="1" height="1" fill="#cccc66"/>
<rect x="29" y="10" width="16" height="1" fill="#999900"/>
<rect x="7" y="11" width="22" height="1" fill="#ffff99"/>
<rect x="29" y="11" width="16" height="1" fill="#f8f8f8"/>
<rect x="45" y="11" width="1" height="1" fill="#000000"/>
<rect x="7" y="12" width="20" height="1" fill="#ffff99"/>
<rect x="27" y="12" width="1" height="1" fill="#ffcc99"/>
<rect x="28" y="12" width="13" height="1" fill="#ffff99"/>
<rect x="41" y="12" width="1" height="1" fill="#ffcc99"/>
<rect x="42" y="12" width="2" height="1" fill="#ffff99"/>
<rect x="44" y="12" width="1" height="1" fill="#ffcc99"/>
<rect x="7" y="13" width="16" height="1" fill="#ffff99"/>
<rect x="23" y="13" width="1" height="1" fill="#ffcc99"/>
<rect x="24" y="13" width="7" height="1" fill="#ffff99"/>
<rect x="31" y="13" width="1" height="1" fill="#ffcc99"/>
<rect x="32" y="13" width="2" height="1" fill="#ffff99"/>
<rect x="34" y="13" width="1" height="1" fill="#ffcc99"/>
<rect x="35" y="13" width="1" height="1" fill="#ffff99"/>
<rect x="36" y="13" width="1" height="1" fill="#ffcc99"/>
<rect x="37" y="13" width="2" height="1" fill="#ffff99"/>
<rect x="39" y="13" width="1" height="1" fill="#ffcc99"/>
<rect x="40" y="13" width="3" height="1" fill="#ffff99"/>
<rect x="43" y="13" width="1" height="1" fill="#ffcc99"/>
<rect x="44" y="13" width="1" height="1" fill="#ffff99"/>
<rect x="7" y="14" width="9" height="1" fill="#ffff99"/>
<rect x="16" y="14" width="1" height="1" fill="#ffcc99"/>
<rect x="17" y="14" width="12" height="1" fill="#ffff99"/>
<rect x="29" y="14" width="1" height="1" fill="#ffcc99"/>
<rect x="30" y="14" width="11" height="1" fill="#ffff99"/>
<rect x="41" y="14" width="1" height="1" fill="#ffcc99"/>
<rect x="42" y="14" width="2" height="1" fill="#ffff99"/>
<rect x="44" y="14" width="1" height="1" fill="#ffcc99"/>
<rect x="7" y="15" width="14" height="1" fill="#ffff99"/>
<rect x="21" y="15" width="1" height="1" fill="#ffcc99"/>
<rect x="22" y="15" width="3" height="1" fill="#ffff99"/>
<rect x="25" y="15" width="1" height="1" fill="#ffcc99"/>
<rect x="26" y="15" width="7" height="1" fill="#ffff99"/>
<rect x="33" y="15" width="1" height="1" fill="#ffcc99"/>
<rect x="34" y="15" width="2" height="1" fill="#ffff99"/>
<rect x="36" y="15" width="1" height="1" fill="#ffcc99"/>
<rect x="37" y="15" width="1" height="1" fill="#ffff99"/>
<rect x="38" y="15" width="1" height="1" fill="#ffcc99"/>
<rect x="39" y="15" width="1" height="1" fill="#ffff99"/>
<rect x="40" y="15" width="1" height="1" fill="#ffcc99"/>
<rect x="41" y="15" width="2" height="1" fill="#ffff99"/>
<rect x="43" y="15" width="1" height="1" fill="#ffcc99"/>
<rect x="44" y="15" width="1" height="1" fill="#ffff99"/>
<rect x="7" y="16" width="24" height="1" fill="#ffff99"/>
<rect x="31" y="16" width="1" height="1" fill="#ffcc99"/>
<rect x="32" y="16" width="3" height="1" fill="#ffff99"/>
<rect x="35" y="16" width="1" height="1" fill="#ffcc99"/>
<rect x="36" y="16" width="6" height="1" fill="#ffff99"/>
<rect x="42" y="16" width="1" height="1" fill="#ffcc99"/>
<rect x="43" y="16" width="1" height="1" fill="#ffff99"/>
<rect x="44" y="16" width="1" height="1" fill="#ffcc99"/>
<rect x="5" y="10" width="1" height="8" fill="#999900"/>
<rect x="6" y="10" width="1" height="8" fill="#f8f8f8"/>
<rect x="7" y="17" width="6" height="1" fill="#ffff99"/>
<rect x="13" y="17" width="1" height="1" fill="#ffcc99"/>
<rect x="14" y="17" width="4" height="1" fill="#ffff99"/>
<rect x="18" y="17" width="1" height="1" fill="#ffcc99"/>
<rect x="19" y="17" width="5" height="1" fill="#ffff99"/>
<rect x="24" y="17" width="1" height="1" fill="#ffcc99"/>
<rect x="25" y="17" width="2" height="1" fill="#ffff99"/>
<rect x="27" y="17" width="1" height="1" fill="#ffcc99"/>
<rect x="28" y="17" width="1" height="1" fill="#ffff99"/>
<rect x="29" y="17" width="1" height="1" fill="#ffcc99"/>
<rect x="30" y="17" width="4" height="1" fill="#ffff99"/>
<rect x="34" y="17" width="1" height="1" fill="#ffcc99"/>
<rect x="35" y="17" width="2" height="1" fill="#ffff99"/>
<rect x="37" y="17" width="1" height="1" fill="#ffcc99"/>
<rect x="38" y="17" width="1" height="1" fill="#ffff99"/>
<rect x="39" y="17" width="1" height="1" fill="#ffcc99"/>
<rect x="40" y="17" width="1" height="1" fill="#ffff99"/>
<rect x="41" y="17" width="1" height="1" fill="#ffcc99"/>
<rect x="42" y="17" width="1" height="1" fill="#ffff99"/>
<rect x="43" y="17" width="1" height="1" fill="#ffcc99"/>
<rect x="44" y="17" width="1" height="1" fill="#ffff99"/>
<rect x="2" y="18" width="40" height="1" fill="#999900"/>
<rect x="43" y="18" width="1" height="1" fill="#ffff99"/>
<rect x="44" y="18" width="1" height="1" fill="#ffcc99"/>
<rect x="42" y="18" width="1" height="2" fill="#cccc66"/>
<rect x="2" y="19" width="39" height="1" fill="#f8f8f8"/>
<rect x="41" y="19" width="1" height="1" fill="#000000"/>
<rect x="43" y="19" width="2" height="1" fill="#ffff99"/>
<rect x="3" y="20" width="21" height="1" fill="#ffff99"/>
<rect x="24" y="20" width="1" height="1" fill="#ffcc99"/>
<rect x="25" y="20" width="11" height="1" fill="#ffff99"/>
<rect x="36" y="20" width="1" height="1" fill="#ffcc99"/>
<rect x="37" y="20" width="2" height="1" fill="#ffff99"/>
<rect x="39" y="20" width="1" height="1" fill="#ffcc99"/>
<rect x="40" y="20" width="1" height="1" fill="#ffff99"/>
<rect x="41" y="20" width="1" height="1" fill="#999900"/>
<rect x="44" y="20" width="1" height="1" fill="#ffcc99"/>
<rect x="3" y="21" width="17" height="1" fill="#ffff99"/>
<rect x="20" y="21" width="1" height="1" fill="#ffcc99"/>
<rect x="21" y="21" width="7" height="1" fill="#ffff99"/>
<rect x="28" y="21" width="1" height="1" fill="#ffcc99"/>
<rect x="29" y="21" width="2" height="1" fill="#ffff99"/>
<rect x="31" y="21" width="1" height="1" fill="#ffcc99"/>
<rect x="32" y="21" width="1" height="1" fill="#ffff99"/>
<rect x="33" y="21" width="1" height="1" fill="#ffcc99"/>
<rect x="34" y="21" width="1" height="1" fill="#ffff99"/>
<rect x="35" y="21" width="1" height="1" fill="#ffcc99"/>
<rect x="36" y="21" width="2" height="1" fill="#ffff99"/>
<rect x="38" y="21" width="1" height="1" fill="#ffcc99"/>
<rect x="39" y="21" width="1" height="1" fill="#ffff99"/>
<rect x="40" y="21" width="1" height="1" fill="#ffcc99"/>
<rect x="44" y="21" width="1" height="1" fill="#ffff99"/>
<rect x="1" y="19" width="1" height="4" fill="#999900"/>
<rect x="2" y="20" width="1" height="3" fill="#f8f8f8"/>
<rect x="3" y="22" width="23" height="1" fill="#ffff99"/>
<rect x="26" y="22" width="1" height="1" fill="#ffcc99"/>
<rect x="27" y="22" width="3" height="1" fill="#ffff99"/>
<rect x="30" y="22" width="1" height="1" fill="#ffcc99"/>
<rect x="31" y="22" width="6" height="1" fill="#ffff99"/>
<rect x="37" y="22" width="1" height="1" fill="#ffcc99"/>
<rect x="38" y="22" width="1" height="1" fill="#ffff99"/>
<rect x="39" y="22" width="1" height="1" fill="#ffcc99"/>
<rect x="40" y="22" width="1" height="1" fill="#ffff99"/>
<rect x="44" y="22" width="1" height="1" fill="#ffcc99"/>
<rect x="42" y="20" width="1" height="4" fill="#000000"/>
<rect x="43" y="20" width="1" height="4" fill="#cccc66"/>
<rect x="41" y="21" width="1" height="3" fill="#cccc66"/>
<rect x="2" y="23" width="1" height="1" fill="#cccc66"/>
<rect x="4" y="23" width="18" height="1" fill="#ffff99"/>
<rect x="22" y="23" width="1" height="1" fill="#ffcc99"/>
<rect x="23" y="23" width="1" height="1" fill="#ffff99"/>
<rect x="24" y="23" width="1" height="1" fill="#ffcc99"/>
<rect x="25" y="23" width="4" height="1" fill="#ffff99"/>
<rect x="29" y="23" width="1" height="1" fill="#ffcc99"/>
<rect x="30" y="23" width="2" height="1" fill="#ffff99"/>
<rect x="32" y="23" width="1" height="1" fill="#ffcc99"/>
<rect x="33" y="23" width="1" height="1" fill="#ffff99"/>
<rect x="34" y="23" width="1" height="1" fill="#ffcc99"/>
<rect x="35" y="23" width="1" height="1" fill="#ffff99"/>
<rect x="36" y="23" width="1" height="1" fill="#ffcc99"/>
<rect x="37" y="23" width="1" height="1" fill="#ffff99"/>
<rect x="44" y="23" width="1" height="1" fill="#ffff99"/>
<rect x="38" y="23" width="1" height="2" fill="#ffcc99"/>
<rect x="39" y="23" width="1" height="2" fill="#ffff99"/>
<rect x="40" y="23" width="1" height="2" fill="#ffcc99"/>
<rect x="4" y="24" width="13" height="1" fill="#ffff99"/>
<rect x="17" y="24" width="1" height="1" fill="#ffcc99"/>
<rect x="18" y="24" width="9" height="1" fill="#ffff99"/>
<rect x="27" y="24" width="1" height="1" fill="#ffcc99"/>
<rect x="28" y="24" width="5" height="1" fill="#ffff99"/>
<rect x="33" y="24" width="1" height="1" fill="#ffcc99"/>
<rect x="34" y="24" width="1" height="1" fill="#ffff99"/>
<rect x="35" y="24" width="1" height="1" fill="#ffcc99"/>
<rect x="36" y="24" width="2" height="1" fill="#ffff99"/>
<rect x="41" y="24" width="1" height="1" fill="#ffff99"/>
<rect x="42" y="24" width="1" height="1" fill="#999900"/>
<rect x="4" y="25" width="21" height="1" fill="#ffff99"/>
<rect x="25" y="25" width="1" height="1" fill="#ffcc99"/>
<rect x="26" y="25" width="2" height="1" fill="#ffff99"/>
<rect x="28" y="25" width="1" height="1" fill="#ffcc99"/>
<rect x="29" y="25" width="1" height="1" fill="#ffff99"/>
<rect x="30" y="25" width="1" height="1" fill="#ffcc99"/>
<rect x="31" y="25" width="1" height="1" fill="#ffff99"/>
<rect x="32" y="25" width="1" height="1" fill="#ffcc99"/>
<rect x="33" y="25" width="4" height="1" fill="#ffff99"/>
<rect x="37" y="25" width="1" height="1" fill="#ffcc99"/>
<rect x="38" y="25" width="1" height="1" fill="#ffff99"/>
<rect x="39" y="25" width="1" height="1" fill="#ffcc99"/>
<rect x="40" y="25" width="1" height="1" fill="#ffff99"/>
<rect x="41" y="25" width="1" height="1" fill="#ffcc99"/>
<rect x="3" y="23" width="1" height="4" fill="#f8f8f8"/>
<rect x="2" y="24" width="1" height="3" fill="#999900"/>
<rect x="4" y="26" width="15" height="1" fill="#ffff99"/>
<rect x="19" y="26" width="1" height="1" fill="#ffcc99"/>
<rect x="20" y="26" width="1" height="1" fill="#ffff99"/>
<rect x="21" y="26" width="1" height="1" fill="#ffcc99"/>
<rect x="22" y="26" width="1" height="1" fill="#ffff99"/>
<rect x="23" y="26" width="1" height="1" fill="#ffcc99"/>
<rect x="24" y="26" width="9" height="1" fill="#ffff99"/>
<rect x="33" y="26" width="1" height="1" fill="#ffcc99"/>
<rect x="34" y="26" width="1" height="1" fill="#ffff99"/>
<rect x="35" y="26" width="2" height="1" fill="#ffcc99"/>
<rect x="37" y="26" width="1" height="1" fill="#ffff99"/>
<rect x="38" y="26" width="1" height="1" fill="#ffcc99"/>
<rect x="39" y="26" width="1" height="1" fill="#ffff99"/>
<rect x="40" y="26" width="1" height="1" fill="#ffcc99"/>
<rect x="41" y="26" width="1" height="1" fill="#ffff99"/>
<rect x="43" y="24" width="1" height="4" fill="#000000"/>
<rect x="44" y="24" width="1" height="4" fill="#cccc66"/>
<rect x="42" y="25" width="1" height="3" fill="#cccc66"/>
<rect x="3" y="27" width="1" height="1" fill="#cccc66"/>
<rect x="5" y="27" width="9" height="1" fill="#ffff99"/>
<rect x="14" y="27" width="1" height="1" fill="#ffcc99"/>
<rect x="15" y="27" width="10" height="1" fill="#ffff99"/>
<rect x="25" y="27" width="1" height="1" fill="#ffcc99"/>
<rect x="26" y="27" width="1" height="1" fill="#ffff99"/>
<rect x="27" y="27" width="1" height="1" fill="#ffcc99"/>
<rect x="28" y="27" width="1" height="1" fill="#ffff99"/>
<rect x="29" y="27" width="1" height="1" fill="#ffcc99"/>
<rect x="30" y="27" width="1" height="1" fill="#ffff99"/>
<rect x="31" y="27" width="1" height="1" fill="#ffcc99"/>
<rect x="32" y="27" width="2" height="1" fill="#ffff99"/>
<rect x="34" y="27" width="1" height="1" fill="#ffcc99"/>
<rect x="35" y="27" width="2" height="1" fill="#ffff99"/>
<rect x="38" y="27" width="2" height="1" fill="#ffff99"/>
<rect x="40" y="27" width="2" height="1" fill="#ffcc99"/>
<rect x="37" y="27" width="1" height="2" fill="#ffcc99"/>
<rect x="5" y="28" width="12" height="1" fill="#ffff99"/>
<rect x="17" y="28" width="1" height="1" fill="#ffcc99"/>
<rect x="18" y="28" width="4" height="1" fill="#ffff99"/>
<rect x="22" y="28" width="1" height="1" fill="#ffcc99"/>
<rect x="23" y="28" width="7" height="1" fill="#ffff99"/>
<rect x="30" y="28" width="1" height="1" fill="#ffcc99"/>
<rect x="31" y="28" width="1" height="1" fill="#ffff99"/>
<rect x="32" y="28" width="1" height="1" fill="#ffcc99"/>
<rect x="33" y="28" width="2" height="1" fill="#ffff99"/>
<rect x="35" y="28" width="1" height="1" fill="#ffcc99"/>
<rect x="36" y="28" width="1" height="1" fill="#ffff99"/>
<rect x="38" y="28" width="1" height="1" fill="#ffff99"/>
<rect x="39" y="28" width="1" height="1" fill="#ffcc99"/>
<rect x="40" y="28" width="1" height="1" fill="#ffff99"/>
<rect x="41" y="28" width="2" height="1" fill="#ffcc99"/>
<rect x="43" y="28" width="1" height="1" fill="#999900"/>
<rect x="5" y="29" width="15" height="1" fill="#ffff99"/>
<rect x="20" y="29" width="1" height="1" fill="#ffcc99"/>
<rect x="21" y="29" width="2" height="1" fill="#ffff99"/>
<rect x="23" y="29" width="1" height="1" fill="#ffcc99"/>
<rect x="24" y="29" width="1" height="1" fill="#ffff99"/>
<rect x="25" y="29" width="1" height="1" fill="#ffcc99"/>
<rect x="26" y="29" width="1" height="1" fill="#ffff99"/>
<rect x="27" y="29" width="1" height="1" fill="#ffcc99"/>
<rect x="28" y="29" width="1" height="1" fill="#ffff99"/>
<rect x="29" y="29" width="1" height="1" fill="#ffcc99"/>
<rect x="30" y="29" width="3" height="1" fill="#ffff99"/>
<rect x="33" y="29" width="2" height="1" fill="#ffcc99"/>
<rect x="35" y="29" width="1" height="1" fill="#ffff99"/>
<rect x="36" y="29" width="1" height="1" fill="#ffcc99"/>
<rect x="37" y="29" width="1" height="1" fill="#ffff99"/>
<rect x="38" y="29" width="3" height="1" fill="#ffcc99"/>
<rect x="41" y="29" width="1" height="1" fill="#ffff99"/>
<rect x="42" y="29" width="1" height="1" fill="#ffcc99"/>
<rect x="4" y="27" width="1" height="4" fill="#f8f8f8"/>
<rect x="3" y="28" width="1" height="3" fill="#999900"/>
<rect x="5" y="30" width="10" height="1" fill="#ffff99"/>
<rect x="15" y="30" width="1" height="1" fill="#ffcc99"/>
<rect x="16" y="30" width="12" height="1" fill="#ffff99"/>
<rect x="28" y="30" width="1" height="1" fill="#ffcc99"/>
<rect x="29" y="30" width="2" height="1" fill="#ffff99"/>
<rect x="31" y="30" width="2" height="1" fill="#ffcc99"/>
<rect x="33" y="30" width="2" height="1" fill="#ffff99"/>
<rect x="38" y="30" width="1" height="1" fill="#ffff99"/>
<rect x="39" y="30" width="1" height="1" fill="#ffcc99"/>
<rect x="40" y="30" width="1" height="1" fill="#ffff99"/>
<rect x="41" y="30" width="1" height="1" fill="#ffcc99"/>
<rect x="42" y="30" width="1" height="1" fill="#ffff99"/>
<rect x="45" y="12" width="1" height="20" fill="#999900"/>
<rect x="46" y="12" width="1" height="20" fill="#000000"/>
<rect x="44" y="28" width="1" height="4" fill="#000000"/>
<rect x="43" y="29" width="1" height="3" fill="#cccc66"/>
<rect x="35" y="30" width="1" height="2" fill="#ffcc99"/>
<rect x="36" y="30" width="1" height="2" fill="#ffff99"/>
<rect x="37" y="30" width="1" height="2" fill="#ffcc99"/>
<rect x="4" y="31" width="1" height="1" fill="#cccc66"/>
<rect x="6" y="31" width="11" height="1" fill="#ffff99"/>
<rect x="17" y="31" width="1" height="1" fill="#ffcc99"/>
<rect x="18" y="31" width="1" height="1" fill="#ffff99"/>
<rect x="20" y="31" width="1" height="1" fill="#ffff99"/>
<rect x="21" y="31" width="1" height="1" fill="#ffcc99"/>
<rect x="22" y="31" width="1" height="1" fill="#ffff99"/>
<rect x="23" y="31" width="1" height="1" fill="#ffcc99"/>
<rect x="24" y="31" width="1" height="1" fill="#ffff99"/>
<rect x="25" y="31" width="1" height="1" fill="#ffcc99"/>
<rect x="26" y="31" width="1" height="1" fill="#ffff99"/>
<rect x="28" y="31" width="2" height="1" fill="#ffff99"/>
<rect x="30" y="31" width="1" height="1" fill="#ffcc99"/>
<rect x="31" y="31" width="2" height="1" fill="#ffff99"/>
<rect x="33" y="31" width="1" height="1" fill="#ffcc99"/>
<rect x="34" y="31" width="1" height="1" fill="#ffff99"/>
<rect x="38" y="31" width="2" height="1" fill="#ffff99"/>
<rect x="40" y="31" width="3" height="1" fill="#ffcc99"/>
<rect x="19" y="31" width="1" height="2" fill="#ffcc99"/>
<rect x="27" y="31" width="1" height="2" fill="#ffcc99"/>
<rect x="6" y="32" width="6" height="1" fill="#ffff99"/>
<rect x="12" y="32" width="1" height="1" fill="#ffcc99"/>
<rect x="13" y="32" width="2" height="1" fill="#ffff99"/>
<rect x="15" y="32" width="1" height="1" fill="#ffcc99"/>
<rect x="16" y="32" width="3" height="1" fill="#ffff99"/>
<rect x="20" y="32" width="2" height="1" fill="#ffff99"/>
<rect x="22" y="32" width="1" height="1" fill="#ffcc99"/>
<rect x="23" y="32" width="4" height="1" fill="#ffff99"/>
<rect x="28" y="32" width="1" height="1" fill="#ffff99"/>
<rect x="29" y="32" width="2" height="1" fill="#ffcc99"/>
<rect x="31" y="32" width="1" height="1" fill="#ffff99"/>
<rect x="32" y="32" width="1" height="1" fill="#ffcc99"/>
<rect x="33" y="32" width="1" height="1" fill="#ffff99"/>
<rect x="34" y="32" width="1" height="1" fill="#ffcc99"/>
<rect x="35" y="32" width="1" height="1" fill="#ffff99"/>
<rect x="36" y="32" width="1" height="1" fill="#ffcc99"/>
<rect x="37" y="32" width="1" height="1" fill="#ffff99"/>
<rect x="38" y="32" width="1" height="1" fill="#ffcc99"/>
<rect x="39" y="32" width="1" height="1" fill="#ffff99"/>
<rect x="40" y="32" width="4" height="1" fill="#ffcc99"/>
<rect x="44" y="32" width="1" height="1" fill="#999900"/>
<rect x="6" y="33" width="11" height="1" fill="#ffff99"/>
<rect x="17" y="33" width="1" height="1" fill="#ffcc99"/>
<rect x="18" y="33" width="2" height="1" fill="#ffff99"/>
<rect x="20" y="33" width="1" height="1" fill="#ffcc99"/>
<rect x="21" y="33" width="2" height="1" fill="#ffff99"/>
<rect x="23" y="33" width="1" height="1" fill="#ffcc99"/>
<rect x="24" y="33" width="1" height="1" fill="#ffff99"/>
<rect x="25" y="33" width="1" height="1" fill="#ffcc99"/>
<rect x="26" y="33" width="2" height="1" fill="#ffff99"/>
<rect x="28" y="33" width="1" height="1" fill="#ffcc99"/>
<rect x="29" y="33" width="2" height="1" fill="#ffff99"/>
<rect x="31" y="33" width="1" height="1" fill="#ffcc99"/>
<rect x="32" y="33" width="1" height="1" fill="#ffff99"/>
<rect x="33" y="33" width="1" height="1" fill="#ffcc99"/>
<rect x="34" y="33" width="1" height="1" fill="#ffff99"/>
<rect x="35" y="33" width="1" height="1" fill="#ffcc99"/>
<rect x="37" y="33" width="3" height="1" fill="#ffcc99"/>
<rect x="40" y="33" width="1" height="1" fill="#ffff99"/>
<rect x="41" y="33" width="1" height="1" fill="#ffcc99"/>
<rect x="42" y="33" width="1" height="1" fill="#ffff99"/>
<rect x="43" y="33" width="1" height="1" fill="#ffcc99"/>
<rect x="5" y="31" width="1" height="4" fill="#f8f8f8"/>
<rect x="4" y="32" width="1" height="3" fill="#999900"/>
<rect x="36" y="33" width="1" height="2" fill="#ffff99"/>
<rect x="6" y="34" width="8" height="1" fill="#ffff99"/>
<rect x="14" y="34" width="1" height="1" fill="#ffcc99"/>
<rect x="15" y="34" width="7" height="1" fill="#ffff99"/>
<rect x="22" y="34" width="1" height="1" fill="#ffcc99"/>
<rect x="23" y="34" width="4" height="1" fill="#ffff99"/>
<rect x="27" y="34" width="1" height="1" fill="#ffcc99"/>
<rect x="28" y="34" width="2" height="1" fill="#ffff99"/>
<rect x="30" y="34" width="1" height="1" fill="#ffcc99"/>
<rect x="31" y="34" width="1" height="1" fill="#ffff99"/>
<rect x="32" y="34" width="4" height="1" fill="#ffcc99"/>
<rect x="37" y="34" width="2" height="1" fill="#ffcc99"/>
<rect x="39" y="34" width="1" height="1" fill="#ffff99"/>
<rect x="40" y="34" width="4" height="1" fill="#ffcc99"/>
<rect x="44" y="33" width="1" height="3" fill="#cccc66"/>
<rect x="5" y="35" width="1" height="1" fill="#cccc66"/>
<rect x="7" y="35" width="12" height="1" fill="#ffff99"/>
<rect x="19" y="35" width="1" height="1" fill="#ffcc99"/>
<rect x="20" y="35" width="4" height="1" fill="#ffff99"/>
<rect x="24" y="35" width="1" height="1" fill="#ffcc99"/>
<rect x="25" y="35" width="1" height="1" fill="#ffff99"/>
<rect x="26" y="35" width="1" height="1" fill="#ffcc99"/>
<rect x="27" y="35" width="1" height="1" fill="#ffff99"/>
<rect x="28" y="35" width="1" height="1" fill="#ffcc99"/>
<rect x="29" y="35" width="2" height="1" fill="#ffff99"/>
<rect x="31" y="35" width="1" height="1" fill="#ffcc99"/>
<rect x="32" y="35" width="2" height="1" fill="#ffff99"/>
<rect x="34" y="35" width="3" height="1" fill="#ffcc99"/>
<rect x="37" y="35" width="1" height="1" fill="#ffff99"/>
<rect x="38" y="35" width="3" height="1" fill="#ffcc99"/>
<rect x="41" y="35" width="1" height="1" fill="#ffff99"/>
<rect x="42" y="35" width="1" height="1" fill="#ffcc99"/>
<rect x="43" y="35" width="1" height="1" fill="#ffff99"/>
<rect x="45" y="32" width="2" height="5" fill="#000000"/>
<rect x="7" y="36" width="3" height="1" fill="#ffff99"/>
<rect x="10" y="36" width="1" height="1" fill="#ffcc99"/>
<rect x="11" y="36" width="2" height="1" fill="#ffff99"/>
<rect x="13" y="36" width="1" height="1" fill="#ffcc99"/>
<rect x="14" y="36" width="2" height="1" fill="#ffff99"/>
<rect x="16" y="36" width="1" height="1" fill="#ffcc99"/>
<rect x="17" y="36" width="3" height="1" fill="#ffff99"/>
<rect x="20" y="36" width="1" height="1" fill="#ffcc99"/>
<rect x="21" y="36" width="1" height="1" fill="#ffff99"/>
<rect x="22" y="36" width="1" height="1" fill="#ffcc99"/>
<rect x="23" y="36" width="2" height="1" fill="#ffff99"/>
<rect x="25" y="36" width="1" height="1" fill="#ffcc99"/>
<rect x="26" y="36" width="3" height="1" fill="#ffff99"/>
<rect x="29" y="36" width="2" height="1" fill="#ffcc99"/>
<rect x="31" y="36" width="1" height="1" fill="#ffff99"/>
<rect x="32" y="36" width="2" height="1" fill="#ffcc99"/>
<rect x="34" y="36" width="2" height="1" fill="#ffff99"/>
<rect x="36" y="36" width="2" height="1" fill="#ffcc99"/>
<rect x="38" y="36" width="1" height="1" fill="#ffff99"/>
<rect x="39" y="36" width="1" height="1" fill="#ffcc99"/>
<rect x="40" y="36" width="1" height="1" fill="#ffff99"/>
<rect x="41" y="36" width="4" height="1" fill="#ffcc99"/>
<rect x="7" y="37" width="11" height="1" fill="#ffff99"/>
<rect x="18" y="37" width="1" height="1" fill="#ffcc99"/>
<rect x="19" y="37" width="5" height="1" fill="#ffff99"/>
<rect x="24" y="37" width="1" height="1" fill="#ffcc99"/>
<rect x="25" y="37" width="2" height="1" fill="#ffff99"/>
<rect x="27" y="37" width="2" height="1" fill="#ffcc99"/>
<rect x="29" y="37" width="1" height="1" fill="#ffff99"/>
<rect x="30" y="37" width="2" height="1" fill="#ffcc99"/>
<rect x="32" y="37" width="1" height="1" fill="#ffff99"/>
<rect x="33" y="37" width="3" height="1" fill="#ffcc99"/>
<rect x="37" y="37" width="5" height="1" fill="#ffcc99"/>
<rect x="42" y="37" width="1" height="1" fill="#ffff99"/>
<rect x="43" y="37" width="2" height="1" fill="#ffcc99"/>
<rect x="6" y="35" width="1" height="4" fill="#f8f8f8"/>
<rect x="5" y="36" width="1" height="3" fill="#999900"/>
<rect x="36" y="37" width="1" height="2" fill="#ffff99"/>
<rect x="7" y="38" width="6" height="1" fill="#ffff99"/>
<rect x="13" y="38" width="1" height="1" fill="#ffcc99"/>
<rect x="14" y="38" width="1" height="1" fill="#ffff99"/>
<rect x="15" y="38" width="1" height="1" fill="#ffcc99"/>
<rect x="16" y="38" width="5" height="1" fill="#ffff99"/>
<rect x="21" y="38" width="1" height="1" fill="#ffcc99"/>
<rect x="22" y="38" width="1" height="1" fill="#ffff99"/>
<rect x="23" y="38" width="1" height="1" fill="#ffcc99"/>
<rect x="24" y="38" width="2" height="1" fill="#ffff99"/>
<rect x="26" y="38" width="1" height="1" fill="#ffcc99"/>
<rect x="27" y="38" width="2" height="1" fill="#ffff99"/>
<rect x="29" y="38" width="1" height="1" fill="#ffcc99"/>
<rect x="30" y="38" width="2" height="1" fill="#ffff99"/>
<rect x="32" y="38" width="2" height="1" fill="#ffcc99"/>
<rect x="34" y="38" width="1" height="1" fill="#ffff99"/>
<rect x="35" y="38" width="1" height="1" fill="#ffcc99"/>
<rect x="37" y="38" width="4" height="1" fill="#ffcc99"/>
<rect x="41" y="38" width="1" height="1" fill="#ffff99"/>
<rect x="42" y="38" width="3" height="1" fill="#ffcc99"/>
<rect x="6" y="39" width="1" height="1" fill="#cccc66"/>
<rect x="7" y="39" width="2" height="1" fill="#ffff99"/>
<rect x="9" y="39" width="1" height="1" fill="#ffcc99"/>
<rect x="10" y="39" width="1" height="1" fill="#ffff99"/>
<rect x="11" y="39" width="1" height="1" fill="#ffcc99"/>
<rect x="12" y="39" width="6" height="1" fill="#ffff99"/>
<rect x="18" y="39" width="1" height="1" fill="#ffcc99"/>
<rect x="19" y="39" width="1" height="1" fill="#ffff99"/>
<rect x="20" y="39" width="1" height="1" fill="#ffcc99"/>
<rect x="21" y="39" width="1" height="1" fill="#ffff99"/>
<rect x="22" y="39" width="1" height="1" fill="#ffcc99"/>
<rect x="23" y="39" width="2" height="1" fill="#ffff99"/>
<rect x="27" y="39" width="1" height="1" fill="#ffcc99"/>
<rect x="28" y="39" width="2" height="1" fill="#ffff99"/>
<rect x="30" y="39" width="3" height="1" fill="#ffcc99"/>
<rect x="33" y="39" width="1" height="1" fill="#ffff99"/>
<rect x="34" y="39" width="4" height="1" fill="#ffcc99"/>
<rect x="38" y="39" width="1" height="1" fill="#ffff99"/>
<rect x="39" y="39" width="6" height="1" fill="#ffcc99"/>
<rect x="25" y="39" width="1" height="2" fill="#ffcc99"/>
<rect x="26" y="39" width="1" height="2" fill="#ffff99"/>
<rect x="7" y="40" width="6" height="1" fill="#ffff99"/>
<rect x="13" y="40" width="1" height="1" fill="#ffcc99"/>
<rect x="14" y="40" width="1" height="1" fill="#ffff99"/>
<rect x="15" y="40" width="1" height="1" fill="#ffcc99"/>
<rect x="16" y="40" width="3" height="1" fill="#ffff99"/>
<rect x="19" y="40" width="1" height="1" fill="#ffcc99"/>
<rect x="20" y="40" width="3" height="1" fill="#ffff99"/>
<rect x="23" y="40" width="1" height="1" fill="#ffcc99"/>
<rect x="24" y="40" width="1" height="1" fill="#ffff99"/>
<rect x="27" y="40" width="2" height="1" fill="#ffcc99"/>
<rect x="29" y="40" width="1" height="1" fill="#ffff99"/>
<rect x="30" y="40" width="1" height="1" fill="#ffcc99"/>
<rect x="31" y="40" width="1" height="1" fill="#ffff99"/>
<rect x="32" y="40" width="3" height="1" fill="#ffcc99"/>
<rect x="35" y="40" width="1" height="1" fill="#ffff99"/>
<rect x="36" y="40" width="1" height="1" fill="#ffcc99"/>
<rect x="37" y="40" width="1" height="1" fill="#ffff99"/>
<rect x="38" y="40" width="2" height="1" fill="#ffcc99"/>
<rect x="40" y="40" width="1" height="1" fill="#ffff99"/>
<rect x="41" y="40" width="4" height="1" fill="#ffcc99"/>
<rect x="45" y="37" width="1" height="5" fill="#999900"/>
<rect x="6" y="40" width="1" height="2" fill="#999900"/>
<rect x="7" y="41" width="1" height="1" fill="#ffff99"/>
<rect x="8" y="41" width="1" height="1" fill="#ffcc99"/>
<rect x="9" y="41" width="2" height="1" fill="#ffff99"/>
<rect x="11" y="41" width="1" height="1" fill="#ffcc99"/>
<rect x="12" y="41" width="4" height="1" fill="#ffff99"/>
<rect x="16" y="41" width="1" height="1" fill="#ffcc99"/>
<rect x="17" y="41" width="1" height="1" fill="#ffff99"/>
<rect x="18" y="41" width="2" height="1" fill="#ffcc99"/>
<rect x="20" y="41" width="1" height="1" fill="#ffff99"/>
<rect x="21" y="41" width="1" height="1" fill="#ffcc99"/>
<rect x="22" y="41" width="2" height="1" fill="#ffff99"/>
<rect x="24" y="41" width="3" height="1" fill="#ffcc99"/>
<rect x="27" y="41" width="1" height="1" fill="#ffff99"/>
<rect x="28" y="41" width="2" height="1" fill="#ffcc99"/>
<rect x="30" y="41" width="1" height="1" fill="#ffff99"/>
<rect x="31" y="41" width="1" height="1" fill="#ffcc99"/>
<rect x="32" y="41" width="1" height="1" fill="#ffff99"/>
<rect x="33" y="41" width="10" height="1" fill="#ffcc99"/>
<rect x="43" y="41" width="1" height="1" fill="#ffff99"/>
<rect x="44" y="41" width="1" height="1" fill="#ffcc99"/>
<rect x="46" y="37" width="1" height="6" fill="#000000"/>
<rect x="6" y="42" width="40" height="1" fill="#999900"/>
<rect x="7" y="43" width="39" height="1" fill="#000000"/>
</svg>
