<?xml version="1.0" encoding="UTF-8" standalone="no"?>
<svg
   width="16"
   height="17"
   fill="none"
   version="1.1"
   id="svg6"
   sodipodi:docname="button-right-disabled.svg"
   inkscape:version="1.4.4 (dcaf3e7, 2026-05-05)"
   xmlns:inkscape="http://www.inkscape.org/namespaces/inkscape"
   xmlns:sodipodi="http://sodipodi.sourceforge.net/DTD/sodipodi-0.dtd"
   xmlns="http://www.w3.org/2000/svg"
   xmlns:svg="http://www.w3.org/2000/svg">
  <defs
     id="defs6" />
  <sodipodi:namedview
     id="namedview6"
     pagecolor="#505050"
     bordercolor="#ffffff"
     borderopacity="1"
     inkscape:showpageshadow="0"
     inkscape:pageopacity="0"
     inkscape:pagecheckerboard="1"
     inkscape:deskcolor="#505050"
     inkscape:zoom="90.509668"
     inkscape:cx="4.6293397"
     inkscape:cy="7.7947474"
     inkscape:window-width="3840"
     inkscape:window-height="2054"
     inkscape:window-x="3829"
     inkscape:window-y="-11"
     inkscape:window-maximized="1"
     inkscape:current-layer="svg6" />
  <path
     fill-rule="evenodd"
     clip-rule="evenodd"
     d="M15 0H0v16h1V1h14V0z"
     fill="#DFDFDF"
     id="path1" />
  <path
     fill-rule="evenodd"
     clip-rule="evenodd"
     d="M2 1H1v14h1V2h12V1H2z"
     fill="#fff"
     id="path2" />
  <path
     fill-rule="evenodd"
     clip-rule="evenodd"
     d="M16 17H0v-1h15V0h1v17z"
     fill="#000"
     id="path3" />
  <path
     fill-rule="evenodd"
     clip-rule="evenodd"
     d="M15 1h-1v14H1v1h14V1z"
     fill="gray"
     id="path4" />
  <path
     fill="silver"
     d="M2 2h12v13H2z"
     id="path5" />
  <path
     fill-rule="evenodd"
     clip-rule="evenodd"
     d="M7 4H6v7h1v-1h1V9h1V8h1V7H9V6H8V5H7V4z"
     fill="#000"
     id="path6"
     style="fill:#868a8e;fill-opacity:1" />
  <g
     id="g6">
    <rect
       style="fill:#ffffff;fill-opacity:1;stroke:none;stroke-width:0.979944"
       id="rect6-5"
       width="1.9995502"
       height="1.0001334"
       x="8.9921875"
       y="8" />
    <rect
       style="fill:#ffffff;fill-opacity:1;stroke:none;stroke-width:0.979944"
       id="rect6"
       width="1.9995502"
       height="1.0001334"
       x="7.0071411"
       y="10.000566" />
    <rect
       style="fill:#ffffff;fill-opacity:1;stroke:none;stroke-width:0.979944"
       id="rect6-2"
       width="1.9995502"
       height="1.0001334"
       x="8.0039062"
       y="9" />
    <rect
       style="fill:#ffffff;fill-opacity:1;stroke:none;stroke-width:0.690134"
       id="rect6-8"
       width="0.99173772"
       height="1.0001334"
       x="7.0039062"
       y="11" />
  </g>
</svg>
